#usda 1.0
(
    defaultPrim = "World"
    doc = """Generated BrepArray test fixture.\r
    Box 10x10x10 (6 planar faces). Tests: multi-face solid, edge topology, closed shell.\r
    Expected volume: 1000\r
    Expected face count: 6"""
    metersPerUnit = 0.01
    upAxis = "Y"
)

def Xform "World"
{
    def BrepArray "Cube" (
        prepend apiSchemas = ["BrepPointAPI:vertexPoint", "BrepCurve3dNurbAPI:edge3dNurb", "BrepCurveUvNurbAPI", "BrepSurfaceNurbAPI"]
    )
    {
        uniform double2[] brep:curveUv:nurb:controlVertices = [(0, 0), (10, 0), (10, 0), (10, -10), (0, -10), (10, -10), (0, 0), (0, -10), (0, 0), (10, 0), (10, 0), (10, -10), (0, -10), (10, -10), (0, 0), (0, -10), (0, 0), (0, 10), (0, 10), (10, 10), (10, 0), (10, 10), (0, 0), (10, 0), (0, 0), (0, 10), (0, 10), (10, 10), (10, 0), (10, 10), (0, 0), (10, 0), (0, 0), (0, 10), (0, 10), (10, 10), (10, 0), (10, 10), (0, 0), (10, 0), (0, 0), (0, 10), (0, 10), (10, 10), (10, 0), (10, 10), (0, 0), (10, 0)]
        uniform double[] brep:curveUv:nurb:knots = [0, 0, 10, 10, 0, 0, 10, 10, 0, 0, 10, 10, 0, 0, 10, 10, 0, 0, 10, 10, 0, 0, 10, 10, 0, 0, 10, 10, 0, 0, 10, 10, 0, 0, 10, 10, 0, 0, 10, 10, 0, 0, 10, 10, 0, 0, 10, 10, 0, 0, 10, 10, 0, 0, 10, 10, 0, 0, 10, 10, 0, 0, 10, 10, 0, 0, 10, 10, 0, 0, 10, 10, 0, 0, 10, 10, 0, 0, 10, 10, 0, 0, 10, 10, 0, 0, 10, 10, 0, 0, 10, 10, 0, 0, 10, 10]
        uniform uint[] brep:curveUv:nurb:order = [2, 2, 2, 2, 2, 2, 2, 2, 2, 2, 2, 2, 2, 2, 2, 2, 2, 2, 2, 2, 2, 2, 2, 2]
        uniform uint[] brep:curveUv:nurb:vertexCount = [2, 2, 2, 2, 2, 2, 2, 2, 2, 2, 2, 2, 2, 2, 2, 2, 2, 2, 2, 2, 2, 2, 2, 2]
        uniform point3d[] brep:edge3dNurb:curve3d:nurb:controlVertices = [(0, 0, 0), (0, 0, 10), (0, 0, 10), (0, 10, 10), (0, 10, 0), (0, 10, 10), (0, 0, 0), (0, 10, 0), (10, 0, 0), (10, 0, 10), (10, 0, 10), (10, 10, 10), (10, 10, 0), (10, 10, 10), (10, 0, 0), (10, 10, 0), (0, 0, 0), (10, 0, 0), (0, 0, 10), (10, 0, 10), (0, 10, 0), (10, 10, 0), (0, 10, 10), (10, 10, 10)]
        uniform double[] brep:edge3dNurb:curve3d:nurb:knots = [0, 0, 10, 10, 0, 0, 10, 10, 0, 0, 10, 10, 0, 0, 10, 10, 0, 0, 10, 10, 0, 0, 10, 10, 0, 0, 10, 10, 0, 0, 10, 10, 0, 0, 10, 10, 0, 0, 10, 10, 0, 0, 10, 10, 0, 0, 10, 10]
        uniform uint[] brep:edge3dNurb:curve3d:nurb:order = [2, 2, 2, 2, 2, 2, 2, 2, 2, 2, 2, 2]
        uniform uint[] brep:edge3dNurb:curve3d:nurb:vertexCount = [2, 2, 2, 2, 2, 2, 2, 2, 2, 2, 2, 2]
        uniform double[] brep:edge3dNurb:curve3d:nurb:weights = [1, 1, 1, 1, 1, 1, 1, 1, 1, 1, 1, 1, 1, 1, 1, 1, 1, 1, 1, 1, 1, 1, 1, 1]
        uniform double3[] brep:extent = [(0, 0, 0), (10, 10, 10)]
        uniform double[] brep:intersectTol3d = [0.000001]
        uniform uint[] brep:regionCount = [2]
        uniform point3d[] brep:surface:nurb:controlVertices = [(0, 10, 0), (0, 0, 0), (0, 10, 10), (0, 0, 10), (10, 10, 0), (10, 0, 0), (10, 10, 10), (10, 0, 10), (0, 0, 0), (10, 0, 0), (0, 0, 10), (10, 0, 10), (0, 10, 0), (10, 10, 0), (0, 10, 10), (10, 10, 10), (0, 0, 0), (0, 10, 0), (10, 0, 0), (10, 10, 0), (0, 0, 10), (0, 10, 10), (10, 0, 10), (10, 10, 10)]
        uniform double[] brep:surface:nurb:uKnots = [0, 0, 10, 10, 0, 0, 10, 10, 0, 0, 10, 10, 0, 0, 10, 10, 0, 0, 10, 10, 0, 0, 10, 10]
        uniform uint[] brep:surface:nurb:uOrder = [2, 2, 2, 2, 2, 2]
        uniform uint[] brep:surface:nurb:uVertexCount = [2, 2, 2, 2, 2, 2]
        uniform double[] brep:surface:nurb:vKnots = [-10, -10, 0, 0, -10, -10, 0, 0, 0, 0, 10, 10, 0, 0, 10, 10, 0, 0, 10, 10, 0, 0, 10, 10]
        uniform uint[] brep:surface:nurb:vOrder = [2, 2, 2, 2, 2, 2]
        uniform uint[] brep:surface:nurb:vVertexCount = [2, 2, 2, 2, 2, 2]
        uniform double[] brep:surface:nurb:weights = [1, 1, 1, 1, 1, 1, 1, 1, 1, 1, 1, 1, 1, 1, 1, 1, 1, 1, 1, 1, 1, 1, 1, 1]
        uniform point3d[] brep:vertexPoint:point:position = [(0, 0, 10), (0, 0, 0), (0, 10, 10), (0, 10, 0), (10, 0, 10), (10, 0, 0), (10, 10, 10), (10, 10, 0)]
        uniform token[] edge:curveType = ["BrepCurve3dNurbAPI", "BrepCurve3dNurbAPI", "BrepCurve3dNurbAPI", "BrepCurve3dNurbAPI", "BrepCurve3dNurbAPI", "BrepCurve3dNurbAPI", "BrepCurve3dNurbAPI", "BrepCurve3dNurbAPI", "BrepCurve3dNurbAPI", "BrepCurve3dNurbAPI", "BrepCurve3dNurbAPI", "BrepCurve3dNurbAPI"]
        uniform double[] edge:range = [0, 10, 0, 10, 0, 10, 0, 10, 0, 10, 0, 10, 0, 10, 0, 10, 0, 10, 0, 10, 0, 10, 0, 10]
        uniform int2[] edge:vertexIndices = [(1, 0), (0, 2), (2, 3), (3, 1), (4, 5), (6, 4), (7, 6), (5, 7), (1, 5), (4, 0), (7, 3), (2, 6)]
        uniform uint[] edgeuse:edgeIndex = [0, 1, 2, 3, 4, 5, 6, 7, 8, 4, 9, 0, 10, 6, 11, 2, 3, 10, 7, 8, 1, 11, 5, 9]
        uniform uint[] edgeuse:nextRadialEUIndex = [11, 20, 15, 16, 9, 22, 13, 18, 19, 4, 23, 0, 17, 6, 21, 2, 3, 12, 7, 8, 1, 14, 5, 10]
        uniform token[] edgeuse:orientationType = ["same", "same", "opposite", "opposite", "opposite", "opposite", "same", "same", "same", "same", "opposite", "opposite", "opposite", "opposite", "same", "same", "same", "same", "opposite", "opposite", "opposite", "opposite", "same", "same"]
        uniform token[] edgeuse:thisRadialEntryType = ["topEntry", "topEntry", "topEntry", "topEntry", "topEntry", "topEntry", "topEntry", "topEntry", "topEntry", "bottomEntry", "topEntry", "bottomEntry", "topEntry", "bottomEntry", "topEntry", "bottomEntry", "bottomEntry", "bottomEntry", "bottomEntry", "bottomEntry", "bottomEntry", "bottomEntry", "bottomEntry", "bottomEntry"]
        uniform uint[] face:loopCount = [1, 1, 1, 1, 1, 1]
        uniform double2[] face:range = [(0, -10), (10, 0), (0, -10), (10, 0), (0, 0), (10, 10), (0, 0), (10, 10), (0, 0), (10, 10), (0, 0), (10, 10)]
        uniform token[] face:surfaceType = ["BrepSurfaceNurbAPI", "BrepSurfaceNurbAPI", "BrepSurfaceNurbAPI", "BrepSurfaceNurbAPI", "BrepSurfaceNurbAPI", "BrepSurfaceNurbAPI"]
        uniform token[] face:trimType = ["general", "general", "general", "general", "general", "general"]
        uniform uint[] faceuse:faceIndex = [0, 1, 2, 3, 4, 5, 0, 1, 2, 3, 4, 5]
        uniform token[] faceuse:orientationType = ["opposite", "same", "opposite", "same", "opposite", "same", "same", "opposite", "same", "opposite", "same", "opposite"]
        uniform uint[] loop:edgeuseCount = [4, 4, 4, 4, 4, 4]
        uniform uint[] loop:vertexIndex = [1, 4, 1, 7, 1, 2]
        uniform uint[] region:shellCount = [1, 1]
        uniform token[] region:type = ["voidRegion", "solidRegion"]
        uniform uint[] shell:faceuseCount = [6, 6]
        uniform token[] shell:pointType = ["none", "none"]
        uniform uint[] shell:wireEdgeCount = [0, 0]
        uniform token[] vertex:pointType = ["BrepPointAPI", "BrepPointAPI", "BrepPointAPI", "BrepPointAPI", "BrepPointAPI", "BrepPointAPI", "BrepPointAPI", "BrepPointAPI"]
        uniform token[] wireEdge:curveType = []
        uniform double[] wireEdge:range = []
        uniform int2[] wireEdge:vertexIndices = []
    }
}

