#usda 1.0
(
    defaultPrim = "World"
    doc = """Generated BrepArray test fixture.\r
    Cone: radius=5 at base (z=0), apex at (0,0,10). 2 faces: conical barrel + base disk.\r
    Expected volume: pi * 5^2 * 10 / 3 ≈ 261.80"""
    metersPerUnit = 1
    upAxis = "Z"
)

def Xform "World"
{
    def BrepArray "Cone"
    {
        uniform double[] brep:intersectTol3d = [0.000001]
        uniform uint[] brep:regionCount = [2]
        uniform point3d[] brep:surface:nurb:controlVertices = [(5, 0, 0), (0, 0, 10), (5, 5, 0), (0, 0, 10), (0, 5, 0), (0, 0, 10), (-5, 5, 0), (0, 0, 10), (-5, 0, 0), (0, 0, 10), (-5, -5, 0), (0, 0, 10), (0, -5, 0), (0, 0, 10), (5, -5, 0), (0, 0, 10), (5, 0, 0), (0, 0, 10), (0, 0, 0), (5, 0, 0), (0, 0, 0), (5, 5, 0), (0, 0, 0), (0, 5, 0), (0, 0, 0), (-5, 5, 0), (0, 0, 0), (-5, 0, 0), (0, 0, 0), (-5, -5, 0), (0, 0, 0), (0, -5, 0), (0, 0, 0), (5, -5, 0), (0, 0, 0), (5, 0, 0)]
        uniform double[] brep:surface:nurb:uKnots = [0, 0, 0, 1.5707963268, 1.5707963268, 3.1415926536, 3.1415926536, 4.7123889804, 4.7123889804, 6.2831853072, 6.2831853072, 6.2831853072, 0, 0, 0, 1.5707963268, 1.5707963268, 3.1415926536, 3.1415926536, 4.7123889804, 4.7123889804, 6.2831853072, 6.2831853072, 6.2831853072]
        uniform uint[] brep:surface:nurb:uOrder = [3, 3]
        uniform uint[] brep:surface:nurb:uVertexCount = [9, 9]
        uniform double[] brep:surface:nurb:vKnots = [0, 0, 10, 10, 0, 0, 5, 5]
        uniform uint[] brep:surface:nurb:vOrder = [2, 2]
        uniform uint[] brep:surface:nurb:vVertexCount = [2, 2]
        uniform double[] brep:surface:nurb:weights = [1, 1, 0.7071067812, 0.7071067812, 1, 1, 0.7071067812, 0.7071067812, 1, 1, 0.7071067812, 0.7071067812, 1, 1, 0.7071067812, 0.7071067812, 1, 1, 1, 1, 0.7071067812, 0.7071067812, 1, 1, 0.7071067812, 0.7071067812, 1, 1, 0.7071067812, 0.7071067812, 1, 1, 0.7071067812, 0.7071067812, 1, 1]
        uniform point3d[] brep:vertexPoint:point:position = [(0, 0, 0), (0, 0, 10)]
        uniform uint[] face:loopCount = [1, 1]
        uniform double2[] face:range = [(0, 6.2831853072), (0, 10), (0, 6.2831853072), (0, 5)]
        uniform token[] face:surfaceType = ["BrepSurfaceNurbAPI", "BrepSurfaceNurbAPI"]
        uniform token[] face:trimType = ["natural", "natural"]
        uniform uint[] faceuse:faceIndex = [0, 1, 0, 1]
        uniform token[] faceuse:orientationType = ["same", "opposite", "opposite", "same"]
        uniform uint[] loop:edgeuseCount = [0, 0]
        uniform uint[] loop:vertexIndex = [0, 0]
        uniform uint[] region:shellCount = [1, 1]
        uniform token[] region:type = ["voidRegion", "solidRegion"]
        uniform uint[] shell:faceuseCount = [2, 2]
        uniform uint[] shell:wireEdgeCount = [0, 0]
    }
}

