#usda 1.0
(
    defaultPrim = "World"
    metersPerUnit = 0.01
    upAxis = "Y"
    doc = """Box 10^3, fillet r=1, r=3 through-hole along Z (OCCT-generated, shared topology)."""
)

def Xform "World"
{
    def BrepArray "FilletedCubeWithHole" (
        prepend apiSchemas = ["BrepPointAPI:vertexPoint", "BrepCurve3dNurbAPI:edge3dNurb", "BrepCurveUvNurbAPI", "BrepSurfaceNurbAPI"]
    )
    {
        uniform uint[] brep:regionCount = [2]
        uniform uint[] region:shellCount = [1, 1]
        uniform token[] region:type = ["voidRegion", "solidRegion"]
        uniform uint[] shell:faceuseCount = [28, 28]
        uniform uint[] shell:wireEdgeCount = [0, 0]
        uniform token[] shell:pointType = ["none", "none"]
        uniform uint[] face:loopCount = [1, 1, 1, 1, 1, 1, 1, 1, 2, 1, 2, 1, 1, 1, 1, 1, 1, 1, 1, 1, 1, 1, 1, 1, 1, 1, 1, 1]
        uniform token[] face:surfaceType = ["BrepSurfaceNurbAPI", "BrepSurfaceNurbAPI", "BrepSurfaceNurbAPI", "BrepSurfaceNurbAPI", "BrepSurfaceNurbAPI", "BrepSurfaceNurbAPI", "BrepSurfaceNurbAPI", "BrepSurfaceNurbAPI", "BrepSurfaceNurbAPI", "BrepSurfaceNurbAPI", "BrepSurfaceNurbAPI", "BrepSurfaceNurbAPI", "BrepSurfaceNurbAPI", "BrepSurfaceNurbAPI", "BrepSurfaceNurbAPI", "BrepSurfaceNurbAPI", "BrepSurfaceNurbAPI", "BrepSurfaceNurbAPI", "BrepSurfaceNurbAPI", "BrepSurfaceNurbAPI", "BrepSurfaceNurbAPI", "BrepSurfaceNurbAPI", "BrepSurfaceNurbAPI", "BrepSurfaceNurbAPI", "BrepSurfaceNurbAPI", "BrepSurfaceNurbAPI", "BrepSurfaceNurbAPI", "BrepSurfaceNurbAPI"]
        uniform token[] face:trimType = ["general", "general", "general", "general", "general", "general", "general", "general", "general", "general", "general", "general", "general", "general", "general", "general", "general", "general", "general", "general", "general", "general", "general", "general", "general", "general", "general", "general"]
        uniform double2[] face:range = [(1, -9), (9, -1), (0, 1), (1.57079632679, 9), (0, 1), (1.57079632679, 9), (0, 1), (1.57079632679, 9), (0, 1), (1.57079632679, 9), (0, -1.57079632679), (1.57079632679, 0), (0, -1.57079632679), (1.57079632679, 0), (1, 1), (9, 9), (1, 1), (9, 9), (0, -1.57079632679), (1.57079632679, 0), (1, 1), (9, 9), (0, -1.57079632679), (1.57079632679, 0), (1, 1), (9, 9), (0, 1), (1.57079632679, 9), (0, 1), (1.57079632679, 9), (0, 1), (1.57079632679, 9), (0, 1), (1.57079632679, 9), (0, 1), (1.57079632679, 9), (0, 2), (3.14159265359, 12), (3.14159265359, 2), (6.28318530718, 12), (0, 1), (1.57079632679, 9), (0, 1), (1.57079632679, 9), (0, 1), (1.57079632679, 9), (0, -1.57079632679), (1.57079632679, 0), (0, -1.57079632679), (1.57079632679, 0), (1, -9), (9, -1), (0, -1.57079632679), (1.57079632679, 0), (0, -1.57079632679), (1.57079632679, 0)]
        uniform uint[] loop:edgeuseCount = [4, 4, 4, 4, 4, 3, 3, 4, 4, 2, 3, 4, 2, 3, 4, 4, 4, 4, 4, 4, 4, 4, 4, 4, 4, 3, 3, 4, 3, 3]
        uniform uint[] loop:vertexIndex = [0, 0, 0, 0, 0, 0, 0, 0, 0, 0, 0, 0, 0, 0, 0, 0, 0, 0, 0, 0, 0, 0, 0, 0, 0, 0, 0, 0, 0, 0]
        uniform uint[] edgeuse:edgeIndex = [0, 1, 2, 3, 3, 4, 5, 6, 7, 8, 0, 9, 10, 11, 12, 2, 13, 14, 15, 1, 9, 16, 4, 17, 6, 10, 18, 19, 20, 5, 21, 22, 23, 7, 24, 25, 26, 13, 8, 11, 27, 28, 29, 30, 31, 32, 12, 15, 14, 33, 34, 35, 16, 21, 36, 20, 27, 37, 18, 17, 38, 19, 39, 40, 23, 41, 35, 26, 42, 22, 43, 44, 45, 24, 46, 31, 45, 30, 46, 25, 32, 29, 47, 33, 28, 48, 49, 50, 51, 52, 34, 53, 36, 38, 42, 50, 37, 39, 40, 44, 51, 49, 43, 41, 52, 53, 47, 48]
        uniform token[] edgeuse:orientationType = ["same", "same", "opposite", "opposite", "opposite", "same", "same", "opposite", "same", "same", "opposite", "opposite", "opposite", "same", "opposite", "opposite", "same", "same", "same", "opposite", "opposite", "same", "opposite", "same", "opposite", "opposite", "same", "opposite", "opposite", "same", "same", "same", "opposite", "opposite", "same", "same", "same", "opposite", "opposite", "opposite", "same", "same", "opposite", "same", "same", "same", "opposite", "opposite", "same", "same", "opposite", "opposite", "opposite", "same", "same", "opposite", "same", "same", "opposite", "opposite", "same", "same", "opposite", "opposite", "same", "same", "opposite", "opposite", "opposite", "same", "same", "opposite", "opposite", "same", "same", "opposite", "same", "opposite", "opposite", "same", "same", "same", "opposite", "opposite", "same", "opposite", "opposite", "opposite", "opposite", "same", "same", "same", "same", "opposite", "opposite", "opposite", "same", "opposite", "opposite", "same", "same", "opposite", "opposite", "same", "opposite", "opposite", "same", "opposite"]
        uniform token[] faceuse:orientationType = ["opposite", "same", "opposite", "same", "opposite", "same", "opposite", "opposite", "opposite", "opposite", "same", "opposite", "same", "same", "opposite", "opposite", "opposite", "same", "opposite", "opposite", "same", "opposite", "same", "opposite", "same", "same", "same", "same", "same", "opposite", "same", "opposite", "same", "opposite", "same", "same", "same", "same", "opposite", "same", "opposite", "opposite", "same", "same", "same", "opposite", "same", "same", "opposite", "same", "opposite", "same", "opposite", "opposite", "opposite", "opposite"]
        uniform uint[] faceuse:faceIndex = [0, 1, 2, 3, 4, 5, 6, 7, 8, 9, 10, 11, 12, 13, 14, 15, 16, 17, 18, 19, 20, 21, 22, 23, 24, 25, 26, 27, 0, 1, 2, 3, 4, 5, 6, 7, 8, 9, 10, 11, 12, 13, 14, 15, 16, 17, 18, 19, 20, 21, 22, 23, 24, 25, 26, 27]
        uniform uint[] edgeuse:nextRadialEUIndex = [10, 19, 15, 4, 3, 22, 29, 24, 33, 38, 0, 20, 25, 39, 46, 2, 37, 48, 47, 1, 11, 52, 5, 59, 7, 12, 58, 61, 55, 6, 53, 69, 64, 8, 73, 79, 67, 16, 9, 13, 56, 84, 81, 77, 75, 80, 14, 18, 17, 83, 90, 66, 21, 30, 92, 28, 40, 96, 26, 23, 93, 27, 97, 98, 32, 103, 51, 36, 94, 31, 102, 99, 76, 34, 78, 44, 72, 43, 74, 35, 45, 42, 106, 49, 41, 107, 101, 95, 100, 104, 50, 105, 54, 60, 68, 87, 57, 62, 63, 71, 88, 86, 70, 65, 89, 91, 82, 85]
        uniform token[] edgeuse:thisRadialEntryType = ["topEntry", "topEntry", "topEntry", "topEntry", "bottomEntry", "topEntry", "topEntry", "topEntry", "topEntry", "topEntry", "bottomEntry", "topEntry", "topEntry", "topEntry", "topEntry", "bottomEntry", "topEntry", "topEntry", "topEntry", "bottomEntry", "bottomEntry", "topEntry", "bottomEntry", "topEntry", "bottomEntry", "bottomEntry", "topEntry", "topEntry", "topEntry", "bottomEntry", "topEntry", "topEntry", "topEntry", "bottomEntry", "topEntry", "topEntry", "topEntry", "bottomEntry", "bottomEntry", "bottomEntry", "topEntry", "topEntry", "topEntry", "topEntry", "topEntry", "topEntry", "bottomEntry", "bottomEntry", "bottomEntry", "topEntry", "topEntry", "topEntry", "bottomEntry", "bottomEntry", "topEntry", "bottomEntry", "bottomEntry", "topEntry", "bottomEntry", "bottomEntry", "topEntry", "bottomEntry", "topEntry", "topEntry", "bottomEntry", "topEntry", "bottomEntry", "bottomEntry", "topEntry", "bottomEntry", "topEntry", "topEntry", "topEntry", "bottomEntry", "topEntry", "bottomEntry", "bottomEntry", "bottomEntry", "bottomEntry", "bottomEntry", "bottomEntry", "bottomEntry", "topEntry", "bottomEntry", "bottomEntry", "topEntry", "topEntry", "topEntry", "topEntry", "topEntry", "bottomEntry", "topEntry", "bottomEntry", "bottomEntry", "bottomEntry", "bottomEntry", "bottomEntry", "bottomEntry", "bottomEntry", "bottomEntry", "bottomEntry", "bottomEntry", "bottomEntry", "bottomEntry", "bottomEntry", "bottomEntry", "bottomEntry", "bottomEntry"]
        uniform token[] edge:curveType = ["BrepCurve3dNurbAPI", "BrepCurve3dNurbAPI", "BrepCurve3dNurbAPI", "BrepCurve3dNurbAPI", "BrepCurve3dNurbAPI", "BrepCurve3dNurbAPI", "BrepCurve3dNurbAPI", "BrepCurve3dNurbAPI", "BrepCurve3dNurbAPI", "BrepCurve3dNurbAPI", "BrepCurve3dNurbAPI", "BrepCurve3dNurbAPI", "BrepCurve3dNurbAPI", "BrepCurve3dNurbAPI", "BrepCurve3dNurbAPI", "BrepCurve3dNurbAPI", "BrepCurve3dNurbAPI", "BrepCurve3dNurbAPI", "BrepCurve3dNurbAPI", "BrepCurve3dNurbAPI", "BrepCurve3dNurbAPI", "BrepCurve3dNurbAPI", "BrepCurve3dNurbAPI", "BrepCurve3dNurbAPI", "BrepCurve3dNurbAPI", "BrepCurve3dNurbAPI", "BrepCurve3dNurbAPI", "BrepCurve3dNurbAPI", "BrepCurve3dNurbAPI", "BrepCurve3dNurbAPI", "BrepCurve3dNurbAPI", "BrepCurve3dNurbAPI", "BrepCurve3dNurbAPI", "BrepCurve3dNurbAPI", "BrepCurve3dNurbAPI", "BrepCurve3dNurbAPI", "BrepCurve3dNurbAPI", "BrepCurve3dNurbAPI", "BrepCurve3dNurbAPI", "BrepCurve3dNurbAPI", "BrepCurve3dNurbAPI", "BrepCurve3dNurbAPI", "BrepCurve3dNurbAPI", "BrepCurve3dNurbAPI", "BrepCurve3dNurbAPI", "BrepCurve3dNurbAPI", "BrepCurve3dNurbAPI", "BrepCurve3dNurbAPI", "BrepCurve3dNurbAPI", "BrepCurve3dNurbAPI", "BrepCurve3dNurbAPI", "BrepCurve3dNurbAPI", "BrepCurve3dNurbAPI", "BrepCurve3dNurbAPI"]
        uniform double[] edge:range = [1, 9, 1, 9, 1, 9, 1, 9, 0, 1.57079632679, 1, 9, 0, 1.57079632679, 1, 9, 4.71238898038, 6.28318530718, 4.71238898038, 6.28318530718, 4.71238898038, 6.28318530718, 1, 9, 0, 1.57079632679, 0, 1.57079632679, 1, 9, 4.71238898038, 6.28318530718, 4.71238898038, 6.28318530718, 4.71238898038, 6.28318530718, 1, 9, 1, 9, 1, 9, 1, 9, 1, 9, 1, 9, 0, 3.14159265359, 3.14159265359, 6.28318530718, 4.71238898038, 6.28318530718, 1, 9, 1, 9, 1, 9, 3.14159265359, 6.28318530718, 0, 3.14159265359, 4.71238898038, 6.28318530718, 1, 9, 1, 9, 1, 9, 4.71238898038, 6.28318530718, 4.71238898038, 6.28318530718, 0, 1.57079632679, 0, 1.57079632679, 1, 9, 4.71238898038, 6.28318530718, 4.71238898038, 6.28318530718, 4.71238898038, 6.28318530718, 1, 9, 2, 12, 2, 12, 4.71238898038, 6.28318530718, 0, 1.57079632679, 1, 9, 4.71238898038, 6.28318530718, 1, 9, 0, 1.57079632679, 4.71238898038, 6.28318530718]
        uniform int2[] edge:vertexIndices = [(0, 2), (2, 3), (1, 3), (0, 1), (0, 4), (4, 5), (1, 5), (6, 7), (7, 2), (6, 0), (8, 1), (8, 9), (3, 9), (2, 10), (10, 11), (11, 3), (6, 4), (8, 5), (5, 13), (12, 13), (4, 12), (6, 14), (14, 15), (7, 15), (16, 17), (17, 16), (7, 10), (8, 18), (18, 19), (9, 19), (20, 21), (21, 20), (11, 9), (11, 23), (22, 23), (10, 22), (14, 12), (18, 13), (24, 12), (25, 13), (24, 25), (15, 22), (14, 24), (15, 26), (24, 26), (16, 21), (17, 20), (23, 19), (27, 19), (25, 27), (18, 25), (26, 27), (26, 22), (23, 27)]
        uniform token[] wireEdge:curveType = []
        uniform double[] wireEdge:range = []
        uniform int2[] wireEdge:vertexIndices = []
        uniform token[] vertex:pointType = ["BrepPointAPI", "BrepPointAPI", "BrepPointAPI", "BrepPointAPI", "BrepPointAPI", "BrepPointAPI", "BrepPointAPI", "BrepPointAPI", "BrepPointAPI", "BrepPointAPI", "BrepPointAPI", "BrepPointAPI", "BrepPointAPI", "BrepPointAPI", "BrepPointAPI", "BrepPointAPI", "BrepPointAPI", "BrepPointAPI", "BrepPointAPI", "BrepPointAPI", "BrepPointAPI", "BrepPointAPI", "BrepPointAPI", "BrepPointAPI", "BrepPointAPI", "BrepPointAPI", "BrepPointAPI", "BrepPointAPI"]
        uniform point3d[] brep:vertexPoint:point:position = [(0, 1, 1), (0, 1, 9), (0, 9, 1), (0, 9, 9), (1, 0, 1), (1, 0, 9), (1, 1, 0), (1, 9, 0), (1, 1, 10), (1, 9, 10), (1, 10, 1), (1, 10, 9), (9, 0, 1), (9, 0, 9), (9, 1, 0), (9, 9, 0), (8, 5, 0), (2, 5, 0), (9, 1, 10), (9, 9, 10), (2, 5, 10), (8, 5, 10), (9, 10, 1), (9, 10, 9), (10, 1, 1), (10, 1, 9), (10, 9, 1), (10, 9, 9)]
        uniform uint[] brep:surface:nurb:uOrder = [2, 3, 3, 3, 3, 3, 3, 2, 2, 3, 2, 3, 2, 3, 3, 3, 3, 3, 3, 3, 3, 3, 3, 3, 3, 2, 3, 3]
        uniform uint[] brep:surface:nurb:vOrder = [2, 2, 2, 2, 2, 3, 3, 2, 2, 3, 2, 3, 2, 2, 2, 2, 2, 2, 2, 2, 2, 2, 2, 3, 3, 2, 3, 3]
        uniform uint[] brep:surface:nurb:uVertexCount = [2, 3, 3, 3, 3, 3, 3, 2, 2, 3, 2, 3, 2, 3, 3, 3, 3, 3, 5, 5, 3, 3, 3, 3, 3, 2, 3, 3]
        uniform uint[] brep:surface:nurb:vVertexCount = [2, 2, 2, 2, 2, 3, 3, 2, 2, 3, 2, 3, 2, 2, 2, 2, 2, 2, 2, 2, 2, 2, 2, 3, 3, 2, 3, 3]
        uniform double[] brep:surface:nurb:uKnots = [1, 1, 9, 9, 0, 0, 0, 1.57079632679, 1.57079632679, 1.57079632679, 0, 0, 0, 1.57079632679, 1.57079632679, 1.57079632679, 0, 0, 0, 1.57079632679, 1.57079632679, 1.57079632679, 0, 0, 0, 1.57079632679, 1.57079632679, 1.57079632679, 0, 0, 0, 1.57079632679, 1.57079632679, 1.57079632679, 0, 0, 0, 1.57079632679, 1.57079632679, 1.57079632679, 1, 1, 9, 9, 1, 1, 9, 9, 0, 0, 0, 1.57079632679, 1.57079632679, 1.57079632679, 1, 1, 9, 9, 0, 0, 0, 1.57079632679, 1.57079632679, 1.57079632679, 1, 1, 9, 9, 0, 0, 0, 1.57079632679, 1.57079632679, 1.57079632679, 0, 0, 0, 1.57079632679, 1.57079632679, 1.57079632679, 0, 0, 0, 1.57079632679, 1.57079632679, 1.57079632679, 0, 0, 0, 1.57079632679, 1.57079632679, 1.57079632679, 0, 0, 0, 1.57079632679, 1.57079632679, 1.57079632679, 0, 0, 0, 2.09439510239, 2.09439510239, 3.14159265359, 3.14159265359, 3.14159265359, 3.14159265359, 3.14159265359, 3.14159265359, 4.18879020479, 4.18879020479, 6.28318530718, 6.28318530718, 6.28318530718, 0, 0, 0, 1.57079632679, 1.57079632679, 1.57079632679, 0, 0, 0, 1.57079632679, 1.57079632679, 1.57079632679, 0, 0, 0, 1.57079632679, 1.57079632679, 1.57079632679, 0, 0, 0, 1.57079632679, 1.57079632679, 1.57079632679, 0, 0, 0, 1.57079632679, 1.57079632679, 1.57079632679, 1, 1, 9, 9, 0, 0, 0, 1.57079632679, 1.57079632679, 1.57079632679, 0, 0, 0, 1.57079632679, 1.57079632679, 1.57079632679]
        uniform double[] brep:surface:nurb:vKnots = [-9, -9, -1, -1, 1, 1, 9, 9, 1, 1, 9, 9, 1, 1, 9, 9, 1, 1, 9, 9, -1.57079632679, -1.57079632679, -1.57079632679, 0, 0, 0, -1.57079632679, -1.57079632679, -1.57079632679, 0, 0, 0, 1, 1, 9, 9, 1, 1, 9, 9, -1.57079632679, -1.57079632679, -1.57079632679, 0, 0, 0, 1, 1, 9, 9, -1.57079632679, -1.57079632679, -1.57079632679, 0, 0, 0, 1, 1, 9, 9, 1, 1, 9, 9, 1, 1, 9, 9, 1, 1, 9, 9, 1, 1, 9, 9, 1, 1, 9, 9, 2, 2, 12, 12, 2, 2, 12, 12, 1, 1, 9, 9, 1, 1, 9, 9, 1, 1, 9, 9, -1.57079632679, -1.57079632679, -1.57079632679, 0, 0, 0, -1.57079632679, -1.57079632679, -1.57079632679, 0, 0, 0, -9, -9, -1, -1, -1.57079632679, -1.57079632679, -1.57079632679, 0, 0, 0, -1.57079632679, -1.57079632679, -1.57079632679, 0, 0, 0]
        uniform point3d[] brep:surface:nurb:controlVertices = [(0, 9, 1), (0, 1, 1), (0, 9, 9), (0, 1, 9), (0, 1, 1), (0, 1, 9), (0, 0, 1), (0, 0, 9), (1, 0, 1), (1, 0, 9), (0, 1, 1), (0, 9, 1), (0, 1, 0), (0, 9, 0), (1, 1, 0), (1, 9, 0), (0, 1, 9), (0, 9, 9), (0, 1, 10), (0, 9, 10), (1, 1, 10), (1, 9, 10), (0, 9, 1), (0, 9, 9), (0, 10, 1), (0, 10, 9), (1, 10, 1), (1, 10, 9), (1, 1, 0), (0, 1, 0), (0, 1, 1), (1, 1, 0), (0, 0, 0), (0, 0, 1), (1, 1, 0), (1, 0, 0), (1, 0, 1), (1, 1, 10), (0, 1, 10), (0, 1, 9), (1, 1, 10), (0, 0, 10), (0, 0, 9), (1, 1, 10), (1, 0, 10), (1, 0, 9), (1, 0, 1), (9, 0, 1), (1, 0, 9), (9, 0, 9), (1, 1, 0), (1, 9, 0), (9, 1, 0), (9, 9, 0), (1, 9, 0), (0, 9, 0), (0, 9, 1), (1, 9, 0), (0, 10, 0), (0, 10, 1), (1, 9, 0), (1, 10, 0), (1, 10, 1), (1, 1, 10), (1, 9, 10), (9, 1, 10), (9, 9, 10), (1, 10, 9), (0, 10, 9), (0, 9, 9), (1, 10, 9), (0, 10, 10), (0, 9, 10), (1, 10, 9), (1, 10, 10), (1, 9, 10), (1, 10, 1), (9, 10, 1), (1, 10, 9), (9, 10, 9), (1, 0, 1), (9, 0, 1), (1, 0, 0), (9, 0, 0), (1, 1, 0), (9, 1, 0), (1, 0, 9), (9, 0, 9), (1, 0, 10), (9, 0, 10), (1, 1, 10), (9, 1, 10), (10, 1, 1), (10, 1, 9), (10, 0, 1), (10, 0, 9), (9, 0, 1), (9, 0, 9), (1, 10, 1), (9, 10, 1), (1, 10, 0), (9, 10, 0), (1, 9, 0), (9, 9, 0), (10, 1, 1), (10, 9, 1), (10, 1, 0), (10, 9, 0), (9, 1, 0), (9, 9, 0), (8, 5, 0), (8, 5, 10), (8, 10.1961524227, 0), (8, 10.1961524227, 10), (3.5, 7.59807621135, 0), (3.5, 7.59807621135, 10), (2, 6.73205080757, 0), (2, 6.73205080757, 10), (2, 5, 0), (2, 5, 10), (2, 5, 0), (2, 5, 10), (2, 3.26794919243, 0), (2, 3.26794919243, 10), (3.5, 2.40192378865, 0), (3.5, 2.40192378865, 10), (8, -0.196152422707, 0), (8, -0.196152422707, 10), (8, 5, 0), (8, 5, 10), (1, 10, 9), (9, 10, 9), (1, 10, 10), (9, 10, 10), (1, 9, 10), (9, 9, 10), (10, 1, 9), (10, 9, 9), (10, 1, 10), (10, 9, 10), (9, 1, 10), (9, 9, 10), (10, 9, 1), (10, 9, 9), (10, 10, 1), (10, 10, 9), (9, 10, 1), (9, 10, 9), (9, 1, 0), (10, 1, 0), (10, 1, 1), (9, 1, 0), (10, 0, 0), (10, 0, 1), (9, 1, 0), (9, 0, 0), (9, 0, 1), (9, 1, 10), (10, 1, 10), (10, 1, 9), (9, 1, 10), (10, 0, 10), (10, 0, 9), (9, 1, 10), (9, 0, 10), (9, 0, 9), (10, 9, 1), (10, 1, 1), (10, 9, 9), (10, 1, 9), (9, 9, 0), (10, 9, 0), (10, 9, 1), (9, 9, 0), (10, 10, 0), (10, 10, 1), (9, 9, 0), (9, 10, 0), (9, 10, 1), (9, 10, 9), (10, 10, 9), (10, 9, 9), (9, 10, 9), (10, 10, 10), (10, 9, 10), (9, 10, 9), (9, 10, 10), (9, 9, 10)]
        uniform double[] brep:surface:nurb:weights = [1, 1, 1, 1, 1, 1, 0.707106781187, 0.707106781187, 1, 1, 1, 1, 0.707106781187, 0.707106781187, 1, 1, 1, 1, 0.707106781187, 0.707106781187, 1, 1, 1, 1, 0.707106781187, 0.707106781187, 1, 1, 1, 0.707106781187, 1, 0.707106781187, 0.5, 0.707106781187, 1, 0.707106781187, 1, 1, 0.707106781187, 1, 0.707106781187, 0.5, 0.707106781187, 1, 0.707106781187, 1, 1, 1, 1, 1, 1, 1, 1, 1, 1, 0.707106781187, 1, 0.707106781187, 0.5, 0.707106781187, 1, 0.707106781187, 1, 1, 1, 1, 1, 1, 0.707106781187, 1, 0.707106781187, 0.5, 0.707106781187, 1, 0.707106781187, 1, 1, 1, 1, 1, 1, 1, 0.707106781187, 0.707106781187, 1, 1, 1, 1, 0.707106781187, 0.707106781187, 1, 1, 1, 1, 0.707106781187, 0.707106781187, 1, 1, 1, 1, 0.707106781187, 0.707106781187, 1, 1, 1, 1, 0.707106781187, 0.707106781187, 1, 1, 1, 1, 0.5, 0.5, 1, 1, 0.75, 0.75, 0.75, 0.75, 0.75, 0.75, 0.75, 0.75, 1, 1, 0.5, 0.5, 1, 1, 1, 1, 0.707106781187, 0.707106781187, 1, 1, 1, 1, 0.707106781187, 0.707106781187, 1, 1, 1, 1, 0.707106781187, 0.707106781187, 1, 1, 1, 0.707106781187, 1, 0.707106781187, 0.5, 0.707106781187, 1, 0.707106781187, 1, 1, 0.707106781187, 1, 0.707106781187, 0.5, 0.707106781187, 1, 0.707106781187, 1, 1, 1, 1, 1, 1, 0.707106781187, 1, 0.707106781187, 0.5, 0.707106781187, 1, 0.707106781187, 1, 1, 0.707106781187, 1, 0.707106781187, 0.5, 0.707106781187, 1, 0.707106781187, 1]
        uniform uint[] brep:edge3dNurb:curve3d:nurb:order = [2, 2, 2, 2, 3, 2, 3, 2, 3, 3, 3, 2, 3, 3, 2, 3, 3, 3, 2, 2, 2, 2, 2, 2, 3, 3, 3, 2, 2, 2, 3, 3, 3, 2, 2, 2, 3, 3, 3, 3, 2, 3, 3, 3, 2, 2, 2, 3, 3, 2, 3, 2, 3, 3]
        uniform uint[] brep:edge3dNurb:curve3d:nurb:vertexCount = [2, 2, 2, 2, 3, 2, 3, 2, 3, 3, 3, 2, 3, 3, 2, 3, 3, 3, 2, 2, 2, 2, 2, 2, 5, 5, 3, 2, 2, 2, 5, 5, 3, 2, 2, 2, 3, 3, 3, 3, 2, 3, 3, 3, 2, 2, 2, 3, 3, 2, 3, 2, 3, 3]
        uniform double[] brep:edge3dNurb:curve3d:nurb:knots = [1, 1, 9, 9, 1, 1, 9, 9, 1, 1, 9, 9, 1, 1, 9, 9, 0, 0, 0, 1.57079632679, 1.57079632679, 1.57079632679, 1, 1, 9, 9, 0, 0, 0, 1.57079632679, 1.57079632679, 1.57079632679, 1, 1, 9, 9, 4.71238898038, 4.71238898038, 4.71238898038, 6.28318530718, 6.28318530718, 6.28318530718, 4.71238898038, 4.71238898038, 4.71238898038, 6.28318530718, 6.28318530718, 6.28318530718, 4.71238898038, 4.71238898038, 4.71238898038, 6.28318530718, 6.28318530718, 6.28318530718, 1, 1, 9, 9, 0, 0, 0, 1.57079632679, 1.57079632679, 1.57079632679, 0, 0, 0, 1.57079632679, 1.57079632679, 1.57079632679, 1, 1, 9, 9, 4.71238898038, 4.71238898038, 4.71238898038, 6.28318530718, 6.28318530718, 6.28318530718, 4.71238898038, 4.71238898038, 4.71238898038, 6.28318530718, 6.28318530718, 6.28318530718, 4.71238898038, 4.71238898038, 4.71238898038, 6.28318530718, 6.28318530718, 6.28318530718, 1, 1, 9, 9, 1, 1, 9, 9, 1, 1, 9, 9, 1, 1, 9, 9, 1, 1, 9, 9, 1, 1, 9, 9, 0, 0, 0, 2.09439510239, 2.09439510239, 3.14159265359, 3.14159265359, 3.14159265359, 3.14159265359, 3.14159265359, 3.14159265359, 4.18879020479, 4.18879020479, 6.28318530718, 6.28318530718, 6.28318530718, 4.71238898038, 4.71238898038, 4.71238898038, 6.28318530718, 6.28318530718, 6.28318530718, 1, 1, 9, 9, 1, 1, 9, 9, 1, 1, 9, 9, 3.14159265359, 3.14159265359, 3.14159265359, 4.18879020479, 4.18879020479, 6.28318530718, 6.28318530718, 6.28318530718, 0, 0, 0, 2.09439510239, 2.09439510239, 3.14159265359, 3.14159265359, 3.14159265359, 4.71238898038, 4.71238898038, 4.71238898038, 6.28318530718, 6.28318530718, 6.28318530718, 1, 1, 9, 9, 1, 1, 9, 9, 1, 1, 9, 9, 4.71238898038, 4.71238898038, 4.71238898038, 6.28318530718, 6.28318530718, 6.28318530718, 4.71238898038, 4.71238898038, 4.71238898038, 6.28318530718, 6.28318530718, 6.28318530718, 0, 0, 0, 1.57079632679, 1.57079632679, 1.57079632679, 0, 0, 0, 1.57079632679, 1.57079632679, 1.57079632679, 1, 1, 9, 9, 4.71238898038, 4.71238898038, 4.71238898038, 6.28318530718, 6.28318530718, 6.28318530718, 4.71238898038, 4.71238898038, 4.71238898038, 6.28318530718, 6.28318530718, 6.28318530718, 4.71238898038, 4.71238898038, 4.71238898038, 6.28318530718, 6.28318530718, 6.28318530718, 1, 1, 9, 9, 2, 2, 12, 12, 2, 2, 12, 12, 4.71238898038, 4.71238898038, 4.71238898038, 6.28318530718, 6.28318530718, 6.28318530718, 0, 0, 0, 1.57079632679, 1.57079632679, 1.57079632679, 1, 1, 9, 9, 4.71238898038, 4.71238898038, 4.71238898038, 6.28318530718, 6.28318530718, 6.28318530718, 1, 1, 9, 9, 0, 0, 0, 1.57079632679, 1.57079632679, 1.57079632679, 4.71238898038, 4.71238898038, 4.71238898038, 6.28318530718, 6.28318530718, 6.28318530718]
        uniform point3d[] brep:edge3dNurb:curve3d:nurb:controlVertices = [(0, 1, 1), (0, 9, 1), (0, 9, 1), (0, 9, 9), (0, 1, 9), (0, 9, 9), (0, 1, 1), (0, 1, 9), (0, 1, 1), (0, 0, 1), (1, 0, 1), (1, 0, 1), (1, 0, 9), (0, 1, 9), (0, 0, 9), (1, 0, 9), (1, 1, 0), (1, 9, 0), (1, 9, 0), (0, 9, 0), (0, 9, 1), (1, 1, 0), (0, 1, 0), (0, 1, 1), (1, 1, 10), (0, 1, 10), (0, 1, 9), (1, 1, 10), (1, 9, 10), (0, 9, 9), (0, 9, 10), (1, 9, 10), (0, 9, 1), (0, 10, 1), (1, 10, 1), (1, 10, 1), (1, 10, 9), (1, 10, 9), (0, 10, 9), (0, 9, 9), (1, 1, 0), (1, 0, 0), (1, 0, 1), (1, 1, 10), (1, 0, 10), (1, 0, 9), (1, 0, 9), (9, 0, 9), (9, 0, 1), (9, 0, 9), (1, 0, 1), (9, 0, 1), (1, 1, 0), (9, 1, 0), (9, 1, 0), (9, 9, 0), (1, 9, 0), (9, 9, 0), (8, 5, 0), (8, 10.1961524227, 0), (3.5, 7.59807621135, 0), (2, 6.73205080757, 0), (2, 5, 0), (2, 5, 0), (2, 3.26794919243, 0), (3.5, 2.40192378865, 0), (8, -0.196152422707, 0), (8, 5, 0), (1, 9, 0), (1, 10, 0), (1, 10, 1), (1, 1, 10), (9, 1, 10), (9, 1, 10), (9, 9, 10), (1, 9, 10), (9, 9, 10), (2, 5, 10), (2, 3.26794919243, 10), (3.5, 2.40192378865, 10), (8, -0.196152422707, 10), (8, 5, 10), (8, 5, 10), (8, 10.1961524227, 10), (3.5, 7.59807621135, 10), (2, 6.73205080757, 10), (2, 5, 10), (1, 10, 9), (1, 10, 10), (1, 9, 10), (1, 10, 9), (9, 10, 9), (9, 10, 1), (9, 10, 9), (1, 10, 1), (9, 10, 1), (9, 1, 0), (9, 0, 0), (9, 0, 1), (9, 1, 10), (9, 0, 10), (9, 0, 9), (10, 1, 1), (10, 0, 1), (9, 0, 1), (10, 1, 9), (10, 0, 9), (9, 0, 9), (10, 1, 1), (10, 1, 9), (9, 9, 0), (9, 10, 0), (9, 10, 1), (9, 1, 0), (10, 1, 0), (10, 1, 1), (9, 9, 0), (10, 9, 0), (10, 9, 1), (10, 1, 1), (10, 9, 1), (8, 5, 0), (8, 5, 10), (2, 5, 0), (2, 5, 10), (9, 10, 9), (9, 10, 10), (9, 9, 10), (10, 9, 9), (10, 9, 10), (9, 9, 10), (10, 1, 9), (10, 9, 9), (9, 1, 10), (10, 1, 10), (10, 1, 9), (10, 9, 1), (10, 9, 9), (10, 9, 1), (10, 10, 1), (9, 10, 1), (9, 10, 9), (10, 10, 9), (10, 9, 9)]
        uniform double[] brep:edge3dNurb:curve3d:nurb:weights = [1, 1, 1, 1, 1, 1, 1, 1, 1, 0.707106781187, 1, 1, 1, 1, 0.707106781187, 1, 1, 1, 1, 0.707106781187, 1, 1, 0.707106781187, 1, 1, 0.707106781187, 1, 1, 1, 1, 0.707106781187, 1, 1, 0.707106781187, 1, 1, 1, 1, 0.707106781187, 1, 1, 0.707106781187, 1, 1, 0.707106781187, 1, 1, 1, 1, 1, 1, 1, 1, 1, 1, 1, 1, 1, 1, 0.5, 1, 0.75, 0.75, 0.75, 0.75, 1, 0.5, 1, 1, 0.707106781187, 1, 1, 1, 1, 1, 1, 1, 0.75, 0.75, 1, 0.5, 1, 1, 0.5, 1, 0.75, 0.75, 1, 0.707106781187, 1, 1, 1, 1, 1, 1, 1, 1, 0.707106781187, 1, 1, 0.707106781187, 1, 1, 0.707106781187, 1, 1, 0.707106781187, 1, 1, 1, 1, 0.707106781187, 1, 1, 0.707106781187, 1, 1, 0.707106781187, 1, 1, 1, 1, 1, 1, 1, 1, 0.707106781187, 1, 1, 0.707106781187, 1, 1, 1, 1, 0.707106781187, 1, 1, 1, 1, 0.707106781187, 1, 1, 0.707106781187, 1]
        uniform uint[] brep:curveUv:nurb:order = [2, 2, 2, 2, 3, 3, 3, 3, 3, 3, 3, 3, 3, 3, 3, 3, 3, 3, 3, 3, 3, 3, 3, 3, 3, 3, 2, 2, 2, 2, 2, 2, 2, 2, 3, 3, 3, 3, 3, 2, 2, 2, 2, 3, 3, 3, 3, 3, 2, 2, 2, 2, 3, 3, 3, 3, 3, 3, 3, 3, 3, 3, 3, 3, 3, 3, 3, 3, 3, 3, 3, 3, 3, 3, 2, 3, 3, 3, 2, 3, 3, 3, 3, 3, 3, 3, 3, 3, 3, 3, 3, 3, 3, 3, 3, 3, 3, 3, 2, 2, 2, 2, 3, 3, 3, 3, 3, 3]
        uniform uint[] brep:curveUv:nurb:vertexCount = [2, 2, 2, 2, 3, 3, 3, 3, 3, 3, 3, 3, 3, 3, 3, 3, 3, 3, 3, 3, 3, 3, 3, 3, 3, 3, 2, 2, 2, 2, 2, 2, 2, 2, 5, 5, 3, 3, 3, 2, 2, 2, 2, 5, 5, 3, 3, 3, 2, 2, 2, 2, 3, 3, 3, 3, 3, 3, 3, 3, 3, 3, 3, 3, 3, 3, 3, 3, 3, 3, 3, 3, 3, 5, 2, 5, 3, 5, 2, 5, 3, 3, 3, 3, 3, 3, 3, 3, 3, 3, 3, 3, 3, 3, 3, 3, 3, 3, 2, 2, 2, 2, 3, 3, 3, 3, 3, 3]
        uniform double[] brep:curveUv:nurb:knots = [1, 1, 9, 9, 1, 1, 9, 9, 1, 1, 9, 9, 1, 1, 9, 9, 1, 1, 1, 9, 9, 9, 0, 0, 0, 1.57079632679, 1.57079632679, 1.57079632679, 1, 1, 1, 9, 9, 9, 0, 0, 0, 1.57079632679, 1.57079632679, 1.57079632679, 1, 1, 1, 9, 9, 9, 4.71238898038, 4.71238898038, 4.71238898038, 6.28318530718, 6.28318530718, 6.28318530718, 1, 1, 1, 9, 9, 9, 4.71238898038, 4.71238898038, 4.71238898038, 6.28318530718, 6.28318530718, 6.28318530718, 4.71238898038, 4.71238898038, 4.71238898038, 6.28318530718, 6.28318530718, 6.28318530718, 1, 1, 1, 9, 9, 9, 0, 0, 0, 1.57079632679, 1.57079632679, 1.57079632679, 1, 1, 1, 9, 9, 9, 0, 0, 0, 1.57079632679, 1.57079632679, 1.57079632679, 1, 1, 1, 9, 9, 9, 4.71238898038, 4.71238898038, 4.71238898038, 6.28318530718, 6.28318530718, 6.28318530718, 1, 1, 1, 9, 9, 9, 4.71238898038, 4.71238898038, 4.71238898038, 6.28318530718, 6.28318530718, 6.28318530718, 4.71238898038, 4.71238898038, 4.71238898038, 6.28318530718, 6.28318530718, 6.28318530718, 0, 0, 0, 1.57079632679, 1.57079632679, 1.57079632679, 4.71238898038, 4.71238898038, 4.71238898038, 6.28318530718, 6.28318530718, 6.28318530718, 0, 0, 0, 1.57079632679, 1.57079632679, 1.57079632679, 4.71238898038, 4.71238898038, 4.71238898038, 6.28318530718, 6.28318530718, 6.28318530718, 1, 1, 9, 9, 1, 1, 9, 9, 1, 1, 9, 9, 1, 1, 9, 9, 1, 1, 9, 9, 1, 1, 9, 9, 1, 1, 9, 9, 1, 1, 9, 9, 0, 0, 0, 2.09439510239, 2.09439510239, 3.14159265359, 3.14159265359, 3.14159265359, 3.14159265359, 3.14159265359, 3.14159265359, 4.18879020479, 4.18879020479, 6.28318530718, 6.28318530718, 6.28318530718, 4.71238898038, 4.71238898038, 4.71238898038, 6.28318530718, 6.28318530718, 6.28318530718, 0, 0, 0, 1.57079632679, 1.57079632679, 1.57079632679, 4.71238898038, 4.71238898038, 4.71238898038, 6.28318530718, 6.28318530718, 6.28318530718, 1, 1, 9, 9, 1, 1, 9, 9, 1, 1, 9, 9, 1, 1, 9, 9, 3.14159265359, 3.14159265359, 3.14159265359, 4.18879020479, 4.18879020479, 6.28318530718, 6.28318530718, 6.28318530718, 0, 0, 0, 2.09439510239, 2.09439510239, 3.14159265359, 3.14159265359, 3.14159265359, 4.71238898038, 4.71238898038, 4.71238898038, 6.28318530718, 6.28318530718, 6.28318530718, 0, 0, 0, 1.57079632679, 1.57079632679, 1.57079632679, 4.71238898038, 4.71238898038, 4.71238898038, 6.28318530718, 6.28318530718, 6.28318530718, 1, 1, 9, 9, 1, 1, 9, 9, 1, 1, 9, 9, 1, 1, 9, 9, 4.71238898038, 4.71238898038, 4.71238898038, 6.28318530718, 6.28318530718, 6.28318530718, 1, 1, 1, 9, 9, 9, 4.71238898038, 4.71238898038, 4.71238898038, 6.28318530718, 6.28318530718, 6.28318530718, 1, 1, 1, 9, 9, 9, 1, 1, 1, 9, 9, 9, 4.71238898038, 4.71238898038, 4.71238898038, 6.28318530718, 6.28318530718, 6.28318530718, 1, 1, 1, 9, 9, 9, 4.71238898038, 4.71238898038, 4.71238898038, 6.28318530718, 6.28318530718, 6.28318530718, 0, 0, 0, 1.57079632679, 1.57079632679, 1.57079632679, 1, 1, 1, 9, 9, 9, 0, 0, 0, 1.57079632679, 1.57079632679, 1.57079632679, 1, 1, 1, 9, 9, 9, 1, 1, 1, 9, 9, 9, 4.71238898038, 4.71238898038, 4.71238898038, 6.28318530718, 6.28318530718, 6.28318530718, 1, 1, 1, 9, 9, 9, 4.71238898038, 4.71238898038, 4.71238898038, 6.28318530718, 6.28318530718, 6.28318530718, 4.71238898038, 4.71238898038, 4.71238898038, 6.28318530718, 6.28318530718, 6.28318530718, 1, 1, 1, 9, 9, 9, 4.71238898038, 4.71238898038, 4.71238898038, 6.28318530718, 6.28318530718, 6.28318530718, 1, 1, 1, 9, 9, 9, 2, 2, 2, 12, 12, 12, 0, 0, 0, 2.09439510239, 2.09439510239, 3.14159265359, 3.14159265359, 3.14159265359, 2, 2, 12, 12, 0, 0, 0, 1.0471975512, 1.0471975512, 3.14159265359, 3.14159265359, 3.14159265359, 2, 2, 2, 12, 12, 12, 3.14159265359, 3.14159265359, 3.14159265359, 5.23598775598, 5.23598775598, 6.28318530718, 6.28318530718, 6.28318530718, 2, 2, 12, 12, 3.14159265359, 3.14159265359, 3.14159265359, 4.18879020479, 4.18879020479, 6.28318530718, 6.28318530718, 6.28318530718, 4.71238898038, 4.71238898038, 4.71238898038, 6.28318530718, 6.28318530718, 6.28318530718, 1, 1, 1, 9, 9, 9, 4.71238898038, 4.71238898038, 4.71238898038, 6.28318530718, 6.28318530718, 6.28318530718, 1, 1, 1, 9, 9, 9, 1, 1, 1, 9, 9, 9, 0, 0, 0, 1.57079632679, 1.57079632679, 1.57079632679, 1, 1, 1, 9, 9, 9, 4.71238898038, 4.71238898038, 4.71238898038, 6.28318530718, 6.28318530718, 6.28318530718, 1, 1, 1, 9, 9, 9, 0, 0, 0, 1.57079632679, 1.57079632679, 1.57079632679, 1, 1, 1, 9, 9, 9, 4.71238898038, 4.71238898038, 4.71238898038, 6.28318530718, 6.28318530718, 6.28318530718, 4.71238898038, 4.71238898038, 4.71238898038, 6.28318530718, 6.28318530718, 6.28318530718, 0, 0, 0, 1.57079632679, 1.57079632679, 1.57079632679, 4.71238898038, 4.71238898038, 4.71238898038, 6.28318530718, 6.28318530718, 6.28318530718, 4.71238898038, 4.71238898038, 4.71238898038, 6.28318530718, 6.28318530718, 6.28318530718, 4.71238898038, 4.71238898038, 4.71238898038, 6.28318530718, 6.28318530718, 6.28318530718, 0, 0, 0, 1.57079632679, 1.57079632679, 1.57079632679, 1, 1, 9, 9, 1, 1, 9, 9, 1, 1, 9, 9, 1, 1, 9, 9, 4.71238898038, 4.71238898038, 4.71238898038, 6.28318530718, 6.28318530718, 6.28318530718, 4.71238898038, 4.71238898038, 4.71238898038, 6.28318530718, 6.28318530718, 6.28318530718, 0, 0, 0, 1.57079632679, 1.57079632679, 1.57079632679, 4.71238898038, 4.71238898038, 4.71238898038, 6.28318530718, 6.28318530718, 6.28318530718, 4.71238898038, 4.71238898038, 4.71238898038, 6.28318530718, 6.28318530718, 6.28318530718, 0, 0, 0, 1.57079632679, 1.57079632679, 1.57079632679]
        uniform double2[] brep:curveUv:nurb:controlVertices = [(1, -1), (1, -9), (1, -9), (9, -9), (9, -9), (9, -1), (9, -1), (1, -1), (0, 9), (0, 5), (0, 1), (0, 1), (0.785398163397, 1), (1.57079632679, 1), (1.57079632679, 1), (1.57079632679, 5), (1.57079632679, 9), (1.57079632679, 9), (0.785398163397, 9), (0, 9), (1.57079632679, 1), (1.57079632679, 5), (1.57079632679, 9), (1.57079632679, 9), (0.785398163397, 9), (0, 9), (0, 9), (0, 5), (0, 1), (0, 1), (0.785398163397, 1), (1.57079632679, 1), (0, 1), (0.785398163397, 1), (1.57079632679, 1), (1.57079632679, 1), (1.57079632679, 5), (1.57079632679, 9), (1.57079632679, 9), (0.785398163397, 9), (0, 9), (0, 9), (0, 5), (0, 1), (0, 1), (0.785398163397, 1), (1.57079632679, 1), (1.57079632679, 1), (1.57079632679, 5), (1.57079632679, 9), (1.57079632679, 9), (0.785398163397, 9), (0, 9), (0, 9), (0, 5), (0, 1), (0, 0), (0, -0.785398163397), (0, -1.57079632679), (1.57079632679, -1.57079632679), (1.57079632679, -0.785398163397), (1.57079632679, 0), (1.57079632679, 0), (0.785398163397, 0), (0, 0), (1.57079632679, -1.57079632679), (1.57079632679, -0.785398163397), (1.57079632679, 0), (1.57079632679, 0), (0.785398163397, 0), (0, 0), (0, 0), (0, -0.785398163397), (0, -1.57079632679), (9, 1), (9, 9), (9, 9), (1, 9), (1, 9), (1, 1), (1, 1), (9, 1), (1, 1), (9, 1), (9, 1), (9, 9), (9, 9), (1, 9), (1, 9), (1, 1), (8, 5), (8, 10.1961524227), (3.5, 7.59807621135), (2, 6.73205080757), (2, 5), (2, 5), (2, 3.26794919243), (3.5, 2.40192378865), (8, -0.196152422707), (8, 5), (1.57079632679, -1.57079632679), (1.57079632679, -0.785398163397), (1.57079632679, 0), (1.57079632679, 0), (0.785398163397, 0), (0, 0), (0, 0), (0, -0.785398163397), (0, -1.57079632679), (1, 9), (1, 1), (1, 1), (9, 1), (9, 1), (9, 9), (9, 9), (1, 9), (2, 5), (2, 3.26794919243), (3.5, 2.40192378865), (8, -0.196152422707), (8, 5), (8, 5), (8, 10.1961524227), (3.5, 7.59807621135), (2, 6.73205080757), (2, 5), (1.57079632679, -1.57079632679), (1.57079632679, -0.785398163397), (1.57079632679, 0), (1.57079632679, 0), (0.785398163397, 0), (0, 0), (0, 0), (0, -0.785398163397), (0, -1.57079632679), (1, 1), (9, 1), (9, 1), (9, 9), (9, 9), (1, 9), (1, 9), (1, 1), (0, 1), (0.785398163397, 1), (1.57079632679, 1), (1.57079632679, 1), (1.57079632679, 5), (1.57079632679, 9), (1.57079632679, 9), (0.785398163397, 9), (0, 9), (0, 9), (0, 5), (0, 1), (1.57079632679, 1), (1.57079632679, 5), (1.57079632679, 9), (1.57079632679, 9), (0.785398163397, 9), (0, 9), (0, 9), (0, 5), (0, 1), (0, 1), (0.785398163397, 1), (1.57079632679, 1), (0, 1), (0.785398163397, 1), (1.57079632679, 1), (1.57079632679, 1), (1.57079632679, 5), (1.57079632679, 9), (1.57079632679, 9), (0.785398163397, 9), (0, 9), (0, 9), (0, 5), (0, 1), (1.57079632679, 1), (1.57079632679, 5), (1.57079632679, 9), (1.57079632679, 9), (0.785398163397, 9), (0, 9), (0, 9), (0, 5), (0, 1), (0, 1), (0.785398163397, 1), (1.57079632679, 1), (0, 1), (0.785398163397, 1), (1.57079632679, 1), (1.57079632679, 1), (1.57079632679, 5), (1.57079632679, 9), (1.57079632679, 9), (0.785398163397, 9), (0, 9), (0, 9), (0, 5), (0, 1), (0, 12), (0, 7), (0, 2), (0, 2), (1.0471975512, 2), (2.09439510239, 2), (2.61799387799, 2), (3.14159265359, 2), (3.14159265359, 2), (3.14159265359, 12), (3.14159265359, 12), (2.61799387799, 12), (2.09439510239, 12), (1.0471975512, 12), (0, 12), (6.28318530718, 2), (6.28318530718, 7), (6.28318530718, 12), (6.28318530718, 12), (5.23598775598, 12), (4.18879020479, 12), (3.66519142919, 12), (3.14159265359, 12), (3.14159265359, 12), (3.14159265359, 2), (3.14159265359, 2), (3.66519142919, 2), (4.18879020479, 2), (5.23598775598, 2), (6.28318530718, 2), (0, 1), (0.785398163397, 1), (1.57079632679, 1), (1.57079632679, 1), (1.57079632679, 5), (1.57079632679, 9), (1.57079632679, 9), (0.785398163397, 9), (0, 9), (0, 9), (0, 5), (0, 1), (1.57079632679, 1), (1.57079632679, 5), (1.57079632679, 9), (1.57079632679, 9), (0.785398163397, 9), (0, 9), (0, 9), (0, 5), (0, 1), (0, 1), (0.785398163397, 1), (1.57079632679, 1), (0, 9), (0, 5), (0, 1), (0, 1), (0.785398163397, 1), (1.57079632679, 1), (1.57079632679, 1), (1.57079632679, 5), (1.57079632679, 9), (1.57079632679, 9), (0.785398163397, 9), (0, 9), (1.57079632679, -1.57079632679), (1.57079632679, -0.785398163397), (1.57079632679, 0), (1.57079632679, 0), (0.785398163397, 0), (0, 0), (0, 0), (0, -0.785398163397), (0, -1.57079632679), (0, 0), (0, -0.785398163397), (0, -1.57079632679), (1.57079632679, -1.57079632679), (1.57079632679, -0.785398163397), (1.57079632679, 0), (1.57079632679, 0), (0.785398163397, 0), (0, 0), (9, -1), (1, -1), (1, -1), (1, -9), (1, -9), (9, -9), (9, -9), (9, -1), (0, 0), (0, -0.785398163397), (0, -1.57079632679), (1.57079632679, -1.57079632679), (1.57079632679, -0.785398163397), (1.57079632679, 0), (1.57079632679, 0), (0.785398163397, 0), (0, 0), (0, 0), (0, -0.785398163397), (0, -1.57079632679), (1.57079632679, -1.57079632679), (1.57079632679, -0.785398163397), (1.57079632679, 0), (1.57079632679, 0), (0.785398163397, 0), (0, 0)]
        uniform double[] brep:curveUv:nurb:weights = [1, 1, 1, 1, 1, 1, 1, 1, 1, 1, 1, 1, 1, 1, 1, 1, 1, 1, 1, 1, 1, 1, 1, 1, 1, 1, 1, 1, 1, 1, 1, 1, 1, 1, 1, 1, 1, 1, 1, 1, 1, 1, 1, 1, 1, 1, 1, 1, 1, 1, 1, 1, 1, 1, 1, 1, 1, 1, 1, 1, 1, 1, 1, 1, 1, 1, 1, 1, 1, 1, 1, 1, 1, 1, 1, 1, 1, 1, 1, 1, 1, 1, 1, 1, 1, 1, 1, 1, 1, 1, 1, 0.5, 1, 0.75, 0.75, 0.75, 0.75, 1, 0.5, 1, 1, 1, 1, 1, 1, 1, 1, 1, 1, 1, 1, 1, 1, 1, 1, 1, 1, 0.75, 0.75, 1, 0.5, 1, 1, 0.5, 1, 0.75, 0.75, 1, 1, 1, 1, 1, 1, 1, 1, 1, 1, 1, 1, 1, 1, 1, 1, 1, 1, 1, 1, 1, 1, 1, 1, 1, 1, 1, 1, 1, 1, 1, 1, 1, 1, 1, 1, 1, 1, 1, 1, 1, 1, 1, 1, 1, 1, 1, 1, 1, 1, 1, 1, 1, 1, 1, 1, 1, 1, 1, 1, 1, 1, 1, 1, 1, 1, 1, 1, 1, 1, 1, 1, 1, 1, 1, 1, 1, 1, 1, 1, 1, 1, 1, 1, 1, 1, 1, 1, 1, 1, 1, 1, 1, 1, 1, 1, 1, 1, 1, 1, 1, 1, 1, 1, 1, 1, 1, 1, 1, 1, 1, 1, 1, 1, 1, 1, 1, 1, 1, 1, 1, 1, 1, 1, 1, 1, 1, 1, 1, 1, 1, 1, 1, 1, 1, 1, 1, 1, 1, 1, 1, 1, 1, 1, 1, 1, 1, 1, 1, 1, 1, 1, 1, 1, 1, 1, 1, 1, 1, 1, 1, 1, 1, 1, 1, 1, 1, 1, 1, 1, 1, 1, 1, 1, 1, 1, 1, 1, 1, 1, 1, 1, 1, 1, 1, 1, 1]
        uniform double[] brep:intersectTol3d = [1e-06]
        uniform double3[] brep:extent = [(0, -0.196152422707, 0), (10, 10.1961524227, 10)]
    }
}
