#usda 1.0
(
    defaultPrim = "World"
    upAxis = "Z"
)

def Xform "World"
{
    def BrepArray "AnSphere" (
        prepend apiSchemas = ["BrepPointAPI:vertexPoint", "BrepCurve3dNurbAPI:edge3dNurb", "BrepCurveUvNurbAPI", "BrepSurfaceSphereAPI"]
    )
    {
        uniform double2[] brep:curveUv:nurb:controlVertices = [(0, -0.785398163397), (4.712388980385, -0.785398163397), (4.712388980385, -0.785398163397), (4.712388980385, 0.785398163397), (4.712388980385, 0.785398163397), (0, 0.785398163397), (0, 0.785398163397), (0, -0.785398163397)]
        uniform double[] brep:curveUv:nurb:knots = [0, 0, 1, 1, 0, 0, 1, 1, 0, 0, 1, 1, 0, 0, 1, 1]
        uniform uint[] brep:curveUv:nurb:order = [2, 2, 2, 2]
        uniform uint[] brep:curveUv:nurb:vertexCount = [2, 2, 2, 2]
        uniform double[] brep:curveUv:nurb:weights = [1, 1, 1, 1, 1, 1, 1, 1]
        uniform point3d[] brep:edge3dNurb:curve3d:nurb:controlVertices = [(2.12132034356, 0, -2.12132034356), (-0, -2.12132034356, -2.12132034356), (-0, -2.12132034356, -2.12132034356), (-0, -2.12132034356, 2.12132034356), (-0, -2.12132034356, 2.12132034356), (2.12132034356, 0, 2.12132034356), (2.12132034356, 0, 2.12132034356), (2.12132034356, 0, -2.12132034356)]
        uniform double[] brep:edge3dNurb:curve3d:nurb:knots = [0, 0, 1, 1, 0, 0, 1, 1, 0, 0, 1, 1, 0, 0, 1, 1]
        uniform uint[] brep:edge3dNurb:curve3d:nurb:order = [2, 2, 2, 2]
        uniform uint[] brep:edge3dNurb:curve3d:nurb:vertexCount = [2, 2, 2, 2]
        uniform double[] brep:edge3dNurb:curve3d:nurb:weights = [1, 1, 1, 1, 1, 1, 1, 1]
        uniform double3[] brep:extent = [(-0, -2.12132034356, -2.12132034356), (2.12132034356, 0, 2.12132034356)]
        uniform double[] brep:intersectTol3d = [0.000001]
        uniform uint[] brep:regionCount = [1]
        uniform vector3d[] brep:surface:sphere:axis = [(0, 0, 1)]
        uniform point3d[] brep:surface:sphere:center = [(0, 0, 0)]
        uniform double[] brep:surface:sphere:radius = [3]
        uniform vector3d[] brep:surface:sphere:refDirection = [(1, 0, 0)]
        uniform point3d[] brep:vertexPoint:point:position = [(2.12132034356, 0, -2.12132034356), (-0, -2.12132034356, -2.12132034356), (-0, -2.12132034356, 2.12132034356), (2.12132034356, 0, 2.12132034356)]
        uniform token[] edge:curveType = ["BrepCurve3dNurbAPI", "BrepCurve3dNurbAPI", "BrepCurve3dNurbAPI", "BrepCurve3dNurbAPI"]
        uniform double[] edge:range = [0, 1, 0, 1, 0, 1, 0, 1]
        uniform int2[] edge:vertexIndices = [(0, 1), (1, 2), (2, 3), (3, 0)]
        uniform uint[] edgeuse:edgeIndex = [0, 1, 2, 3]
        uniform uint[] edgeuse:nextRadialEUIndex = [0, 1, 2, 3]
        uniform token[] edgeuse:orientationType = ["same", "same", "same", "same"]
        uniform token[] edgeuse:thisRadialEntryType = ["topEntry", "topEntry", "topEntry", "topEntry"]
        uniform uint[] face:loopCount = [1]
        uniform double2[] face:range = [(0, -0.785398163397), (4.712388980385, 0.785398163397)]
        uniform token[] face:surfaceType = ["BrepSurfaceSphereAPI"]
        uniform token[] face:trimType = ["general"]
        uniform uint[] faceuse:faceIndex = [0, 0]
        uniform token[] faceuse:orientationType = ["same", "opposite"]
        uniform uint[] loop:edgeuseCount = [4]
        uniform uint[] loop:vertexIndex = [0]
        uniform uint[] region:shellCount = [1]
        uniform token[] region:type = ["voidRegion"]
        uniform uint[] shell:faceuseCount = [2]
        uniform token[] shell:pointType = ["none"]
        uniform uint[] shell:wireEdgeCount = [0]
        uniform token[] vertex:pointType = ["BrepPointAPI", "BrepPointAPI", "BrepPointAPI", "BrepPointAPI"]
    }
}

