#usda 1.0
(
    defaultPrim = "World"
    doc = "Box 10^3 with r=1 fillets on all edges (OCCT-generated, shared topology, degenerate-edge-free corners)."
    metersPerUnit = 0.01
    upAxis = "Y"
)

def Xform "World"
{
    def BrepArray "FilletedCube" (
        prepend apiSchemas = ["BrepPointAPI:vertexPoint", "BrepCurve3dNurbAPI:edge3dNurb", "BrepCurveUvNurbAPI", "BrepSurfaceNurbAPI"]
    )
    {
        uniform double2[] brep:curveUv:nurb:controlVertices = [(1, -1), (1, -9), (1, -9), (9, -9), (9, -9), (9, -1), (9, -1), (1, -1), (0, 9), (0, 5), (0, 1), (0, 1), (0.785398163397, 1), (1.57079632679, 1), (1.57079632679, 1), (1.57079632679, 5), (1.57079632679, 9), (1.57079632679, 9), (0.785398163397, 9), (0, 9), (1.57079632679, 1), (1.57079632679, 5), (1.57079632679, 9), (1.57079632679, 9), (0.785398163397, 9), (0, 9), (0, 9), (0, 5), (0, 1), (0, 1), (0.785398163397, 1), (1.57079632679, 1), (0, 1), (0.785398163397, 1), (1.57079632679, 1), (1.57079632679, 1), (1.57079632679, 5), (1.57079632679, 9), (1.57079632679, 9), (0.785398163397, 9), (0, 9), (0, 9), (0, 5), (0, 1), (0, 1), (0.785398163397, 1), (1.57079632679, 1), (1.57079632679, 1), (1.57079632679, 5), (1.57079632679, 9), (1.57079632679, 9), (0.785398163397, 9), (0, 9), (0, 9), (0, 5), (0, 1), (0, 0), (0, -0.785398163397), (0, -1.57079632679), (1.57079632679, -1.57079632679), (1.57079632679, -0.785398163397), (1.57079632679, 0), (1.57079632679, 0), (0.785398163397, 0), (0, 0), (1.57079632679, -1.57079632679), (1.57079632679, -0.785398163397), (1.57079632679, 0), (1.57079632679, 0), (0.785398163397, 0), (0, 0), (0, 0), (0, -0.785398163397), (0, -1.57079632679), (9, 1), (9, 9), (9, 9), (1, 9), (1, 9), (1, 1), (1, 1), (9, 1), (1, 1), (9, 1), (9, 1), (9, 9), (9, 9), (1, 9), (1, 9), (1, 1), (1.57079632679, -1.57079632679), (1.57079632679, -0.785398163397), (1.57079632679, 0), (1.57079632679, 0), (0.785398163397, 0), (0, 0), (0, 0), (0, -0.785398163397), (0, -1.57079632679), (1, 9), (1, 1), (1, 1), (9, 1), (9, 1), (9, 9), (9, 9), (1, 9), (1.57079632679, -1.57079632679), (1.57079632679, -0.785398163397), (1.57079632679, 0), (1.57079632679, 0), (0.785398163397, 0), (0, 0), (0, 0), (0, -0.785398163397), (0, -1.57079632679), (1, 1), (9, 1), (9, 1), (9, 9), (9, 9), (1, 9), (1, 9), (1, 1), (0, 1), (0.785398163397, 1), (1.57079632679, 1), (1.57079632679, 1), (1.57079632679, 5), (1.57079632679, 9), (1.57079632679, 9), (0.785398163397, 9), (0, 9), (0, 9), (0, 5), (0, 1), (1.57079632679, 1), (1.57079632679, 5), (1.57079632679, 9), (1.57079632679, 9), (0.785398163397, 9), (0, 9), (0, 9), (0, 5), (0, 1), (0, 1), (0.785398163397, 1), (1.57079632679, 1), (0, 1), (0.785398163397, 1), (1.57079632679, 1), (1.57079632679, 1), (1.57079632679, 5), (1.57079632679, 9), (1.57079632679, 9), (0.785398163397, 9), (0, 9), (0, 9), (0, 5), (0, 1), (1.57079632679, 1), (1.57079632679, 5), (1.57079632679, 9), (1.57079632679, 9), (0.785398163397, 9), (0, 9), (0, 9), (0, 5), (0, 1), (0, 1), (0.785398163397, 1), (1.57079632679, 1), (0, 1), (0.785398163397, 1), (1.57079632679, 1), (1.57079632679, 1), (1.57079632679, 5), (1.57079632679, 9), (1.57079632679, 9), (0.785398163397, 9), (0, 9), (0, 9), (0, 5), (0, 1), (0, 1), (0.785398163397, 1), (1.57079632679, 1), (1.57079632679, 1), (1.57079632679, 5), (1.57079632679, 9), (1.57079632679, 9), (0.785398163397, 9), (0, 9), (0, 9), (0, 5), (0, 1), (1.57079632679, 1), (1.57079632679, 5), (1.57079632679, 9), (1.57079632679, 9), (0.785398163397, 9), (0, 9), (0, 9), (0, 5), (0, 1), (0, 1), (0.785398163397, 1), (1.57079632679, 1), (0, 9), (0, 5), (0, 1), (0, 1), (0.785398163397, 1), (1.57079632679, 1), (1.57079632679, 1), (1.57079632679, 5), (1.57079632679, 9), (1.57079632679, 9), (0.785398163397, 9), (0, 9), (1.57079632679, -1.57079632679), (1.57079632679, -0.785398163397), (1.57079632679, 0), (1.57079632679, 0), (0.785398163397, 0), (0, 0), (0, 0), (0, -0.785398163397), (0, -1.57079632679), (0, 0), (0, -0.785398163397), (0, -1.57079632679), (1.57079632679, -1.57079632679), (1.57079632679, -0.785398163397), (1.57079632679, 0), (1.57079632679, 0), (0.785398163397, 0), (0, 0), (9, -1), (1, -1), (1, -1), (1, -9), (1, -9), (9, -9), (9, -9), (9, -1), (0, 0), (0, -0.785398163397), (0, -1.57079632679), (1.57079632679, -1.57079632679), (1.57079632679, -0.785398163397), (1.57079632679, 0), (1.57079632679, 0), (0.785398163397, 0), (0, 0), (0, 0), (0, -0.785398163397), (0, -1.57079632679), (1.57079632679, -1.57079632679), (1.57079632679, -0.785398163397), (1.57079632679, 0), (1.57079632679, 0), (0.785398163397, 0), (0, 0)]
        uniform double[] brep:curveUv:nurb:knots = [1, 1, 9, 9, 1, 1, 9, 9, 1, 1, 9, 9, 1, 1, 9, 9, 1, 1, 1, 9, 9, 9, 0, 0, 0, 1.57079632679, 1.57079632679, 1.57079632679, 1, 1, 1, 9, 9, 9, 0, 0, 0, 1.57079632679, 1.57079632679, 1.57079632679, 1, 1, 1, 9, 9, 9, 4.71238898038, 4.71238898038, 4.71238898038, 6.28318530718, 6.28318530718, 6.28318530718, 1, 1, 1, 9, 9, 9, 4.71238898038, 4.71238898038, 4.71238898038, 6.28318530718, 6.28318530718, 6.28318530718, 4.71238898038, 4.71238898038, 4.71238898038, 6.28318530718, 6.28318530718, 6.28318530718, 1, 1, 1, 9, 9, 9, 0, 0, 0, 1.57079632679, 1.57079632679, 1.57079632679, 1, 1, 1, 9, 9, 9, 0, 0, 0, 1.57079632679, 1.57079632679, 1.57079632679, 1, 1, 1, 9, 9, 9, 4.71238898038, 4.71238898038, 4.71238898038, 6.28318530718, 6.28318530718, 6.28318530718, 1, 1, 1, 9, 9, 9, 4.71238898038, 4.71238898038, 4.71238898038, 6.28318530718, 6.28318530718, 6.28318530718, 4.71238898038, 4.71238898038, 4.71238898038, 6.28318530718, 6.28318530718, 6.28318530718, 0, 0, 0, 1.57079632679, 1.57079632679, 1.57079632679, 4.71238898038, 4.71238898038, 4.71238898038, 6.28318530718, 6.28318530718, 6.28318530718, 0, 0, 0, 1.57079632679, 1.57079632679, 1.57079632679, 4.71238898038, 4.71238898038, 4.71238898038, 6.28318530718, 6.28318530718, 6.28318530718, 1, 1, 9, 9, 1, 1, 9, 9, 1, 1, 9, 9, 1, 1, 9, 9, 1, 1, 9, 9, 1, 1, 9, 9, 1, 1, 9, 9, 1, 1, 9, 9, 4.71238898038, 4.71238898038, 4.71238898038, 6.28318530718, 6.28318530718, 6.28318530718, 0, 0, 0, 1.57079632679, 1.57079632679, 1.57079632679, 4.71238898038, 4.71238898038, 4.71238898038, 6.28318530718, 6.28318530718, 6.28318530718, 1, 1, 9, 9, 1, 1, 9, 9, 1, 1, 9, 9, 1, 1, 9, 9, 4.71238898038, 4.71238898038, 4.71238898038, 6.28318530718, 6.28318530718, 6.28318530718, 0, 0, 0, 1.57079632679, 1.57079632679, 1.57079632679, 4.71238898038, 4.71238898038, 4.71238898038, 6.28318530718, 6.28318530718, 6.28318530718, 1, 1, 9, 9, 1, 1, 9, 9, 1, 1, 9, 9, 1, 1, 9, 9, 4.71238898038, 4.71238898038, 4.71238898038, 6.28318530718, 6.28318530718, 6.28318530718, 1, 1, 1, 9, 9, 9, 4.71238898038, 4.71238898038, 4.71238898038, 6.28318530718, 6.28318530718, 6.28318530718, 1, 1, 1, 9, 9, 9, 1, 1, 1, 9, 9, 9, 4.71238898038, 4.71238898038, 4.71238898038, 6.28318530718, 6.28318530718, 6.28318530718, 1, 1, 1, 9, 9, 9, 4.71238898038, 4.71238898038, 4.71238898038, 6.28318530718, 6.28318530718, 6.28318530718, 0, 0, 0, 1.57079632679, 1.57079632679, 1.57079632679, 1, 1, 1, 9, 9, 9, 0, 0, 0, 1.57079632679, 1.57079632679, 1.57079632679, 1, 1, 1, 9, 9, 9, 1, 1, 1, 9, 9, 9, 4.71238898038, 4.71238898038, 4.71238898038, 6.28318530718, 6.28318530718, 6.28318530718, 1, 1, 1, 9, 9, 9, 4.71238898038, 4.71238898038, 4.71238898038, 6.28318530718, 6.28318530718, 6.28318530718, 4.71238898038, 4.71238898038, 4.71238898038, 6.28318530718, 6.28318530718, 6.28318530718, 1, 1, 1, 9, 9, 9, 4.71238898038, 4.71238898038, 4.71238898038, 6.28318530718, 6.28318530718, 6.28318530718, 1, 1, 1, 9, 9, 9, 4.71238898038, 4.71238898038, 4.71238898038, 6.28318530718, 6.28318530718, 6.28318530718, 1, 1, 1, 9, 9, 9, 4.71238898038, 4.71238898038, 4.71238898038, 6.28318530718, 6.28318530718, 6.28318530718, 1, 1, 1, 9, 9, 9, 1, 1, 1, 9, 9, 9, 0, 0, 0, 1.57079632679, 1.57079632679, 1.57079632679, 1, 1, 1, 9, 9, 9, 4.71238898038, 4.71238898038, 4.71238898038, 6.28318530718, 6.28318530718, 6.28318530718, 1, 1, 1, 9, 9, 9, 0, 0, 0, 1.57079632679, 1.57079632679, 1.57079632679, 1, 1, 1, 9, 9, 9, 4.71238898038, 4.71238898038, 4.71238898038, 6.28318530718, 6.28318530718, 6.28318530718, 4.71238898038, 4.71238898038, 4.71238898038, 6.28318530718, 6.28318530718, 6.28318530718, 0, 0, 0, 1.57079632679, 1.57079632679, 1.57079632679, 4.71238898038, 4.71238898038, 4.71238898038, 6.28318530718, 6.28318530718, 6.28318530718, 4.71238898038, 4.71238898038, 4.71238898038, 6.28318530718, 6.28318530718, 6.28318530718, 4.71238898038, 4.71238898038, 4.71238898038, 6.28318530718, 6.28318530718, 6.28318530718, 0, 0, 0, 1.57079632679, 1.57079632679, 1.57079632679, 1, 1, 9, 9, 1, 1, 9, 9, 1, 1, 9, 9, 1, 1, 9, 9, 4.71238898038, 4.71238898038, 4.71238898038, 6.28318530718, 6.28318530718, 6.28318530718, 4.71238898038, 4.71238898038, 4.71238898038, 6.28318530718, 6.28318530718, 6.28318530718, 0, 0, 0, 1.57079632679, 1.57079632679, 1.57079632679, 4.71238898038, 4.71238898038, 4.71238898038, 6.28318530718, 6.28318530718, 6.28318530718, 4.71238898038, 4.71238898038, 4.71238898038, 6.28318530718, 6.28318530718, 6.28318530718, 0, 0, 0, 1.57079632679, 1.57079632679, 1.57079632679]
        uniform uint[] brep:curveUv:nurb:order = [2, 2, 2, 2, 3, 3, 3, 3, 3, 3, 3, 3, 3, 3, 3, 3, 3, 3, 3, 3, 3, 3, 3, 3, 3, 3, 2, 2, 2, 2, 2, 2, 2, 2, 3, 3, 3, 2, 2, 2, 2, 3, 3, 3, 2, 2, 2, 2, 3, 3, 3, 3, 3, 3, 3, 3, 3, 3, 3, 3, 3, 3, 3, 3, 3, 3, 3, 3, 3, 3, 3, 3, 3, 3, 3, 3, 3, 3, 3, 3, 3, 3, 3, 3, 3, 3, 2, 2, 2, 2, 3, 3, 3, 3, 3, 3]
        uniform uint[] brep:curveUv:nurb:vertexCount = [2, 2, 2, 2, 3, 3, 3, 3, 3, 3, 3, 3, 3, 3, 3, 3, 3, 3, 3, 3, 3, 3, 3, 3, 3, 3, 2, 2, 2, 2, 2, 2, 2, 2, 3, 3, 3, 2, 2, 2, 2, 3, 3, 3, 2, 2, 2, 2, 3, 3, 3, 3, 3, 3, 3, 3, 3, 3, 3, 3, 3, 3, 3, 3, 3, 3, 3, 3, 3, 3, 3, 3, 3, 3, 3, 3, 3, 3, 3, 3, 3, 3, 3, 3, 3, 3, 2, 2, 2, 2, 3, 3, 3, 3, 3, 3]
        uniform double[] brep:curveUv:nurb:weights = [1, 1, 1, 1, 1, 1, 1, 1, 1, 1, 1, 1, 1, 1, 1, 1, 1, 1, 1, 1, 1, 1, 1, 1, 1, 1, 1, 1, 1, 1, 1, 1, 1, 1, 1, 1, 1, 1, 1, 1, 1, 1, 1, 1, 1, 1, 1, 1, 1, 1, 1, 1, 1, 1, 1, 1, 1, 1, 1, 1, 1, 1, 1, 1, 1, 1, 1, 1, 1, 1, 1, 1, 1, 1, 1, 1, 1, 1, 1, 1, 1, 1, 1, 1, 1, 1, 1, 1, 1, 1, 1, 1, 1, 1, 1, 1, 1, 1, 1, 1, 1, 1, 1, 1, 1, 1, 1, 1, 1, 1, 1, 1, 1, 1, 1, 1, 1, 1, 1, 1, 1, 1, 1, 1, 1, 1, 1, 1, 1, 1, 1, 1, 1, 1, 1, 1, 1, 1, 1, 1, 1, 1, 1, 1, 1, 1, 1, 1, 1, 1, 1, 1, 1, 1, 1, 1, 1, 1, 1, 1, 1, 1, 1, 1, 1, 1, 1, 1, 1, 1, 1, 1, 1, 1, 1, 1, 1, 1, 1, 1, 1, 1, 1, 1, 1, 1, 1, 1, 1, 1, 1, 1, 1, 1, 1, 1, 1, 1, 1, 1, 1, 1, 1, 1, 1, 1, 1, 1, 1, 1, 1, 1, 1, 1, 1, 1, 1, 1, 1, 1, 1, 1, 1, 1, 1, 1, 1, 1, 1, 1, 1, 1, 1, 1, 1, 1, 1, 1, 1, 1, 1, 1, 1, 1, 1, 1, 1, 1, 1, 1, 1, 1, 1, 1, 1, 1, 1, 1, 1, 1, 1, 1, 1, 1]
        uniform point3d[] brep:edge3dNurb:curve3d:nurb:controlVertices = [(0, 1, 1), (0, 9, 1), (0, 9, 1), (0, 9, 9), (0, 1, 9), (0, 9, 9), (0, 1, 1), (0, 1, 9), (0, 1, 1), (0, 0, 1), (1, 0, 1), (1, 0, 1), (1, 0, 9), (0, 1, 9), (0, 0, 9), (1, 0, 9), (1, 1, 0), (1, 9, 0), (1, 9, 0), (0, 9, 0), (0, 9, 1), (1, 1, 0), (0, 1, 0), (0, 1, 1), (1, 1, 10), (0, 1, 10), (0, 1, 9), (1, 1, 10), (1, 9, 10), (0, 9, 9), (0, 9, 10), (1, 9, 10), (0, 9, 1), (0, 10, 1), (1, 10, 1), (1, 10, 1), (1, 10, 9), (1, 10, 9), (0, 10, 9), (0, 9, 9), (1, 1, 0), (1, 0, 0), (1, 0, 1), (1, 1, 10), (1, 0, 10), (1, 0, 9), (1, 0, 9), (9, 0, 9), (9, 0, 1), (9, 0, 9), (1, 0, 1), (9, 0, 1), (1, 1, 0), (9, 1, 0), (9, 1, 0), (9, 9, 0), (1, 9, 0), (9, 9, 0), (1, 9, 0), (1, 10, 0), (1, 10, 1), (1, 1, 10), (9, 1, 10), (9, 1, 10), (9, 9, 10), (1, 9, 10), (9, 9, 10), (1, 10, 9), (1, 10, 10), (1, 9, 10), (1, 10, 9), (9, 10, 9), (9, 10, 1), (9, 10, 9), (1, 10, 1), (9, 10, 1), (9, 1, 0), (9, 0, 0), (9, 0, 1), (9, 1, 10), (9, 0, 10), (9, 0, 9), (10, 1, 1), (10, 0, 1), (9, 0, 1), (10, 1, 9), (10, 0, 9), (9, 0, 9), (10, 1, 1), (10, 1, 9), (9, 9, 0), (9, 10, 0), (9, 10, 1), (9, 1, 0), (10, 1, 0), (10, 1, 1), (9, 9, 0), (10, 9, 0), (10, 9, 1), (10, 1, 1), (10, 9, 1), (9, 10, 9), (9, 10, 10), (9, 9, 10), (10, 9, 9), (10, 9, 10), (9, 9, 10), (10, 1, 9), (10, 9, 9), (9, 1, 10), (10, 1, 10), (10, 1, 9), (10, 9, 1), (10, 9, 9), (10, 9, 1), (10, 10, 1), (9, 10, 1), (9, 10, 9), (10, 10, 9), (10, 9, 9)]
        uniform double[] brep:edge3dNurb:curve3d:nurb:knots = [1, 1, 9, 9, 1, 1, 9, 9, 1, 1, 9, 9, 1, 1, 9, 9, 0, 0, 0, 1.57079632679, 1.57079632679, 1.57079632679, 1, 1, 9, 9, 0, 0, 0, 1.57079632679, 1.57079632679, 1.57079632679, 1, 1, 9, 9, 4.71238898038, 4.71238898038, 4.71238898038, 6.28318530718, 6.28318530718, 6.28318530718, 4.71238898038, 4.71238898038, 4.71238898038, 6.28318530718, 6.28318530718, 6.28318530718, 4.71238898038, 4.71238898038, 4.71238898038, 6.28318530718, 6.28318530718, 6.28318530718, 1, 1, 9, 9, 0, 0, 0, 1.57079632679, 1.57079632679, 1.57079632679, 0, 0, 0, 1.57079632679, 1.57079632679, 1.57079632679, 1, 1, 9, 9, 4.71238898038, 4.71238898038, 4.71238898038, 6.28318530718, 6.28318530718, 6.28318530718, 4.71238898038, 4.71238898038, 4.71238898038, 6.28318530718, 6.28318530718, 6.28318530718, 4.71238898038, 4.71238898038, 4.71238898038, 6.28318530718, 6.28318530718, 6.28318530718, 1, 1, 9, 9, 1, 1, 9, 9, 1, 1, 9, 9, 1, 1, 9, 9, 1, 1, 9, 9, 1, 1, 9, 9, 4.71238898038, 4.71238898038, 4.71238898038, 6.28318530718, 6.28318530718, 6.28318530718, 1, 1, 9, 9, 1, 1, 9, 9, 1, 1, 9, 9, 4.71238898038, 4.71238898038, 4.71238898038, 6.28318530718, 6.28318530718, 6.28318530718, 1, 1, 9, 9, 1, 1, 9, 9, 1, 1, 9, 9, 4.71238898038, 4.71238898038, 4.71238898038, 6.28318530718, 6.28318530718, 6.28318530718, 4.71238898038, 4.71238898038, 4.71238898038, 6.28318530718, 6.28318530718, 6.28318530718, 0, 0, 0, 1.57079632679, 1.57079632679, 1.57079632679, 0, 0, 0, 1.57079632679, 1.57079632679, 1.57079632679, 1, 1, 9, 9, 4.71238898038, 4.71238898038, 4.71238898038, 6.28318530718, 6.28318530718, 6.28318530718, 4.71238898038, 4.71238898038, 4.71238898038, 6.28318530718, 6.28318530718, 6.28318530718, 4.71238898038, 4.71238898038, 4.71238898038, 6.28318530718, 6.28318530718, 6.28318530718, 1, 1, 9, 9, 4.71238898038, 4.71238898038, 4.71238898038, 6.28318530718, 6.28318530718, 6.28318530718, 0, 0, 0, 1.57079632679, 1.57079632679, 1.57079632679, 1, 1, 9, 9, 4.71238898038, 4.71238898038, 4.71238898038, 6.28318530718, 6.28318530718, 6.28318530718, 1, 1, 9, 9, 0, 0, 0, 1.57079632679, 1.57079632679, 1.57079632679, 4.71238898038, 4.71238898038, 4.71238898038, 6.28318530718, 6.28318530718, 6.28318530718]
        uniform uint[] brep:edge3dNurb:curve3d:nurb:order = [2, 2, 2, 2, 3, 2, 3, 2, 3, 3, 3, 2, 3, 3, 2, 3, 3, 3, 2, 2, 2, 2, 2, 2, 3, 2, 2, 2, 3, 2, 2, 2, 3, 3, 3, 3, 2, 3, 3, 3, 2, 3, 3, 2, 3, 2, 3, 3]
        uniform uint[] brep:edge3dNurb:curve3d:nurb:vertexCount = [2, 2, 2, 2, 3, 2, 3, 2, 3, 3, 3, 2, 3, 3, 2, 3, 3, 3, 2, 2, 2, 2, 2, 2, 3, 2, 2, 2, 3, 2, 2, 2, 3, 3, 3, 3, 2, 3, 3, 3, 2, 3, 3, 2, 3, 2, 3, 3]
        uniform double[] brep:edge3dNurb:curve3d:nurb:weights = [1, 1, 1, 1, 1, 1, 1, 1, 1, 0.707106781187, 1, 1, 1, 1, 0.707106781187, 1, 1, 1, 1, 0.707106781187, 1, 1, 0.707106781187, 1, 1, 0.707106781187, 1, 1, 1, 1, 0.707106781187, 1, 1, 0.707106781187, 1, 1, 1, 1, 0.707106781187, 1, 1, 0.707106781187, 1, 1, 0.707106781187, 1, 1, 1, 1, 1, 1, 1, 1, 1, 1, 1, 1, 1, 1, 0.707106781187, 1, 1, 1, 1, 1, 1, 1, 1, 0.707106781187, 1, 1, 1, 1, 1, 1, 1, 1, 0.707106781187, 1, 1, 0.707106781187, 1, 1, 0.707106781187, 1, 1, 0.707106781187, 1, 1, 1, 1, 0.707106781187, 1, 1, 0.707106781187, 1, 1, 0.707106781187, 1, 1, 1, 1, 0.707106781187, 1, 1, 0.707106781187, 1, 1, 1, 1, 0.707106781187, 1, 1, 1, 1, 0.707106781187, 1, 1, 0.707106781187, 1]
        uniform double3[] brep:extent = [(0, 0, 0), (10, 10, 10)]
        uniform double[] brep:intersectTol3d = [0.000001]
        uniform uint[] brep:regionCount = [2]
        uniform point3d[] brep:surface:nurb:controlVertices = [(0, 9, 1), (0, 1, 1), (0, 9, 9), (0, 1, 9), (0, 1, 1), (0, 1, 9), (0, 0, 1), (0, 0, 9), (1, 0, 1), (1, 0, 9), (0, 1, 1), (0, 9, 1), (0, 1, 0), (0, 9, 0), (1, 1, 0), (1, 9, 0), (0, 1, 9), (0, 9, 9), (0, 1, 10), (0, 9, 10), (1, 1, 10), (1, 9, 10), (0, 9, 1), (0, 9, 9), (0, 10, 1), (0, 10, 9), (1, 10, 1), (1, 10, 9), (1, 1, 0), (0, 1, 0), (0, 1, 1), (1, 1, 0), (0, 0, 0), (0, 0, 1), (1, 1, 0), (1, 0, 0), (1, 0, 1), (1, 1, 10), (0, 1, 10), (0, 1, 9), (1, 1, 10), (0, 0, 10), (0, 0, 9), (1, 1, 10), (1, 0, 10), (1, 0, 9), (1, 0, 1), (9, 0, 1), (1, 0, 9), (9, 0, 9), (1, 1, 0), (1, 9, 0), (9, 1, 0), (9, 9, 0), (1, 9, 0), (0, 9, 0), (0, 9, 1), (1, 9, 0), (0, 10, 0), (0, 10, 1), (1, 9, 0), (1, 10, 0), (1, 10, 1), (1, 1, 10), (1, 9, 10), (9, 1, 10), (9, 9, 10), (1, 10, 9), (0, 10, 9), (0, 9, 9), (1, 10, 9), (0, 10, 10), (0, 9, 10), (1, 10, 9), (1, 10, 10), (1, 9, 10), (1, 10, 1), (9, 10, 1), (1, 10, 9), (9, 10, 9), (1, 0, 1), (9, 0, 1), (1, 0, 0), (9, 0, 0), (1, 1, 0), (9, 1, 0), (1, 0, 9), (9, 0, 9), (1, 0, 10), (9, 0, 10), (1, 1, 10), (9, 1, 10), (10, 1, 1), (10, 1, 9), (10, 0, 1), (10, 0, 9), (9, 0, 1), (9, 0, 9), (1, 10, 1), (9, 10, 1), (1, 10, 0), (9, 10, 0), (1, 9, 0), (9, 9, 0), (10, 1, 1), (10, 9, 1), (10, 1, 0), (10, 9, 0), (9, 1, 0), (9, 9, 0), (1, 10, 9), (9, 10, 9), (1, 10, 10), (9, 10, 10), (1, 9, 10), (9, 9, 10), (10, 1, 9), (10, 9, 9), (10, 1, 10), (10, 9, 10), (9, 1, 10), (9, 9, 10), (10, 9, 1), (10, 9, 9), (10, 10, 1), (10, 10, 9), (9, 10, 1), (9, 10, 9), (9, 1, 0), (10, 1, 0), (10, 1, 1), (9, 1, 0), (10, 0, 0), (10, 0, 1), (9, 1, 0), (9, 0, 0), (9, 0, 1), (9, 1, 10), (10, 1, 10), (10, 1, 9), (9, 1, 10), (10, 0, 10), (10, 0, 9), (9, 1, 10), (9, 0, 10), (9, 0, 9), (10, 9, 1), (10, 1, 1), (10, 9, 9), (10, 1, 9), (9, 9, 0), (10, 9, 0), (10, 9, 1), (9, 9, 0), (10, 10, 0), (10, 10, 1), (9, 9, 0), (9, 10, 0), (9, 10, 1), (9, 10, 9), (10, 10, 9), (10, 9, 9), (9, 10, 9), (10, 10, 10), (10, 9, 10), (9, 10, 9), (9, 10, 10), (9, 9, 10)]
        uniform double[] brep:surface:nurb:uKnots = [1, 1, 9, 9, 0, 0, 0, 1.57079632679, 1.57079632679, 1.57079632679, 0, 0, 0, 1.57079632679, 1.57079632679, 1.57079632679, 0, 0, 0, 1.57079632679, 1.57079632679, 1.57079632679, 0, 0, 0, 1.57079632679, 1.57079632679, 1.57079632679, 0, 0, 0, 1.57079632679, 1.57079632679, 1.57079632679, 0, 0, 0, 1.57079632679, 1.57079632679, 1.57079632679, 1, 1, 9, 9, 1, 1, 9, 9, 0, 0, 0, 1.57079632679, 1.57079632679, 1.57079632679, 1, 1, 9, 9, 0, 0, 0, 1.57079632679, 1.57079632679, 1.57079632679, 1, 1, 9, 9, 0, 0, 0, 1.57079632679, 1.57079632679, 1.57079632679, 0, 0, 0, 1.57079632679, 1.57079632679, 1.57079632679, 0, 0, 0, 1.57079632679, 1.57079632679, 1.57079632679, 0, 0, 0, 1.57079632679, 1.57079632679, 1.57079632679, 0, 0, 0, 1.57079632679, 1.57079632679, 1.57079632679, 0, 0, 0, 1.57079632679, 1.57079632679, 1.57079632679, 0, 0, 0, 1.57079632679, 1.57079632679, 1.57079632679, 0, 0, 0, 1.57079632679, 1.57079632679, 1.57079632679, 0, 0, 0, 1.57079632679, 1.57079632679, 1.57079632679, 0, 0, 0, 1.57079632679, 1.57079632679, 1.57079632679, 1, 1, 9, 9, 0, 0, 0, 1.57079632679, 1.57079632679, 1.57079632679, 0, 0, 0, 1.57079632679, 1.57079632679, 1.57079632679]
        uniform uint[] brep:surface:nurb:uOrder = [2, 3, 3, 3, 3, 3, 3, 2, 2, 3, 2, 3, 2, 3, 3, 3, 3, 3, 3, 3, 3, 3, 3, 2, 3, 3]
        uniform uint[] brep:surface:nurb:uVertexCount = [2, 3, 3, 3, 3, 3, 3, 2, 2, 3, 2, 3, 2, 3, 3, 3, 3, 3, 3, 3, 3, 3, 3, 2, 3, 3]
        uniform double[] brep:surface:nurb:vKnots = [-9, -9, -1, -1, 1, 1, 9, 9, 1, 1, 9, 9, 1, 1, 9, 9, 1, 1, 9, 9, -1.57079632679, -1.57079632679, -1.57079632679, 0, 0, 0, -1.57079632679, -1.57079632679, -1.57079632679, 0, 0, 0, 1, 1, 9, 9, 1, 1, 9, 9, -1.57079632679, -1.57079632679, -1.57079632679, 0, 0, 0, 1, 1, 9, 9, -1.57079632679, -1.57079632679, -1.57079632679, 0, 0, 0, 1, 1, 9, 9, 1, 1, 9, 9, 1, 1, 9, 9, 1, 1, 9, 9, 1, 1, 9, 9, 1, 1, 9, 9, 1, 1, 9, 9, 1, 1, 9, 9, 1, 1, 9, 9, -1.57079632679, -1.57079632679, -1.57079632679, 0, 0, 0, -1.57079632679, -1.57079632679, -1.57079632679, 0, 0, 0, -9, -9, -1, -1, -1.57079632679, -1.57079632679, -1.57079632679, 0, 0, 0, -1.57079632679, -1.57079632679, -1.57079632679, 0, 0, 0]
        uniform uint[] brep:surface:nurb:vOrder = [2, 2, 2, 2, 2, 3, 3, 2, 2, 3, 2, 3, 2, 2, 2, 2, 2, 2, 2, 2, 2, 3, 3, 2, 3, 3]
        uniform uint[] brep:surface:nurb:vVertexCount = [2, 2, 2, 2, 2, 3, 3, 2, 2, 3, 2, 3, 2, 2, 2, 2, 2, 2, 2, 2, 2, 3, 3, 2, 3, 3]
        uniform double[] brep:surface:nurb:weights = [1, 1, 1, 1, 1, 1, 0.707106781187, 0.707106781187, 1, 1, 1, 1, 0.707106781187, 0.707106781187, 1, 1, 1, 1, 0.707106781187, 0.707106781187, 1, 1, 1, 1, 0.707106781187, 0.707106781187, 1, 1, 1, 0.707106781187, 1, 0.707106781187, 0.5, 0.707106781187, 1, 0.707106781187, 1, 1, 0.707106781187, 1, 0.707106781187, 0.5, 0.707106781187, 1, 0.707106781187, 1, 1, 1, 1, 1, 1, 1, 1, 1, 1, 0.707106781187, 1, 0.707106781187, 0.5, 0.707106781187, 1, 0.707106781187, 1, 1, 1, 1, 1, 1, 0.707106781187, 1, 0.707106781187, 0.5, 0.707106781187, 1, 0.707106781187, 1, 1, 1, 1, 1, 1, 1, 0.707106781187, 0.707106781187, 1, 1, 1, 1, 0.707106781187, 0.707106781187, 1, 1, 1, 1, 0.707106781187, 0.707106781187, 1, 1, 1, 1, 0.707106781187, 0.707106781187, 1, 1, 1, 1, 0.707106781187, 0.707106781187, 1, 1, 1, 1, 0.707106781187, 0.707106781187, 1, 1, 1, 1, 0.707106781187, 0.707106781187, 1, 1, 1, 1, 0.707106781187, 0.707106781187, 1, 1, 1, 0.707106781187, 1, 0.707106781187, 0.5, 0.707106781187, 1, 0.707106781187, 1, 1, 0.707106781187, 1, 0.707106781187, 0.5, 0.707106781187, 1, 0.707106781187, 1, 1, 1, 1, 1, 1, 0.707106781187, 1, 0.707106781187, 0.5, 0.707106781187, 1, 0.707106781187, 1, 1, 0.707106781187, 1, 0.707106781187, 0.5, 0.707106781187, 1, 0.707106781187, 1]
        uniform point3d[] brep:vertexPoint:point:position = [(0, 1, 1), (0, 1, 9), (0, 9, 1), (0, 9, 9), (1, 0, 1), (1, 0, 9), (1, 1, 0), (1, 9, 0), (1, 1, 10), (1, 9, 10), (1, 10, 1), (1, 10, 9), (9, 0, 1), (9, 0, 9), (9, 1, 0), (9, 9, 0), (9, 1, 10), (9, 9, 10), (9, 10, 1), (9, 10, 9), (10, 1, 1), (10, 1, 9), (10, 9, 1), (10, 9, 9)]
        uniform token[] edge:curveType = ["BrepCurve3dNurbAPI", "BrepCurve3dNurbAPI", "BrepCurve3dNurbAPI", "BrepCurve3dNurbAPI", "BrepCurve3dNurbAPI", "BrepCurve3dNurbAPI", "BrepCurve3dNurbAPI", "BrepCurve3dNurbAPI", "BrepCurve3dNurbAPI", "BrepCurve3dNurbAPI", "BrepCurve3dNurbAPI", "BrepCurve3dNurbAPI", "BrepCurve3dNurbAPI", "BrepCurve3dNurbAPI", "BrepCurve3dNurbAPI", "BrepCurve3dNurbAPI", "BrepCurve3dNurbAPI", "BrepCurve3dNurbAPI", "BrepCurve3dNurbAPI", "BrepCurve3dNurbAPI", "BrepCurve3dNurbAPI", "BrepCurve3dNurbAPI", "BrepCurve3dNurbAPI", "BrepCurve3dNurbAPI", "BrepCurve3dNurbAPI", "BrepCurve3dNurbAPI", "BrepCurve3dNurbAPI", "BrepCurve3dNurbAPI", "BrepCurve3dNurbAPI", "BrepCurve3dNurbAPI", "BrepCurve3dNurbAPI", "BrepCurve3dNurbAPI", "BrepCurve3dNurbAPI", "BrepCurve3dNurbAPI", "BrepCurve3dNurbAPI", "BrepCurve3dNurbAPI", "BrepCurve3dNurbAPI", "BrepCurve3dNurbAPI", "BrepCurve3dNurbAPI", "BrepCurve3dNurbAPI", "BrepCurve3dNurbAPI", "BrepCurve3dNurbAPI", "BrepCurve3dNurbAPI", "BrepCurve3dNurbAPI", "BrepCurve3dNurbAPI", "BrepCurve3dNurbAPI", "BrepCurve3dNurbAPI", "BrepCurve3dNurbAPI"]
        uniform double[] edge:range = [1, 9, 1, 9, 1, 9, 1, 9, 0, 1.57079632679, 1, 9, 0, 1.57079632679, 1, 9, 4.71238898038, 6.28318530718, 4.71238898038, 6.28318530718, 4.71238898038, 6.28318530718, 1, 9, 0, 1.57079632679, 0, 1.57079632679, 1, 9, 4.71238898038, 6.28318530718, 4.71238898038, 6.28318530718, 4.71238898038, 6.28318530718, 1, 9, 1, 9, 1, 9, 1, 9, 1, 9, 1, 9, 4.71238898038, 6.28318530718, 1, 9, 1, 9, 1, 9, 4.71238898038, 6.28318530718, 1, 9, 1, 9, 1, 9, 4.71238898038, 6.28318530718, 4.71238898038, 6.28318530718, 0, 1.57079632679, 0, 1.57079632679, 1, 9, 4.71238898038, 6.28318530718, 4.71238898038, 6.28318530718, 4.71238898038, 6.28318530718, 1, 9, 4.71238898038, 6.28318530718, 0, 1.57079632679, 1, 9, 4.71238898038, 6.28318530718, 1, 9, 0, 1.57079632679, 4.71238898038, 6.28318530718]
        uniform int2[] edge:vertexIndices = [(0, 2), (2, 3), (1, 3), (0, 1), (0, 4), (4, 5), (1, 5), (6, 7), (7, 2), (6, 0), (8, 1), (8, 9), (3, 9), (2, 10), (10, 11), (11, 3), (6, 4), (8, 5), (5, 13), (12, 13), (4, 12), (6, 14), (14, 15), (7, 15), (7, 10), (8, 16), (16, 17), (9, 17), (11, 9), (11, 19), (18, 19), (10, 18), (14, 12), (16, 13), (20, 12), (21, 13), (20, 21), (15, 18), (14, 20), (15, 22), (20, 22), (19, 17), (23, 17), (21, 23), (16, 21), (22, 23), (22, 18), (19, 23)]
        uniform uint[] edgeuse:edgeIndex = [0, 1, 2, 3, 3, 4, 5, 6, 7, 8, 0, 9, 10, 11, 12, 2, 13, 14, 15, 1, 9, 16, 4, 17, 6, 10, 18, 19, 20, 5, 21, 22, 23, 7, 24, 13, 8, 11, 25, 26, 27, 28, 12, 15, 14, 29, 30, 31, 16, 21, 32, 20, 25, 33, 18, 17, 34, 19, 35, 36, 23, 37, 31, 24, 38, 22, 39, 40, 28, 27, 41, 29, 26, 42, 43, 44, 45, 46, 30, 47, 32, 34, 38, 44, 33, 35, 36, 40, 45, 43, 39, 37, 46, 47, 41, 42]
        uniform uint[] edgeuse:nextRadialEUIndex = [10, 19, 15, 4, 3, 22, 29, 24, 33, 36, 0, 20, 25, 37, 42, 2, 35, 44, 43, 1, 11, 48, 5, 55, 7, 12, 54, 57, 51, 6, 49, 65, 60, 8, 63, 16, 9, 13, 52, 72, 69, 68, 14, 18, 17, 71, 78, 62, 21, 30, 80, 28, 38, 84, 26, 23, 81, 27, 85, 86, 32, 91, 47, 34, 82, 31, 90, 87, 41, 40, 94, 45, 39, 95, 89, 83, 88, 92, 46, 93, 50, 56, 64, 75, 53, 58, 59, 67, 76, 74, 66, 61, 77, 79, 70, 73]
        uniform token[] edgeuse:orientationType = ["same", "same", "opposite", "opposite", "opposite", "same", "same", "opposite", "same", "same", "opposite", "opposite", "opposite", "same", "opposite", "opposite", "same", "same", "same", "opposite", "opposite", "same", "opposite", "same", "opposite", "opposite", "same", "opposite", "opposite", "same", "same", "same", "opposite", "opposite", "same", "opposite", "opposite", "opposite", "same", "same", "opposite", "same", "opposite", "opposite", "same", "same", "opposite", "opposite", "opposite", "same", "same", "opposite", "same", "same", "opposite", "opposite", "same", "same", "opposite", "opposite", "same", "same", "opposite", "opposite", "opposite", "same", "same", "opposite", "same", "same", "opposite", "opposite", "same", "opposite", "opposite", "opposite", "opposite", "same", "same", "same", "same", "opposite", "opposite", "opposite", "same", "opposite", "opposite", "same", "same", "opposite", "opposite", "same", "opposite", "opposite", "same", "opposite"]
        uniform token[] edgeuse:thisRadialEntryType = ["topEntry", "topEntry", "topEntry", "topEntry", "bottomEntry", "topEntry", "topEntry", "topEntry", "topEntry", "topEntry", "bottomEntry", "topEntry", "topEntry", "topEntry", "topEntry", "bottomEntry", "topEntry", "topEntry", "topEntry", "bottomEntry", "bottomEntry", "topEntry", "bottomEntry", "topEntry", "bottomEntry", "bottomEntry", "topEntry", "topEntry", "topEntry", "bottomEntry", "topEntry", "topEntry", "topEntry", "bottomEntry", "topEntry", "bottomEntry", "bottomEntry", "bottomEntry", "topEntry", "topEntry", "topEntry", "topEntry", "bottomEntry", "bottomEntry", "bottomEntry", "topEntry", "topEntry", "topEntry", "bottomEntry", "bottomEntry", "topEntry", "bottomEntry", "bottomEntry", "topEntry", "bottomEntry", "bottomEntry", "topEntry", "bottomEntry", "topEntry", "topEntry", "bottomEntry", "topEntry", "bottomEntry", "bottomEntry", "topEntry", "bottomEntry", "topEntry", "topEntry", "bottomEntry", "bottomEntry", "topEntry", "bottomEntry", "bottomEntry", "topEntry", "topEntry", "topEntry", "topEntry", "topEntry", "bottomEntry", "topEntry", "bottomEntry", "bottomEntry", "bottomEntry", "bottomEntry", "bottomEntry", "bottomEntry", "bottomEntry", "bottomEntry", "bottomEntry", "bottomEntry", "bottomEntry", "bottomEntry", "bottomEntry", "bottomEntry", "bottomEntry", "bottomEntry"]
        uniform uint[] face:loopCount = [1, 1, 1, 1, 1, 1, 1, 1, 1, 1, 1, 1, 1, 1, 1, 1, 1, 1, 1, 1, 1, 1, 1, 1, 1, 1]
        uniform double2[] face:range = [(1, -9), (9, -1), (0, 1), (1.57079632679, 9), (0, 1), (1.57079632679, 9), (0, 1), (1.57079632679, 9), (0, 1), (1.57079632679, 9), (0, -1.57079632679), (1.57079632679, 0), (0, -1.57079632679), (1.57079632679, 0), (1, 1), (9, 9), (1, 1), (9, 9), (0, -1.57079632679), (1.57079632679, 0), (1, 1), (9, 9), (0, -1.57079632679), (1.57079632679, 0), (1, 1), (9, 9), (0, 1), (1.57079632679, 9), (0, 1), (1.57079632679, 9), (0, 1), (1.57079632679, 9), (0, 1), (1.57079632679, 9), (0, 1), (1.57079632679, 9), (0, 1), (1.57079632679, 9), (0, 1), (1.57079632679, 9), (0, 1), (1.57079632679, 9), (0, -1.57079632679), (1.57079632679, 0), (0, -1.57079632679), (1.57079632679, 0), (1, -9), (9, -1), (0, -1.57079632679), (1.57079632679, 0), (0, -1.57079632679), (1.57079632679, 0)]
        uniform token[] face:surfaceType = ["BrepSurfaceNurbAPI", "BrepSurfaceNurbAPI", "BrepSurfaceNurbAPI", "BrepSurfaceNurbAPI", "BrepSurfaceNurbAPI", "BrepSurfaceNurbAPI", "BrepSurfaceNurbAPI", "BrepSurfaceNurbAPI", "BrepSurfaceNurbAPI", "BrepSurfaceNurbAPI", "BrepSurfaceNurbAPI", "BrepSurfaceNurbAPI", "BrepSurfaceNurbAPI", "BrepSurfaceNurbAPI", "BrepSurfaceNurbAPI", "BrepSurfaceNurbAPI", "BrepSurfaceNurbAPI", "BrepSurfaceNurbAPI", "BrepSurfaceNurbAPI", "BrepSurfaceNurbAPI", "BrepSurfaceNurbAPI", "BrepSurfaceNurbAPI", "BrepSurfaceNurbAPI", "BrepSurfaceNurbAPI", "BrepSurfaceNurbAPI", "BrepSurfaceNurbAPI"]
        uniform token[] face:trimType = ["general", "general", "general", "general", "general", "general", "general", "general", "general", "general", "general", "general", "general", "general", "general", "general", "general", "general", "general", "general", "general", "general", "general", "general", "general", "general"]
        uniform uint[] faceuse:faceIndex = [0, 1, 2, 3, 4, 5, 6, 7, 8, 9, 10, 11, 12, 13, 14, 15, 16, 17, 18, 19, 20, 21, 22, 23, 24, 25, 0, 1, 2, 3, 4, 5, 6, 7, 8, 9, 10, 11, 12, 13, 14, 15, 16, 17, 18, 19, 20, 21, 22, 23, 24, 25]
        uniform token[] faceuse:orientationType = ["opposite", "same", "opposite", "same", "opposite", "same", "opposite", "opposite", "opposite", "opposite", "same", "opposite", "same", "same", "opposite", "opposite", "opposite", "same", "same", "opposite", "same", "opposite", "same", "same", "same", "same", "same", "opposite", "same", "opposite", "same", "opposite", "same", "same", "same", "same", "opposite", "same", "opposite", "opposite", "same", "same", "same", "opposite", "opposite", "same", "opposite", "same", "opposite", "opposite", "opposite", "opposite"]
        uniform uint[] loop:edgeuseCount = [4, 4, 4, 4, 4, 3, 3, 4, 4, 3, 4, 3, 4, 4, 4, 4, 4, 4, 4, 4, 4, 3, 3, 4, 3, 3]
        uniform uint[] loop:vertexIndex = [0, 0, 0, 0, 0, 0, 0, 0, 0, 0, 0, 0, 0, 0, 0, 0, 0, 0, 0, 0, 0, 0, 0, 0, 0, 0]
        uniform uint[] region:shellCount = [1, 1]
        uniform token[] region:type = ["voidRegion", "solidRegion"]
        uniform uint[] shell:faceuseCount = [26, 26]
        uniform token[] shell:pointType = ["none", "none"]
        uniform uint[] shell:wireEdgeCount = [0, 0]
        uniform token[] vertex:pointType = ["BrepPointAPI", "BrepPointAPI", "BrepPointAPI", "BrepPointAPI", "BrepPointAPI", "BrepPointAPI", "BrepPointAPI", "BrepPointAPI", "BrepPointAPI", "BrepPointAPI", "BrepPointAPI", "BrepPointAPI", "BrepPointAPI", "BrepPointAPI", "BrepPointAPI", "BrepPointAPI", "BrepPointAPI", "BrepPointAPI", "BrepPointAPI", "BrepPointAPI", "BrepPointAPI", "BrepPointAPI", "BrepPointAPI", "BrepPointAPI"]
        uniform token[] wireEdge:curveType = []
        uniform double[] wireEdge:range = []
        uniform int2[] wireEdge:vertexIndices = []
    }
}

