#usda 1.0
(
    defaultPrim = "World"
    doc = """Generated BrepArray test fixture.\r
    Sphere radius=5 centered at origin. Single rational NURBS surface.\r
    Standard representation: degree 2 in u (longitude, 9 poles) and v (latitude, 5 poles).\r
    Expected volume: 4/3 * pi * 5^3 ≈ 523.6"""
    metersPerUnit = 1
    upAxis = "Z"
)

def Xform "World"
{
    def BrepArray "Sphere"
    {
        uniform double[] brep:intersectTol3d = [0.000001]
        uniform uint[] brep:regionCount = [2]
        uniform point3d[] brep:surface:nurb:controlVertices = [(0, 0, -5), (5, 0, -5), (5, 0, 0), (5, 0, 5), (0, 0, 5), (0, 0, -5), (5, 5, -5), (5, 5, 0), (5, 5, 5), (0, 0, 5), (0, 0, -5), (0, 5, -5), (0, 5, 0), (0, 5, 5), (0, 0, 5), (0, 0, -5), (-5, 5, -5), (-5, 5, 0), (-5, 5, 5), (0, 0, 5), (0, 0, -5), (-5, 0, -5), (-5, 0, 0), (-5, 0, 5), (0, 0, 5), (0, 0, -5), (-5, -5, -5), (-5, -5, 0), (-5, -5, 5), (0, 0, 5), (0, 0, -5), (0, -5, -5), (0, -5, 0), (0, -5, 5), (0, 0, 5), (0, 0, -5), (5, -5, -5), (5, -5, 0), (5, -5, 5), (0, 0, 5), (0, 0, -5), (5, 0, -5), (5, 0, 0), (5, 0, 5), (0, 0, 5)]
        uniform double[] brep:surface:nurb:uKnots = [0, 0, 0, 1.5707963268, 1.5707963268, 3.1415926536, 3.1415926536, 4.7123889804, 4.7123889804, 6.2831853072, 6.2831853072, 6.2831853072]
        uniform uint[] brep:surface:nurb:uOrder = [3]
        uniform uint[] brep:surface:nurb:uVertexCount = [9]
        uniform double[] brep:surface:nurb:vKnots = [0, 0, 0, 1.5707963268, 1.5707963268, 3.1415926536, 3.1415926536, 3.1415926536]
        uniform uint[] brep:surface:nurb:vOrder = [3]
        uniform uint[] brep:surface:nurb:vVertexCount = [5]
        uniform double[] brep:surface:nurb:weights = [1, 0.7071067812, 1, 0.7071067812, 1, 0.7071067812, 0.5, 0.7071067812, 0.5, 0.7071067812, 1, 0.7071067812, 1, 0.7071067812, 1, 0.7071067812, 0.5, 0.7071067812, 0.5, 0.7071067812, 1, 0.7071067812, 1, 0.7071067812, 1, 0.7071067812, 0.5, 0.7071067812, 0.5, 0.7071067812, 1, 0.7071067812, 1, 0.7071067812, 1, 0.7071067812, 0.5, 0.7071067812, 0.5, 0.7071067812, 1, 0.7071067812, 1, 0.7071067812, 1]
        uniform point3d[] brep:vertexPoint:point:position = [(0, 0, -5), (0, 0, 5)]
        uniform uint[] face:loopCount = [1]
        uniform double2[] face:range = [(0, 6.2831853072), (0, 3.1415926536)]
        uniform token[] face:surfaceType = ["BrepSurfaceNurbAPI"]
        uniform token[] face:trimType = ["natural"]
        uniform uint[] faceuse:faceIndex = [0, 0]
        uniform token[] faceuse:orientationType = ["same", "opposite"]
        uniform uint[] loop:edgeuseCount = [0]
        uniform uint[] loop:vertexIndex = [0]
        uniform uint[] region:shellCount = [1, 1]
        uniform token[] region:type = ["voidRegion", "solidRegion"]
        uniform uint[] shell:faceuseCount = [1, 1]
        uniform uint[] shell:wireEdgeCount = [0, 0]
    }
}

