#usda 1.0
(
    defaultPrim = "World"
    doc = """Generated BrepArray test fixture.\r
    Two disjoint 5^3 boxes in a compound. Tests: multi-body (regionCount>1).\r
    Expected volume: 250\r
    Expected face count: 12"""
    metersPerUnit = 0.01
    upAxis = "Y"
)

def Xform "World"
{
    def BrepArray "TwoBoxes"
    {
        uniform double2[] brep:curveUv:nurb:controlVertices = [(0, 0), (5, 0), (5, 0), (5, -5), (0, -5), (5, -5), (0, 0), (0, -5), (0, 0), (5, 0), (5, 0), (5, -5), (0, -5), (5, -5), (0, 0), (0, -5), (0, 0), (0, 5), (0, 5), (5, 5), (5, 0), (5, 5), (0, 0), (5, 0), (0, 0), (0, 5), (0, 5), (5, 5), (5, 0), (5, 5), (0, 0), (5, 0), (0, 0), (0, 5), (0, 5), (5, 5), (5, 0), (5, 5), (0, 0), (5, 0), (0, 0), (0, 5), (0, 5), (5, 5), (5, 0), (5, 5), (0, 0), (5, 0), (0, 0), (5, 0), (5, 0), (5, -5), (0, -5), (5, -5), (0, 0), (0, -5), (0, 0), (5, 0), (5, 0), (5, -5), (0, -5), (5, -5), (0, 0), (0, -5), (0, 0), (0, 5), (0, 5), (5, 5), (5, 0), (5, 5), (0, 0), (5, 0), (0, 0), (0, 5), (0, 5), (5, 5), (5, 0), (5, 5), (0, 0), (5, 0), (0, 0), (0, 5), (0, 5), (5, 5), (5, 0), (5, 5), (0, 0), (5, 0), (0, 0), (0, 5), (0, 5), (5, 5), (5, 0), (5, 5), (0, 0), (5, 0)]
        uniform double[] brep:curveUv:nurb:knots = [0, 0, 5, 5, 0, 0, 5, 5, 0, 0, 5, 5, 0, 0, 5, 5, 0, 0, 5, 5, 0, 0, 5, 5, 0, 0, 5, 5, 0, 0, 5, 5, 0, 0, 5, 5, 0, 0, 5, 5, 0, 0, 5, 5, 0, 0, 5, 5, 0, 0, 5, 5, 0, 0, 5, 5, 0, 0, 5, 5, 0, 0, 5, 5, 0, 0, 5, 5, 0, 0, 5, 5, 0, 0, 5, 5, 0, 0, 5, 5, 0, 0, 5, 5, 0, 0, 5, 5, 0, 0, 5, 5, 0, 0, 5, 5, 0, 0, 5, 5, 0, 0, 5, 5, 0, 0, 5, 5, 0, 0, 5, 5, 0, 0, 5, 5, 0, 0, 5, 5, 0, 0, 5, 5, 0, 0, 5, 5, 0, 0, 5, 5, 0, 0, 5, 5, 0, 0, 5, 5, 0, 0, 5, 5, 0, 0, 5, 5, 0, 0, 5, 5, 0, 0, 5, 5, 0, 0, 5, 5, 0, 0, 5, 5, 0, 0, 5, 5, 0, 0, 5, 5, 0, 0, 5, 5, 0, 0, 5, 5, 0, 0, 5, 5, 0, 0, 5, 5, 0, 0, 5, 5]
        uniform uint[] brep:curveUv:nurb:order = [2, 2, 2, 2, 2, 2, 2, 2, 2, 2, 2, 2, 2, 2, 2, 2, 2, 2, 2, 2, 2, 2, 2, 2, 2, 2, 2, 2, 2, 2, 2, 2, 2, 2, 2, 2, 2, 2, 2, 2, 2, 2, 2, 2, 2, 2, 2, 2]
        uniform uint[] brep:curveUv:nurb:vertexCount = [2, 2, 2, 2, 2, 2, 2, 2, 2, 2, 2, 2, 2, 2, 2, 2, 2, 2, 2, 2, 2, 2, 2, 2, 2, 2, 2, 2, 2, 2, 2, 2, 2, 2, 2, 2, 2, 2, 2, 2, 2, 2, 2, 2, 2, 2, 2, 2]
        uniform point3d[] brep:edge3dNurb:curve3d:nurb:controlVertices = [(0, 0, 0), (0, 0, 5), (0, 0, 5), (0, 5, 5), (0, 5, 0), (0, 5, 5), (0, 0, 0), (0, 5, 0), (5, 0, 0), (5, 0, 5), (5, 0, 5), (5, 5, 5), (5, 5, 0), (5, 5, 5), (5, 0, 0), (5, 5, 0), (0, 0, 0), (5, 0, 0), (0, 0, 5), (5, 0, 5), (0, 5, 0), (5, 5, 0), (0, 5, 5), (5, 5, 5), (10, 0, 0), (10, 0, 5), (10, 0, 5), (10, 5, 5), (10, 5, 0), (10, 5, 5), (10, 0, 0), (10, 5, 0), (15, 0, 0), (15, 0, 5), (15, 0, 5), (15, 5, 5), (15, 5, 0), (15, 5, 5), (15, 0, 0), (15, 5, 0), (10, 0, 0), (15, 0, 0), (10, 0, 5), (15, 0, 5), (10, 5, 0), (15, 5, 0), (10, 5, 5), (15, 5, 5)]
        uniform double[] brep:edge3dNurb:curve3d:nurb:knots = [0, 0, 5, 5, 0, 0, 5, 5, 0, 0, 5, 5, 0, 0, 5, 5, 0, 0, 5, 5, 0, 0, 5, 5, 0, 0, 5, 5, 0, 0, 5, 5, 0, 0, 5, 5, 0, 0, 5, 5, 0, 0, 5, 5, 0, 0, 5, 5, 0, 0, 5, 5, 0, 0, 5, 5, 0, 0, 5, 5, 0, 0, 5, 5, 0, 0, 5, 5, 0, 0, 5, 5, 0, 0, 5, 5, 0, 0, 5, 5, 0, 0, 5, 5, 0, 0, 5, 5, 0, 0, 5, 5, 0, 0, 5, 5]
        uniform uint[] brep:edge3dNurb:curve3d:nurb:order = [2, 2, 2, 2, 2, 2, 2, 2, 2, 2, 2, 2, 2, 2, 2, 2, 2, 2, 2, 2, 2, 2, 2, 2]
        uniform uint[] brep:edge3dNurb:curve3d:nurb:vertexCount = [2, 2, 2, 2, 2, 2, 2, 2, 2, 2, 2, 2, 2, 2, 2, 2, 2, 2, 2, 2, 2, 2, 2, 2]
        uniform double[] brep:edge3dNurb:curve3d:nurb:weights = [1, 1, 1, 1, 1, 1, 1, 1, 1, 1, 1, 1, 1, 1, 1, 1, 1, 1, 1, 1, 1, 1, 1, 1, 1, 1, 1, 1, 1, 1, 1, 1, 1, 1, 1, 1, 1, 1, 1, 1, 1, 1, 1, 1, 1, 1, 1, 1]
        uniform double3[] brep:extent = [(0, 0, 0), (15, 5, 5)]
        uniform double[] brep:intersectTol3d = [0.000001]
        uniform uint[] brep:regionCount = [3]
        uniform point3d[] brep:surface:nurb:controlVertices = [(0, 5, 0), (0, 0, 0), (0, 5, 5), (0, 0, 5), (5, 5, 0), (5, 0, 0), (5, 5, 5), (5, 0, 5), (0, 0, 0), (5, 0, 0), (0, 0, 5), (5, 0, 5), (0, 5, 0), (5, 5, 0), (0, 5, 5), (5, 5, 5), (0, 0, 0), (0, 5, 0), (5, 0, 0), (5, 5, 0), (0, 0, 5), (0, 5, 5), (5, 0, 5), (5, 5, 5), (10, 5, 0), (10, 0, 0), (10, 5, 5), (10, 0, 5), (15, 5, 0), (15, 0, 0), (15, 5, 5), (15, 0, 5), (10, 0, 0), (15, 0, 0), (10, 0, 5), (15, 0, 5), (10, 5, 0), (15, 5, 0), (10, 5, 5), (15, 5, 5), (10, 0, 0), (10, 5, 0), (15, 0, 0), (15, 5, 0), (10, 0, 5), (10, 5, 5), (15, 0, 5), (15, 5, 5)]
        uniform double[] brep:surface:nurb:uKnots = [0, 0, 5, 5, 0, 0, 5, 5, 0, 0, 5, 5, 0, 0, 5, 5, 0, 0, 5, 5, 0, 0, 5, 5, 0, 0, 5, 5, 0, 0, 5, 5, 0, 0, 5, 5, 0, 0, 5, 5, 0, 0, 5, 5, 0, 0, 5, 5]
        uniform uint[] brep:surface:nurb:uOrder = [2, 2, 2, 2, 2, 2, 2, 2, 2, 2, 2, 2]
        uniform uint[] brep:surface:nurb:uVertexCount = [2, 2, 2, 2, 2, 2, 2, 2, 2, 2, 2, 2]
        uniform double[] brep:surface:nurb:vKnots = [-5, -5, 0, 0, -5, -5, 0, 0, 0, 0, 5, 5, 0, 0, 5, 5, 0, 0, 5, 5, 0, 0, 5, 5, -5, -5, 0, 0, -5, -5, 0, 0, 0, 0, 5, 5, 0, 0, 5, 5, 0, 0, 5, 5, 0, 0, 5, 5]
        uniform uint[] brep:surface:nurb:vOrder = [2, 2, 2, 2, 2, 2, 2, 2, 2, 2, 2, 2]
        uniform uint[] brep:surface:nurb:vVertexCount = [2, 2, 2, 2, 2, 2, 2, 2, 2, 2, 2, 2]
        uniform double[] brep:surface:nurb:weights = [1, 1, 1, 1, 1, 1, 1, 1, 1, 1, 1, 1, 1, 1, 1, 1, 1, 1, 1, 1, 1, 1, 1, 1, 1, 1, 1, 1, 1, 1, 1, 1, 1, 1, 1, 1, 1, 1, 1, 1, 1, 1, 1, 1, 1, 1, 1, 1]
        uniform point3d[] brep:vertexPoint:point:position = [(0, 0, 5), (0, 0, 0), (0, 5, 5), (0, 5, 0), (5, 0, 5), (5, 0, 0), (5, 5, 5), (5, 5, 0), (10, 0, 5), (10, 0, 0), (10, 5, 5), (10, 5, 0), (15, 0, 5), (15, 0, 0), (15, 5, 5), (15, 5, 0)]
        uniform token[] edge:curveType = ["BrepCurve3dNurbAPI", "BrepCurve3dNurbAPI", "BrepCurve3dNurbAPI", "BrepCurve3dNurbAPI", "BrepCurve3dNurbAPI", "BrepCurve3dNurbAPI", "BrepCurve3dNurbAPI", "BrepCurve3dNurbAPI", "BrepCurve3dNurbAPI", "BrepCurve3dNurbAPI", "BrepCurve3dNurbAPI", "BrepCurve3dNurbAPI", "BrepCurve3dNurbAPI", "BrepCurve3dNurbAPI", "BrepCurve3dNurbAPI", "BrepCurve3dNurbAPI", "BrepCurve3dNurbAPI", "BrepCurve3dNurbAPI", "BrepCurve3dNurbAPI", "BrepCurve3dNurbAPI", "BrepCurve3dNurbAPI", "BrepCurve3dNurbAPI", "BrepCurve3dNurbAPI", "BrepCurve3dNurbAPI"]
        uniform double[] edge:range = [0, 5, 0, 5, 0, 5, 0, 5, 0, 5, 0, 5, 0, 5, 0, 5, 0, 5, 0, 5, 0, 5, 0, 5, 0, 5, 0, 5, 0, 5, 0, 5, 0, 5, 0, 5, 0, 5, 0, 5, 0, 5, 0, 5, 0, 5, 0, 5]
        uniform int2[] edge:vertexIndices = [(1, 0), (0, 2), (2, 3), (3, 1), (4, 5), (6, 4), (7, 6), (5, 7), (1, 5), (4, 0), (7, 3), (2, 6), (9, 8), (8, 10), (10, 11), (11, 9), (12, 13), (14, 12), (15, 14), (13, 15), (9, 13), (12, 8), (15, 11), (10, 14)]
        uniform uint[] edgeuse:edgeIndex = [0, 1, 2, 3, 4, 5, 6, 7, 8, 4, 9, 0, 10, 6, 11, 2, 3, 10, 7, 8, 1, 11, 5, 9, 12, 13, 14, 15, 16, 17, 18, 19, 20, 16, 21, 12, 22, 18, 23, 14, 15, 22, 19, 20, 13, 23, 17, 21]
        uniform uint[] edgeuse:nextRadialEUIndex = [11, 20, 15, 16, 9, 22, 13, 18, 19, 4, 23, 0, 17, 6, 21, 2, 3, 12, 7, 8, 1, 14, 5, 10, 35, 44, 39, 40, 33, 46, 37, 42, 43, 28, 47, 24, 41, 30, 45, 26, 27, 36, 31, 32, 25, 38, 29, 34]
        uniform token[] edgeuse:orientationType = ["same", "same", "opposite", "opposite", "opposite", "opposite", "same", "same", "same", "same", "opposite", "opposite", "opposite", "opposite", "same", "same", "same", "same", "opposite", "opposite", "opposite", "opposite", "same", "same", "same", "same", "opposite", "opposite", "opposite", "opposite", "same", "same", "same", "same", "opposite", "opposite", "opposite", "opposite", "same", "same", "same", "same", "opposite", "opposite", "opposite", "opposite", "same", "same"]
        uniform token[] edgeuse:thisRadialEntryType = ["topEntry", "topEntry", "topEntry", "topEntry", "topEntry", "topEntry", "topEntry", "topEntry", "topEntry", "bottomEntry", "topEntry", "bottomEntry", "topEntry", "bottomEntry", "topEntry", "bottomEntry", "bottomEntry", "bottomEntry", "bottomEntry", "bottomEntry", "bottomEntry", "bottomEntry", "bottomEntry", "bottomEntry", "topEntry", "topEntry", "topEntry", "topEntry", "topEntry", "topEntry", "topEntry", "topEntry", "topEntry", "bottomEntry", "topEntry", "bottomEntry", "topEntry", "bottomEntry", "topEntry", "bottomEntry", "bottomEntry", "bottomEntry", "bottomEntry", "bottomEntry", "bottomEntry", "bottomEntry", "bottomEntry", "bottomEntry"]
        uniform uint[] face:loopCount = [1, 1, 1, 1, 1, 1, 1, 1, 1, 1, 1, 1]
        uniform double2[] face:range = [(0, -5), (5, 0), (0, -5), (5, 0), (0, 0), (5, 5), (0, 0), (5, 5), (0, 0), (5, 5), (0, 0), (5, 5), (0, -5), (5, 0), (0, -5), (5, 0), (0, 0), (5, 5), (0, 0), (5, 5), (0, 0), (5, 5), (0, 0), (5, 5)]
        uniform token[] face:surfaceType = ["BrepSurfaceNurbAPI", "BrepSurfaceNurbAPI", "BrepSurfaceNurbAPI", "BrepSurfaceNurbAPI", "BrepSurfaceNurbAPI", "BrepSurfaceNurbAPI", "BrepSurfaceNurbAPI", "BrepSurfaceNurbAPI", "BrepSurfaceNurbAPI", "BrepSurfaceNurbAPI", "BrepSurfaceNurbAPI", "BrepSurfaceNurbAPI"]
        uniform token[] face:trimType = ["general", "general", "general", "general", "general", "general", "general", "general", "general", "general", "general", "general"]
        uniform uint[] faceuse:faceIndex = [0, 1, 2, 3, 4, 5, 6, 7, 8, 9, 10, 11, 0, 1, 2, 3, 4, 5, 6, 7, 8, 9, 10, 11]
        uniform token[] faceuse:orientationType = ["opposite", "same", "opposite", "same", "opposite", "same", "opposite", "same", "opposite", "same", "opposite", "same", "same", "opposite", "same", "opposite", "same", "opposite", "same", "opposite", "same", "opposite", "same", "opposite"]
        uniform uint[] loop:edgeuseCount = [4, 4, 4, 4, 4, 4, 4, 4, 4, 4, 4, 4]
        uniform uint[] loop:vertexIndex = [1, 4, 1, 7, 1, 2, 9, 12, 9, 15, 9, 10]
        uniform uint[] region:shellCount = [2, 1, 1]
        uniform token[] region:type = ["voidRegion", "solidRegion", "solidRegion"]
        uniform uint[] shell:faceuseCount = [6, 6, 6, 6]
        uniform token[] shell:pointType = ["none", "none", "none", "none"]
        uniform uint[] shell:wireEdgeCount = [0, 0, 0, 0]
        uniform token[] vertex:pointType = ["BrepPointAPI", "BrepPointAPI", "BrepPointAPI", "BrepPointAPI", "BrepPointAPI", "BrepPointAPI", "BrepPointAPI", "BrepPointAPI", "BrepPointAPI", "BrepPointAPI", "BrepPointAPI", "BrepPointAPI", "BrepPointAPI", "BrepPointAPI", "BrepPointAPI", "BrepPointAPI"]
        uniform token[] wireEdge:curveType = []
        uniform double[] wireEdge:range = []
        uniform int2[] wireEdge:vertexIndices = []
    }
}

