#usda 1.0

def Xform "World" (
    defaultPrim = "World"
    upAxis = "Y"
)
{
    def BrepArray "DepressedPlane"
    {
        uniform double2[] brep:curveUv:nurb:controlVertices = [(0, 0), (20, 0), (20, 0), (20, 20), (20, 20), (0, 20), (0, 20), (0, 0), (13, 10), (13, 15.1961524227), (8.5, 12.5980762114), (4, 10), (8.5, 7.4019237886), (13, 4.8038475773), (13, 10), (0, 0), (6.2831853072, 0), (6.2831853072, 0), (6.2831853072, 5), (6.2831853072, 5), (0, 5), (0, 5), (0, 0), (13, 10), (13, 15.1961524227), (8.5, 12.5980762114), (4, 10), (8.5, 7.4019237886), (13, 4.8038475773), (13, 10)]
        uniform double[] brep:curveUv:nurb:knots = [0, 0, 1, 1, 0, 0, 1, 1, 0, 0, 1, 1, 0, 0, 1, 1, 0, 0, 0, 2.0943951024, 2.0943951024, 4.1887902048, 4.1887902048, 6.2831853072, 6.2831853072, 6.2831853072, 0, 0, 1, 1, 0, 0, 1, 1, 0, 0, 1, 1, 0, 0, 1, 1, 0, 0, 0, 2.0943951024, 2.0943951024, 4.1887902048, 4.1887902048, 6.2831853072, 6.2831853072, 6.2831853072]
        uniform uint[] brep:curveUv:nurb:order = [2, 2, 2, 2, 3, 2, 2, 2, 2, 3]
        uniform uint[] brep:curveUv:nurb:vertexCount = [2, 2, 2, 2, 7, 2, 2, 2, 2, 7]
        uniform double[] brep:curveUv:nurb:weights = [1, 1, 1, 1, 1, 1, 1, 1, 1, 0.5, 1, 0.5, 1, 0.5, 1, 1, 1, 1, 1, 1, 1, 1, 1, 1, 0.5, 1, 0.5, 1, 0.5, 1]
        uniform point3d[] brep:edge3dNurb:curve3d:nurb:controlVertices = [(0, 0, 0), (20, 0, 0), (20, 0, 0), (20, 20, 0), (20, 20, 0), (0, 20, 0), (0, 20, 0), (0, 0, 0), (13, 10, 0), (13, 15.1961524227, 0), (8.5, 12.5980762114, 0), (4, 10, 0), (8.5, 7.4019237886, 0), (13, 4.8038475773, 0), (13, 10, 0), (13, 10, -5), (13, 15.1961524227, -5), (8.5, 12.5980762114, -5), (4, 10, -5), (8.5, 7.4019237886, -5), (13, 4.8038475773, -5), (13, 10, -5), (13, 10, 0), (13, 10, -5)]
        uniform double[] brep:edge3dNurb:curve3d:nurb:knots = [0, 0, 1, 1, 0, 0, 1, 1, 0, 0, 1, 1, 0, 0, 1, 1, 0, 0, 0, 2.0943951024, 2.0943951024, 4.1887902048, 4.1887902048, 6.2831853072, 6.2831853072, 6.2831853072, 0, 0, 0, 2.0943951024, 2.0943951024, 4.1887902048, 4.1887902048, 6.2831853072, 6.2831853072, 6.2831853072, 0, 0, 1, 1]
        uniform uint[] brep:edge3dNurb:curve3d:nurb:order = [2, 2, 2, 2, 3, 3, 2]
        uniform uint[] brep:edge3dNurb:curve3d:nurb:vertexCount = [2, 2, 2, 2, 7, 7, 2]
        uniform double[] brep:edge3dNurb:curve3d:nurb:weights = [1, 1, 1, 1, 1, 1, 1, 1, 1, 0.5, 1, 0.5, 1, 0.5, 1, 1, 0.5, 1, 0.5, 1, 0.5, 1, 1, 1]
        uniform uint[] brep:regionCount = [2]
        uniform point3d[] brep:surface:nurb:controlVertices = [(0, 0, 0), (0, 20, 0), (20, 0, 0), (20, 20, 0), (13, 10, 0), (13, 10, -5), (13, 15.1961524227, 0), (13, 15.1961524227, -5), (8.5, 12.5980762114, 0), (8.5, 12.5980762114, -5), (4, 10, 0), (4, 10, -5), (8.5, 7.4019237886, 0), (8.5, 7.4019237886, -5), (13, 4.8038475773, 0), (13, 4.8038475773, -5), (13, 10, 0), (13, 10, -5), (7, 7, -5), (7, 13, -5), (13, 7, -5), (13, 13, -5)]
        uniform double[] brep:surface:nurb:uKnots = [0, 0, 20, 20, 0, 0, 0, 2.0943951024, 2.0943951024, 4.1887902048, 4.1887902048, 6.2831853072, 6.2831853072, 6.2831853072, 7, 7, 13, 13]
        uniform uint[] brep:surface:nurb:uOrder = [2, 3, 2]
        uniform uint[] brep:surface:nurb:uVertexCount = [2, 7, 2]
        uniform double[] brep:surface:nurb:vKnots = [0, 0, 20, 20, 0, 0, 5, 5, 7, 7, 13, 13]
        uniform uint[] brep:surface:nurb:vOrder = [2, 2, 2]
        uniform uint[] brep:surface:nurb:vVertexCount = [2, 2, 2]
        uniform double[] brep:surface:nurb:weights = [1, 1, 1, 1, 1, 1, 0.5, 0.5, 1, 1, 0.5, 0.5, 1, 1, 0.5, 0.5, 1, 1, 1, 1, 1, 1]
        uniform point3d[] brep:vertexPoint:point:position = [(0, 0, 0), (20, 0, 0), (20, 20, 0), (0, 20, 0), (13, 10, 0), (13, 10, -5)]
        uniform token[] edge:curveType = ["BrepCurve3dNurbAPI", "BrepCurve3dNurbAPI", "BrepCurve3dNurbAPI", "BrepCurve3dNurbAPI", "BrepCurve3dNurbAPI", "BrepCurve3dNurbAPI", "BrepCurve3dNurbAPI"]
        uniform double[] edge:range = [0, 1, 0, 1, 0, 1, 0, 1, 0, 6.2831853072, 0, 6.2831853072, 0, 1]
        uniform int2[] edge:vertexIndices = [(0, 1), (1, 2), (2, 3), (3, 0), (4, 4), (5, 5), (4, 5)]
        uniform uint[] edgeuse:edgeIndex = [0, 1, 2, 3, 4, 4, 6, 5, 6, 5]
        uniform uint[] edgeuse:nextRadialEUIndex = [0, 1, 2, 3, 5, 4, 8, 9, 6, 7]
        uniform token[] edgeuse:orientationType = ["same", "same", "same", "same", "same", "same", "same", "same", "same", "same"]
        uniform token[] edgeuse:thisRadialEntryType = ["topEntry", "topEntry", "topEntry", "topEntry", "topEntry", "topEntry", "topEntry", "topEntry", "topEntry", "topEntry"]
        uniform uint[] face:loopCount = [2, 1, 1]
        uniform double2[] face:range = [(0, 20), (0, 20), (0, 6.2831853072), (0, 5), (7, 13), (7, 13)]
        uniform token[] face:surfaceType = ["BrepSurfaceNurbAPI", "BrepSurfaceNurbAPI", "BrepSurfaceNurbAPI"]
        uniform uint[] faceuse:faceIndex = [0, 1, 2, 0, 1, 2]
        uniform token[] faceuse:orientationType = ["same", "same", "opposite", "opposite", "opposite", "same"]
        uniform uint[] loop:edgeuseCount = [4, 1, 4, 1]
        uniform uint[] loop:vertexIndex = [0, 0, 0, 0]
        uniform uint[] region:shellCount = [1, 1]
        uniform token[] region:type = ["voidRegion", "solidRegion"]
        uniform uint[] shell:faceuseCount = [3, 3]
        uniform token[] shell:pointType = ["none"]
        uniform uint[] shell:wireEdgeCount = [0, 0]
        uniform token[] vertex:pointType = ["BrepPointAPI", "BrepPointAPI", "BrepPointAPI", "BrepPointAPI", "BrepPointAPI", "BrepPointAPI"]
    }
}

