#usda 1.0
(
    defaultPrim = "World"
    doc = """Generated BrepArray test fixture.\r
    Cylinder radius=3, height=10, axis=Z. 3 faces: barrel + 2 end caps.\r
    Expected volume: pi * 3^2 * 10 ≈ 282.74"""
    metersPerUnit = 1
    upAxis = "Z"
)

def Xform "World"
{
    def BrepArray "Cylinder"
    {
        uniform double[] brep:intersectTol3d = [0.000001]
        uniform uint[] brep:regionCount = [2]
        uniform point3d[] brep:surface:nurb:controlVertices = [(3, 0, 0), (3, 0, 10), (3, 3, 0), (3, 3, 10), (0, 3, 0), (0, 3, 10), (-3, 3, 0), (-3, 3, 10), (-3, 0, 0), (-3, 0, 10), (-3, -3, 0), (-3, -3, 10), (0, -3, 0), (0, -3, 10), (3, -3, 0), (3, -3, 10), (3, 0, 0), (3, 0, 10), (0, 0, 0), (3, 0, 0), (0, 0, 0), (3, 3, 0), (0, 0, 0), (0, 3, 0), (0, 0, 0), (-3, 3, 0), (0, 0, 0), (-3, 0, 0), (0, 0, 0), (-3, -3, 0), (0, 0, 0), (0, -3, 0), (0, 0, 0), (3, -3, 0), (0, 0, 0), (3, 0, 0), (0, 0, 10), (3, 0, 10), (0, 0, 10), (3, 3, 10), (0, 0, 10), (0, 3, 10), (0, 0, 10), (-3, 3, 10), (0, 0, 10), (-3, 0, 10), (0, 0, 10), (-3, -3, 10), (0, 0, 10), (0, -3, 10), (0, 0, 10), (3, -3, 10), (0, 0, 10), (3, 0, 10)]
        uniform double[] brep:surface:nurb:uKnots = [0, 0, 0, 1.5707963268, 1.5707963268, 3.1415926536, 3.1415926536, 4.7123889804, 4.7123889804, 6.2831853072, 6.2831853072, 6.2831853072, 0, 0, 0, 1.5707963268, 1.5707963268, 3.1415926536, 3.1415926536, 4.7123889804, 4.7123889804, 6.2831853072, 6.2831853072, 6.2831853072, 0, 0, 0, 1.5707963268, 1.5707963268, 3.1415926536, 3.1415926536, 4.7123889804, 4.7123889804, 6.2831853072, 6.2831853072, 6.2831853072]
        uniform uint[] brep:surface:nurb:uOrder = [3, 3, 3]
        uniform uint[] brep:surface:nurb:uVertexCount = [9, 9, 9]
        uniform double[] brep:surface:nurb:vKnots = [0, 0, 10, 10, 0, 0, 3, 3, 0, 0, 3, 3]
        uniform uint[] brep:surface:nurb:vOrder = [2, 2, 2]
        uniform uint[] brep:surface:nurb:vVertexCount = [2, 2, 2]
        uniform double[] brep:surface:nurb:weights = [1, 1, 0.7071067812, 0.7071067812, 1, 1, 0.7071067812, 0.7071067812, 1, 1, 0.7071067812, 0.7071067812, 1, 1, 0.7071067812, 0.7071067812, 1, 1, 1, 1, 0.7071067812, 0.7071067812, 1, 1, 0.7071067812, 0.7071067812, 1, 1, 0.7071067812, 0.7071067812, 1, 1, 0.7071067812, 0.7071067812, 1, 1, 1, 1, 0.7071067812, 0.7071067812, 1, 1, 0.7071067812, 0.7071067812, 1, 1, 0.7071067812, 0.7071067812, 1, 1, 0.7071067812, 0.7071067812, 1, 1]
        uniform point3d[] brep:vertexPoint:point:position = [(0, 0, 0), (0, 0, 10)]
        uniform uint[] face:loopCount = [1, 1, 1]
        uniform double2[] face:range = [(0, 6.2831853072), (0, 10), (0, 6.2831853072), (0, 3), (0, 6.2831853072), (0, 3)]
        uniform token[] face:surfaceType = ["BrepSurfaceNurbAPI", "BrepSurfaceNurbAPI", "BrepSurfaceNurbAPI"]
        uniform token[] face:trimType = ["natural", "natural", "natural"]
        uniform uint[] faceuse:faceIndex = [0, 1, 2, 0, 1, 2]
        uniform token[] faceuse:orientationType = ["same", "opposite", "same", "opposite", "same", "opposite"]
        uniform uint[] loop:edgeuseCount = [0, 0, 0]
        uniform uint[] loop:vertexIndex = [0, 0, 0]
        uniform uint[] region:shellCount = [1, 1]
        uniform token[] region:type = ["voidRegion", "solidRegion"]
        uniform uint[] shell:faceuseCount = [3, 3]
        uniform uint[] shell:wireEdgeCount = [0, 0]
    }
}

