#usda 1.0
(
    defaultPrim = "World"
    doc = "Box 10^3 with r=3 through-hole along Z (OCCT-generated)."
    metersPerUnit = 0.01
    upAxis = "Y"
)

def Xform "World"
{
    def BrepArray "CubeWithHole"
    {
        uniform double2[] brep:curveUv:nurb:controlVertices = [(0, 0), (0, -10), (0, -10), (10, -10), (10, -10), (10, 0), (10, 0), (0, 0), (0, 0), (10, 0), (10, 0), (10, 10), (10, 10), (0, 10), (0, 10), (0, 0), (0, 10), (0, 0), (0, 0), (10, 0), (10, 0), (10, 10), (10, 10), (0, 10), (2, 5), (2, 3.26794919243), (3.5, 2.40192378865), (8, -0.196152422707), (8, 5), (8, 5), (8, 10.1961524227), (3.5, 7.59807621135), (2, 6.73205080757), (2, 5), (0, 10), (0, 0), (0, 0), (10, 0), (10, 0), (10, 10), (10, 10), (0, 10), (0, 0), (10, 0), (10, 0), (10, 10), (10, 10), (0, 10), (0, 10), (0, 0), (8, 5), (8, 10.1961524227), (3.5, 7.59807621135), (2, 6.73205080757), (2, 5), (2, 5), (2, 3.26794919243), (3.5, 2.40192378865), (8, -0.196152422707), (8, 5), (10, 0), (0, 0), (0, 0), (0, -10), (0, -10), (10, -10), (10, -10), (10, 0), (0, 11), (0, 6), (0, 1), (0, 1), (1.0471975512, 1), (2.09439510239, 1), (2.61799387799, 1), (3.14159265359, 1), (3.14159265359, 1), (3.14159265359, 11), (3.14159265359, 11), (2.61799387799, 11), (2.09439510239, 11), (1.0471975512, 11), (0, 11), (6.28318530718, 1), (6.28318530718, 6), (6.28318530718, 11), (6.28318530718, 11), (5.23598775598, 11), (4.18879020479, 11), (3.66519142919, 11), (3.14159265359, 11), (3.14159265359, 11), (3.14159265359, 1), (3.14159265359, 1), (3.66519142919, 1), (4.18879020479, 1), (5.23598775598, 1), (6.28318530718, 1)]
        uniform double[] brep:curveUv:nurb:knots = [0, 0, 10, 10, 0, 0, 10, 10, 0, 0, 10, 10, 0, 0, 10, 10, 0, 0, 10, 10, 0, 0, 10, 10, 0, 0, 10, 10, 0, 0, 10, 10, 0, 0, 10, 10, 0, 0, 10, 10, 0, 0, 10, 10, 0, 0, 10, 10, 3.14159265359, 3.14159265359, 3.14159265359, 4.18879020479, 4.18879020479, 6.28318530718, 6.28318530718, 6.28318530718, 0, 0, 0, 2.09439510239, 2.09439510239, 3.14159265359, 3.14159265359, 3.14159265359, 0, 0, 10, 10, 0, 0, 10, 10, 0, 0, 10, 10, 0, 0, 10, 10, 0, 0, 10, 10, 0, 0, 10, 10, 0, 0, 10, 10, 0, 0, 10, 10, 0, 0, 0, 2.09439510239, 2.09439510239, 3.14159265359, 3.14159265359, 3.14159265359, 3.14159265359, 3.14159265359, 3.14159265359, 4.18879020479, 4.18879020479, 6.28318530718, 6.28318530718, 6.28318530718, 0, 0, 10, 10, 0, 0, 10, 10, 0, 0, 10, 10, 0, 0, 10, 10, 1, 1, 1, 11, 11, 11, 0, 0, 0, 2.09439510239, 2.09439510239, 3.14159265359, 3.14159265359, 3.14159265359, 1, 1, 11, 11, 0, 0, 0, 1.0471975512, 1.0471975512, 3.14159265359, 3.14159265359, 3.14159265359, 1, 1, 1, 11, 11, 11, 3.14159265359, 3.14159265359, 3.14159265359, 5.23598775598, 5.23598775598, 6.28318530718, 6.28318530718, 6.28318530718, 1, 1, 11, 11, 3.14159265359, 3.14159265359, 3.14159265359, 4.18879020479, 4.18879020479, 6.28318530718, 6.28318530718, 6.28318530718]
        uniform uint[] brep:curveUv:nurb:order = [2, 2, 2, 2, 2, 2, 2, 2, 2, 2, 2, 2, 3, 3, 2, 2, 2, 2, 2, 2, 2, 2, 3, 3, 2, 2, 2, 2, 3, 3, 2, 3, 3, 3, 2, 3]
        uniform uint[] brep:curveUv:nurb:vertexCount = [2, 2, 2, 2, 2, 2, 2, 2, 2, 2, 2, 2, 5, 5, 2, 2, 2, 2, 2, 2, 2, 2, 5, 5, 2, 2, 2, 2, 3, 5, 2, 5, 3, 5, 2, 5]
        uniform double[] brep:curveUv:nurb:weights = [1, 1, 1, 1, 1, 1, 1, 1, 1, 1, 1, 1, 1, 1, 1, 1, 1, 1, 1, 1, 1, 1, 1, 1, 0.75, 0.75, 1, 0.5, 1, 1, 0.5, 1, 0.75, 0.75, 1, 1, 1, 1, 1, 1, 1, 1, 1, 1, 1, 1, 1, 1, 1, 1, 1, 0.5, 1, 0.75, 0.75, 0.75, 0.75, 1, 0.5, 1, 1, 1, 1, 1, 1, 1, 1, 1, 1, 1, 1, 1, 1, 1, 1, 1, 1, 1, 1, 1, 1, 1, 1, 1, 1, 1, 1, 1, 1, 1, 1, 1, 1, 1, 1, 1, 1, 1]
        uniform point3d[] brep:edge3dNurb:curve3d:nurb:controlVertices = [(0, 0, 0), (0, 10, 0), (0, 10, 0), (0, 10, 10), (0, 10, 10), (0, 0, 10), (0, 0, 10), (0, 0, 0), (0, 0, 0), (0, 0, 10), (0, 0, 10), (10, 0, 10), (10, 0, 10), (10, 0, 0), (10, 0, 0), (0, 0, 0), (0, 10, 10), (0, 0, 10), (0, 0, 10), (10, 0, 10), (10, 0, 10), (10, 10, 10), (10, 10, 10), (0, 10, 10), (2, 5, 10), (2, 3.26794919243, 10), (3.5, 2.40192378865, 10), (8, -0.196152422707, 10), (8, 5, 10), (8, 5, 10), (8, 10.1961524227, 10), (3.5, 7.59807621135, 10), (2, 6.73205080757, 10), (2, 5, 10), (10, 10, 0), (0, 10, 0), (0, 10, 0), (0, 10, 10), (0, 10, 10), (10, 10, 10), (10, 10, 10), (10, 10, 0), (0, 0, 0), (10, 0, 0), (10, 0, 0), (10, 10, 0), (10, 10, 0), (0, 10, 0), (0, 10, 0), (0, 0, 0), (8, 5, 0), (8, 10.1961524227, 0), (3.5, 7.59807621135, 0), (2, 6.73205080757, 0), (2, 5, 0), (2, 5, 0), (2, 3.26794919243, 0), (3.5, 2.40192378865, 0), (8, -0.196152422707, 0), (8, 5, 0), (10, 0, 10), (10, 0, 0), (10, 0, 0), (10, 10, 0), (10, 10, 0), (10, 10, 10), (10, 10, 10), (10, 0, 10), (8, 5, 10), (8, 5, 0), (8, 5, 0), (8, 10.1961524227, 0), (3.5, 7.59807621135, 0), (2, 6.73205080757, 0), (2, 5, 0), (2, 5, 0), (2, 5, 10), (2, 5, 10), (2, 6.73205080757, 10), (3.5, 7.59807621135, 10), (8, 10.1961524227, 10), (8, 5, 10), (8, 5, 0), (8, 5, 10), (8, 5, 10), (8, -0.196152422707, 10), (3.5, 2.40192378865, 10), (2, 3.26794919243, 10), (2, 5, 10), (2, 5, 10), (2, 5, 0), (2, 5, 0), (2, 3.26794919243, 0), (3.5, 2.40192378865, 0), (8, -0.196152422707, 0), (8, 5, 0)]
        uniform double[] brep:edge3dNurb:curve3d:nurb:knots = [0, 0, 10, 10, 0, 0, 10, 10, 0, 0, 10, 10, 0, 0, 10, 10, 0, 0, 10, 10, 0, 0, 10, 10, 0, 0, 10, 10, 0, 0, 10, 10, 0, 0, 10, 10, 0, 0, 10, 10, 0, 0, 10, 10, 0, 0, 10, 10, 3.14159265359, 3.14159265359, 3.14159265359, 4.18879020479, 4.18879020479, 6.28318530718, 6.28318530718, 6.28318530718, 0, 0, 0, 2.09439510239, 2.09439510239, 3.14159265359, 3.14159265359, 3.14159265359, 0, 0, 10, 10, 0, 0, 10, 10, 0, 0, 10, 10, 0, 0, 10, 10, 0, 0, 10, 10, 0, 0, 10, 10, 0, 0, 10, 10, 0, 0, 10, 10, 0, 0, 0, 2.09439510239, 2.09439510239, 3.14159265359, 3.14159265359, 3.14159265359, 3.14159265359, 3.14159265359, 3.14159265359, 4.18879020479, 4.18879020479, 6.28318530718, 6.28318530718, 6.28318530718, 0, 0, 10, 10, 0, 0, 10, 10, 0, 0, 10, 10, 0, 0, 10, 10, 1, 1, 11, 11, 0, 0, 0, 2.09439510239, 2.09439510239, 3.14159265359, 3.14159265359, 3.14159265359, 1, 1, 11, 11, 0, 0, 0, 1.0471975512, 1.0471975512, 3.14159265359, 3.14159265359, 3.14159265359, 1, 1, 11, 11, 3.14159265359, 3.14159265359, 3.14159265359, 5.23598775598, 5.23598775598, 6.28318530718, 6.28318530718, 6.28318530718, 1, 1, 11, 11, 3.14159265359, 3.14159265359, 3.14159265359, 4.18879020479, 4.18879020479, 6.28318530718, 6.28318530718, 6.28318530718]
        uniform uint[] brep:edge3dNurb:curve3d:nurb:order = [2, 2, 2, 2, 2, 2, 2, 2, 2, 2, 2, 2, 3, 3, 2, 2, 2, 2, 2, 2, 2, 2, 3, 3, 2, 2, 2, 2, 2, 3, 2, 3, 2, 3, 2, 3]
        uniform uint[] brep:edge3dNurb:curve3d:nurb:vertexCount = [2, 2, 2, 2, 2, 2, 2, 2, 2, 2, 2, 2, 5, 5, 2, 2, 2, 2, 2, 2, 2, 2, 5, 5, 2, 2, 2, 2, 2, 5, 2, 5, 2, 5, 2, 5]
        uniform double[] brep:edge3dNurb:curve3d:nurb:weights = [1, 1, 1, 1, 1, 1, 1, 1, 1, 1, 1, 1, 1, 1, 1, 1, 1, 1, 1, 1, 1, 1, 1, 1, 0.75, 0.75, 1, 0.5, 1, 1, 0.5, 1, 0.75, 0.75, 1, 1, 1, 1, 1, 1, 1, 1, 1, 1, 1, 1, 1, 1, 1, 1, 1, 0.5, 1, 0.75, 0.75, 0.75, 0.75, 1, 0.5, 1, 1, 1, 1, 1, 1, 1, 1, 1, 1, 1, 1, 0.5, 1, 0.75, 0.75, 1, 1, 0.75, 0.75, 1, 0.5, 1, 1, 1, 1, 0.5, 1, 0.75, 0.75, 1, 1, 0.75, 0.75, 1, 0.5, 1]
        uniform double[] brep:intersectTol3d = [0.000001]
        uniform uint[] brep:regionCount = [2]
        uniform point3d[] brep:surface:nurb:controlVertices = [(0, 10, 0), (0, 0, 0), (0, 10, 10), (0, 0, 10), (0, 0, 0), (10, 0, 0), (0, 0, 10), (10, 0, 10), (0, 0, 10), (0, 10, 10), (10, 0, 10), (10, 10, 10), (0, 10, 0), (10, 10, 0), (0, 10, 10), (10, 10, 10), (0, 0, 0), (0, 10, 0), (10, 0, 0), (10, 10, 0), (10, 10, 0), (10, 0, 0), (10, 10, 10), (10, 0, 10), (8, 5, 0), (8, 5, 10), (8, 10.1961524227, 0), (8, 10.1961524227, 10), (3.5, 7.59807621135, 0), (3.5, 7.59807621135, 10), (2, 6.73205080757, 0), (2, 6.73205080757, 10), (2, 5, 0), (2, 5, 10), (2, 5, 0), (2, 5, 10), (2, 3.26794919243, 0), (2, 3.26794919243, 10), (3.5, 2.40192378865, 0), (3.5, 2.40192378865, 10), (8, -0.196152422707, 0), (8, -0.196152422707, 10), (8, 5, 0), (8, 5, 10)]
        uniform double[] brep:surface:nurb:uKnots = [0, 0, 10, 10, 0, 0, 10, 10, 0, 0, 10, 10, 0, 0, 10, 10, 0, 0, 10, 10, 0, 0, 10, 10, 0, 0, 0, 2.09439510239, 2.09439510239, 3.14159265359, 3.14159265359, 3.14159265359, 3.14159265359, 3.14159265359, 3.14159265359, 4.18879020479, 4.18879020479, 6.28318530718, 6.28318530718, 6.28318530718]
        uniform uint[] brep:surface:nurb:uOrder = [2, 2, 2, 2, 2, 2, 3, 3]
        uniform uint[] brep:surface:nurb:uVertexCount = [2, 2, 2, 2, 2, 2, 5, 5]
        uniform double[] brep:surface:nurb:vKnots = [-10, -10, 0, 0, 0, 0, 10, 10, 0, 0, 10, 10, 0, 0, 10, 10, 0, 0, 10, 10, -10, -10, 0, 0, 1, 1, 11, 11, 1, 1, 11, 11]
        uniform uint[] brep:surface:nurb:vOrder = [2, 2, 2, 2, 2, 2, 2, 2]
        uniform uint[] brep:surface:nurb:vVertexCount = [2, 2, 2, 2, 2, 2, 2, 2]
        uniform double[] brep:surface:nurb:weights = [1, 1, 1, 1, 1, 1, 1, 1, 1, 1, 1, 1, 1, 1, 1, 1, 1, 1, 1, 1, 1, 1, 1, 1, 1, 1, 0.5, 0.5, 1, 1, 0.75, 0.75, 0.75, 0.75, 0.75, 0.75, 0.75, 0.75, 1, 1, 0.5, 0.5, 1, 1]
        uniform point3d[] brep:vertexPoint:point:position = [(0, 0, 0), (0, 10, 0), (0, 10, 0), (0, 10, 10), (0, 10, 10), (0, 0, 10), (0, 0, 10), (0, 0, 0), (0, 0, 0), (0, 0, 10), (0, 0, 10), (10, 0, 10), (10, 0, 10), (10, 0, 0), (10, 0, 0), (0, 0, 0), (0, 10, 10), (0, 0, 10), (0, 0, 10), (10, 0, 10), (10, 0, 10), (10, 10, 10), (10, 10, 10), (0, 10, 10), (2, 5, 10), (8, 5, 10), (8, 5, 10), (2, 5, 10), (10, 10, 0), (0, 10, 0), (0, 10, 0), (0, 10, 10), (0, 10, 10), (10, 10, 10), (10, 10, 10), (10, 10, 0), (0, 0, 0), (10, 0, 0), (10, 0, 0), (10, 10, 0), (10, 10, 0), (0, 10, 0), (0, 10, 0), (0, 0, 0), (8, 5, 0), (2, 5, 0), (2, 5, 0), (8, 5, 0), (10, 0, 10), (10, 0, 0), (10, 0, 0), (10, 10, 0), (10, 10, 0), (10, 10, 10), (10, 10, 10), (10, 0, 10), (8, 5, 10), (8, 5, 0), (8, 5, 0), (2, 5, 0), (2, 5, 0), (2, 5, 10), (2, 5, 10), (8, 5, 10), (8, 5, 0), (8, 5, 10), (8, 5, 10), (2, 5, 10), (2, 5, 10), (2, 5, 0), (2, 5, 0), (8, 5, 0)]
        uniform token[] edge:curveType = ["BrepCurve3dNurbAPI", "BrepCurve3dNurbAPI", "BrepCurve3dNurbAPI", "BrepCurve3dNurbAPI", "BrepCurve3dNurbAPI", "BrepCurve3dNurbAPI", "BrepCurve3dNurbAPI", "BrepCurve3dNurbAPI", "BrepCurve3dNurbAPI", "BrepCurve3dNurbAPI", "BrepCurve3dNurbAPI", "BrepCurve3dNurbAPI", "BrepCurve3dNurbAPI", "BrepCurve3dNurbAPI", "BrepCurve3dNurbAPI", "BrepCurve3dNurbAPI", "BrepCurve3dNurbAPI", "BrepCurve3dNurbAPI", "BrepCurve3dNurbAPI", "BrepCurve3dNurbAPI", "BrepCurve3dNurbAPI", "BrepCurve3dNurbAPI", "BrepCurve3dNurbAPI", "BrepCurve3dNurbAPI", "BrepCurve3dNurbAPI", "BrepCurve3dNurbAPI", "BrepCurve3dNurbAPI", "BrepCurve3dNurbAPI", "BrepCurve3dNurbAPI", "BrepCurve3dNurbAPI", "BrepCurve3dNurbAPI", "BrepCurve3dNurbAPI", "BrepCurve3dNurbAPI", "BrepCurve3dNurbAPI", "BrepCurve3dNurbAPI", "BrepCurve3dNurbAPI"]
        uniform double[] edge:range = [0, 10, 0, 10, 0, 10, 0, 10, 0, 10, 0, 10, 0, 10, 0, 10, 0, 10, 0, 10, 0, 10, 0, 10, 3.14159265359, 6.28318530718, 0, 3.14159265359, 0, 10, 0, 10, 0, 10, 0, 10, 0, 10, 0, 10, 0, 10, 0, 10, 0, 3.14159265359, 3.14159265359, 6.28318530718, 0, 10, 0, 10, 0, 10, 0, 10, 1, 11, 0, 3.14159265359, 1, 11, 0, 3.14159265359, 1, 11, 3.14159265359, 6.28318530718, 1, 11, 3.14159265359, 6.28318530718]
        uniform int2[] edge:vertexIndices = [(0, 1), (2, 3), (4, 5), (6, 7), (8, 9), (10, 11), (12, 13), (14, 15), (16, 17), (18, 19), (20, 21), (22, 23), (24, 25), (26, 27), (28, 29), (30, 31), (32, 33), (34, 35), (36, 37), (38, 39), (40, 41), (42, 43), (44, 45), (46, 47), (48, 49), (50, 51), (52, 53), (54, 55), (56, 57), (58, 59), (60, 61), (62, 63), (64, 65), (66, 67), (68, 69), (70, 71)]
        uniform uint[] edgeuse:edgeIndex = [0, 1, 2, 3, 4, 5, 6, 7, 8, 9, 10, 11, 12, 13, 14, 15, 16, 17, 18, 19, 20, 21, 22, 23, 24, 25, 26, 27, 28, 29, 30, 31, 32, 33, 34, 35]
        uniform uint[] edgeuse:nextRadialEUIndex = [0, 1, 2, 3, 4, 5, 6, 7, 8, 9, 10, 11, 12, 13, 14, 15, 16, 17, 18, 19, 20, 21, 22, 23, 24, 25, 26, 27, 28, 29, 30, 31, 32, 33, 34, 35]
        uniform token[] edgeuse:orientationType = ["same", "same", "same", "same", "same", "same", "same", "same", "same", "same", "same", "same", "same", "same", "same", "same", "same", "same", "same", "same", "same", "same", "same", "same", "same", "same", "same", "same", "same", "same", "same", "same", "same", "same", "same", "same"]
        uniform token[] edgeuse:thisRadialEntryType = ["topEntry", "topEntry", "topEntry", "topEntry", "topEntry", "topEntry", "topEntry", "topEntry", "topEntry", "topEntry", "topEntry", "topEntry", "topEntry", "topEntry", "topEntry", "topEntry", "topEntry", "topEntry", "topEntry", "topEntry", "topEntry", "topEntry", "topEntry", "topEntry", "topEntry", "topEntry", "topEntry", "topEntry", "topEntry", "topEntry", "topEntry", "topEntry", "topEntry", "topEntry", "topEntry", "topEntry"]
        uniform uint[] face:loopCount = [1, 1, 2, 1, 2, 1, 1, 1]
        uniform double2[] face:range = [(0, 10), (-10, 0), (0, 10), (0, 10), (0, 10), (0, 10), (0, 10), (0, 10), (0, 10), (0, 10), (0, 10), (-10, 0), (0, 3.14159265359), (1, 11), (3.14159265359, 6.28318530718), (1, 11)]
        uniform token[] face:surfaceType = ["BrepSurfaceNurbAPI", "BrepSurfaceNurbAPI", "BrepSurfaceNurbAPI", "BrepSurfaceNurbAPI", "BrepSurfaceNurbAPI", "BrepSurfaceNurbAPI", "BrepSurfaceNurbAPI", "BrepSurfaceNurbAPI"]
        uniform token[] face:trimType = ["general", "general", "general", "general", "general", "general", "general", "general"]
        uniform uint[] faceuse:faceIndex = [0, 1, 2, 3, 4, 5, 6, 7, 0, 1, 2, 3, 4, 5, 6, 7]
        uniform token[] faceuse:orientationType = ["opposite", "opposite", "same", "same", "opposite", "same", "opposite", "opposite", "same", "same", "opposite", "opposite", "same", "opposite", "same", "same"]
        uniform uint[] loop:edgeuseCount = [4, 4, 4, 2, 4, 4, 2, 4, 4, 4]
        uniform uint[] loop:vertexIndex = [0, 0, 0, 0, 0, 0, 0, 0, 0, 0]
        uniform uint[] region:shellCount = [1, 1]
        uniform token[] region:type = ["voidRegion", "solidRegion"]
        uniform uint[] shell:faceuseCount = [8, 8]
        uniform uint[] shell:wireEdgeCount = [0, 0]
        uniform token[] vertex:pointType = ["BrepPointAPI", "BrepPointAPI", "BrepPointAPI", "BrepPointAPI", "BrepPointAPI", "BrepPointAPI", "BrepPointAPI", "BrepPointAPI", "BrepPointAPI", "BrepPointAPI", "BrepPointAPI", "BrepPointAPI", "BrepPointAPI", "BrepPointAPI", "BrepPointAPI", "BrepPointAPI", "BrepPointAPI", "BrepPointAPI", "BrepPointAPI", "BrepPointAPI", "BrepPointAPI", "BrepPointAPI", "BrepPointAPI", "BrepPointAPI", "BrepPointAPI", "BrepPointAPI", "BrepPointAPI", "BrepPointAPI", "BrepPointAPI", "BrepPointAPI", "BrepPointAPI", "BrepPointAPI", "BrepPointAPI", "BrepPointAPI", "BrepPointAPI", "BrepPointAPI", "BrepPointAPI", "BrepPointAPI", "BrepPointAPI", "BrepPointAPI", "BrepPointAPI", "BrepPointAPI", "BrepPointAPI", "BrepPointAPI", "BrepPointAPI", "BrepPointAPI", "BrepPointAPI", "BrepPointAPI", "BrepPointAPI", "BrepPointAPI", "BrepPointAPI", "BrepPointAPI", "BrepPointAPI", "BrepPointAPI", "BrepPointAPI", "BrepPointAPI", "BrepPointAPI", "BrepPointAPI", "BrepPointAPI", "BrepPointAPI", "BrepPointAPI", "BrepPointAPI", "BrepPointAPI", "BrepPointAPI", "BrepPointAPI", "BrepPointAPI", "BrepPointAPI", "BrepPointAPI", "BrepPointAPI", "BrepPointAPI", "BrepPointAPI", "BrepPointAPI"]
    }
}

