#usda 1.0
(
    defaultPrim = "World"
    metersPerUnit = 0.01
    upAxis = "Y"
    doc = """Generated BrepArray test fixture.
    Box 10^3 with r=2 through-hole along Z. Tests: boolean result, cylindrical+planar trim.
    Expected volume: 874.336
    Expected face count: 7"""
)

def Xform "World"
{
    def BrepArray "CubeWithHole"
    {
        # Topology
        uniform uint[] brep:regionCount = [1]
        uniform uint[] region:shellCount = [1]
        uniform token[] region:type = ["solidRegion"]
        uniform uint[] shell:faceuseCount = [14]
        uniform uint[] shell:wireEdgeCount = [0]
        uniform uint[] face:loopCount = [1, 1, 2, 1, 2, 1, 1]
        uniform token[] face:surfaceType = ["BrepSurfaceNurbAPI", "BrepSurfaceNurbAPI", "BrepSurfaceNurbAPI", "BrepSurfaceNurbAPI", "BrepSurfaceNurbAPI", "BrepSurfaceNurbAPI", "BrepSurfaceNurbAPI"]
        uniform token[] face:trimType = ["general", "general", "general", "general", "general", "general", "general"]
        uniform double2[] face:range = [(0, 10), (-10, 0), (0, 10), (0, 10), (0, 10), (0, 10), (0, 10), (0, 10), (0, 10), (0, 10), (0, 10), (-10, 0), (0, 6.28319), (1, 11)]
        uniform uint[] loop:edgeuseCount = [4, 4, 4, 1, 4, 4, 1, 4, 4]
        uniform uint[] loop:vertexIndex = [1, 1, 2, 7, 8, 1, 9, 5, 7]
        uniform uint[] edgeuse:edgeIndex = [0, 1, 2, 3, 4, 5, 6, 0, 1, 6, 7, 8, 9, 10, 11, 8, 2, 3, 4, 12, 10, 13, 5, 7, 11, 12, 9, 14, 13, 14]
        uniform token[] edgeuse:orientationType = ["same", "same", "opposite", "opposite", "same", "same", "opposite", "opposite", "opposite", "same", "same", "opposite", "opposite", "opposite", "opposite", "same", "same", "same", "opposite", "opposite", "same", "same", "opposite", "opposite", "same", "same", "same", "opposite", "opposite", "same"]
        uniform token[] faceuse:orientationType = ["opposite", "same", "opposite", "same", "same", "opposite", "same", "opposite", "opposite", "same", "same", "opposite", "opposite", "same"]

        # Edge topology
        uniform token[] edge:curveType = ["BrepCurve3dNurbAPI", "BrepCurve3dNurbAPI", "BrepCurve3dNurbAPI", "BrepCurve3dNurbAPI", "BrepCurve3dNurbAPI", "BrepCurve3dNurbAPI", "BrepCurve3dNurbAPI", "BrepCurve3dNurbAPI", "BrepCurve3dNurbAPI", "BrepCurve3dNurbAPI", "BrepCurve3dNurbAPI", "BrepCurve3dNurbAPI", "BrepCurve3dNurbAPI", "BrepCurve3dNurbAPI", "BrepCurve3dNurbAPI"]
        uniform double[] edge:range = [0, 10, 0, 10, 0, 10, 0, 10, 0, 10, 0, 10, 0, 10, 0, 10, 0, 10, 0, 6.28319, 0, 10, 0, 10, 0, 10, 0, 6.28319, 1, 11]
        uniform int2[] edge:vertexIndices = [(1, 0), (0, 2), (2, 3), (3, 1), (1, 4), (4, 5), (5, 0), (5, 6), (6, 2), (7, 7), (8, 3), (6, 8), (8, 4), (9, 9), (7, 9)]

        # Vertex positions
        uniform point3d[] brep:vertexPoint:point:position = [(0, 0, 10), (0, 0, 0), (0, 10, 10), (0, 10, 0), (10, 0, 0), (10, 0, 10), (10, 10, 10), (7, 5, 10), (10, 10, 0), (7, 5, 0)]

        # NURBS surfaces
        uniform uint[] brep:surface:nurb:uVertexCount = [2, 2, 2, 2, 2, 2, 6]
        uniform uint[] brep:surface:nurb:vVertexCount = [2, 2, 2, 2, 2, 2, 2]
        uniform uint[] brep:surface:nurb:uOrder = [2, 2, 2, 2, 2, 2, 3]
        uniform uint[] brep:surface:nurb:vOrder = [2, 2, 2, 2, 2, 2, 2]
        uniform double[] brep:surface:nurb:uKnots = [0, 0, 10, 10, 0, 0, 10, 10, 0, 0, 10, 10, 0, 0, 10, 10, 0, 0, 10, 10, 0, 0, 10, 10, 0, 0, 0, 2.0944, 2.0944, 4.18879, 4.18879, 6.28319, 6.28319, 6.28319]
        uniform double[] brep:surface:nurb:vKnots = [-10, -10, 0, 0, 0, 0, 10, 10, 0, 0, 10, 10, 0, 0, 10, 10, 0, 0, 10, 10, -10, -10, 0, 0, 1, 1, 11, 11]
        uniform point3d[] brep:surface:nurb:controlVertices = [(0, 10, 0), (0, 0, 0), (0, 10, 10), (0, 0, 10), (0, 0, 0), (10, 0, 0), (0, 0, 10), (10, 0, 10), (0, 0, 10), (0, 10, 10), (10, 0, 10), (10, 10, 10), (0, 10, 0), (10, 10, 0), (0, 10, 10), (10, 10, 10), (0, 0, 0), (0, 10, 0), (10, 0, 0), (10, 10, 0), (10, 10, 0), (10, 0, 0), (10, 10, 10), (10, 0, 10), (7, 5, 0), (7, 5, 10), (7, 8.4641, 0), (7, 8.4641, 10), (4, 6.73205, 0), (4, 6.73205, 10), (1, 5, 0), (1, 5, 10), (4, 3.26795, 0), (4, 3.26795, 10), (7, 1.5359, 0), (7, 1.5359, 10)]
        uniform double[] brep:surface:nurb:weights = [1, 1, 0.5, 0.5, 1, 1, 0.5, 0.5, 1, 1, 0.5, 0.5]

        # NURBS 3D edge curves
        uniform uint[] brep:edge3dNurb:curve3d:nurb:vertexCount = [2, 2, 2, 2, 2, 2, 2, 2, 2, 7, 2, 2, 2, 7, 2]
        uniform uint[] brep:edge3dNurb:curve3d:nurb:order = [2, 2, 2, 2, 2, 2, 2, 2, 2, 3, 2, 2, 2, 3, 2]
        uniform double[] brep:edge3dNurb:curve3d:nurb:knots = [0, 0, 10, 10, 0, 0, 10, 10, 0, 0, 10, 10, 0, 0, 10, 10, 0, 0, 10, 10, 0, 0, 10, 10, 0, 0, 10, 10, 0, 0, 10, 10, 0, 0, 10, 10, 0, 0, 0, 2.0944, 2.0944, 4.18879, 4.18879, 6.28319, 6.28319, 6.28319, 0, 0, 10, 10, 0, 0, 10, 10, 0, 0, 10, 10, 0, 0, 0, 2.0944, 2.0944, 4.18879, 4.18879, 6.28319, 6.28319, 6.28319, 1, 1, 11, 11]
        uniform point3d[] brep:edge3dNurb:curve3d:nurb:controlVertices = [(0, 0, 0), (0, 0, 10), (0, 0, 10), (0, 10, 10), (0, 10, 0), (0, 10, 10), (0, 0, 0), (0, 10, 0), (0, 0, 0), (10, 0, 0), (10, 0, 0), (10, 0, 10), (0, 0, 10), (10, 0, 10), (10, 0, 10), (10, 10, 10), (0, 10, 10), (10, 10, 10), (7, 5, 10), (7, 8.4641, 10), (4, 6.73205, 10), (1, 5, 10), (4, 3.26795, 10), (7, 1.5359, 10), (7, 5, 10), (0, 10, 0), (10, 10, 0), (10, 10, 0), (10, 10, 10), (10, 0, 0), (10, 10, 0), (7, 5, 0), (7, 8.4641, 0), (4, 6.73205, 0), (1, 5, 0), (4, 3.26795, 0), (7, 1.5359, 0), (7, 5, 0), (7, 5, 0), (7, 5, 10)]
        uniform double[] brep:edge3dNurb:curve3d:nurb:weights = [1, 0.5, 1, 0.5, 1, 0.5, 1, 1, 1, 1, 1, 1, 1, 1, 0.5, 1, 0.5, 1, 0.5, 1, 1, 1]

        # NURBS UV trim curves (pcurves)
        uniform uint[] brep:curveUv:nurb:vertexCount = [2, 2, 2, 2, 2, 2, 2, 2, 2, 2, 2, 2, 7, 2, 2, 2, 2, 2, 2, 2, 2, 7, 2, 2, 2, 2, 2, 2, 2, 2]
        uniform uint[] brep:curveUv:nurb:order = [2, 2, 2, 2, 2, 2, 2, 2, 2, 2, 2, 2, 3, 2, 2, 2, 2, 2, 2, 2, 2, 3, 2, 2, 2, 2, 2, 2, 2, 2]
        uniform double[] brep:curveUv:nurb:knots = [0, 0, 10, 10, 0, 0, 10, 10, 0, 0, 10, 10, 0, 0, 10, 10, 0, 0, 10, 10, 0, 0, 10, 10, 0, 0, 10, 10, 0, 0, 10, 10, 0, 0, 10, 10, 0, 0, 10, 10, 0, 0, 10, 10, 0, 0, 10, 10, 0, 0, 0, 2.0944, 2.0944, 4.18879, 4.18879, 6.28319, 6.28319, 6.28319, 0, 0, 10, 10, 0, 0, 10, 10, 0, 0, 10, 10, 0, 0, 10, 10, 0, 0, 10, 10, 0, 0, 10, 10, 0, 0, 10, 10, 0, 0, 10, 10, 0, 0, 0, 2.0944, 2.0944, 4.18879, 4.18879, 6.28319, 6.28319, 6.28319, 0, 0, 10, 10, 0, 0, 10, 10, 0, 0, 10, 10, 0, 0, 10, 10, 0, 0, 6.28319, 6.28319, 1, 1, 11, 11, 0, 0, 6.28319, 6.28319, 1, 1, 11, 11]
        uniform point3d[] brep:curveUv:nurb:controlVertices = [(0, 0, 0), (10, 0, 0), (10, 0, 0), (10, -10, 0), (0, -10, 0), (10, -10, 0), (0, 0, 0), (0, -10, 0), (0, 0, 0), (0, 10, 0), (0, 10, 0), (10, 10, 0), (10, 0, 0), (10, 10, 0), (0, 0, 0), (10, 0, 0), (0, 0, 0), (0, 10, 0), (0, 0, 0), (10, 0, 0), (10, 0, 0), (10, 10, 0), (0, 10, 0), (10, 10, 0), (7, 5, 0), (7, 8.4641, 0), (4, 6.73205, 0), (1, 5, 0), (4, 3.26795, 0), (7, 1.5359, 0), (7, 5, 0), (0, 0, 0), (0, 10, 0), (0, 10, 0), (10, 10, 0), (10, 0, 0), (10, 10, 0), (0, 0, 0), (10, 0, 0), (0, 0, 0), (0, 10, 0), (0, 0, 0), (10, 0, 0), (10, 0, 0), (10, 10, 0), (0, 10, 0), (10, 10, 0), (7, 5, 0), (7, 8.4641, 0), (4, 6.73205, 0), (1, 5, 0), (4, 3.26795, 0), (7, 1.5359, 0), (7, 5, 0), (0, 0, 0), (10, 0, 0), (10, 0, 0), (10, -10, 0), (0, -10, 0), (10, -10, 0), (0, 0, 0), (0, -10, 0), (0, 11, 0), (6.28319, 11, 0), (6.28319, 1, 0), (6.28319, 11, 0), (0, 1, 0), (6.28319, 1, 0), (0, 1, 0), (0, 11, 0)]
        uniform double[] brep:curveUv:nurb:weights = [1, 0.5, 1, 0.5, 1, 0.5, 1, 1, 1, 1, 1, 1, 1, 1, 1, 1, 1, 1, 1, 1, 1, 1, 1, 1, 0.5, 1, 0.5, 1, 0.5, 1, 1, 1, 1, 1, 1, 1, 1, 1, 1, 1, 1, 1, 1, 1, 1, 1]

        # Tolerance
        uniform double[] brep:intersectTol3d = [1e-6]
    }
}
