#usda 1.0
(
    defaultPrim = "World"
    metersPerUnit = 0.01
    upAxis = "Y"
    doc = """Generated BrepArray test fixture.
    Cone r=5 h=10 (apex at top). Tests: degenerate apex vertex, conical surface.
    Expected volume: 261.799
    Expected face count: 2"""
)

def Xform "World"
{
    def BrepArray "Cone"
    {
        # Topology
        uniform uint[] brep:regionCount = [1]
        uniform uint[] region:shellCount = [1]
        uniform token[] region:type = ["solidRegion"]
        uniform uint[] shell:faceuseCount = [4]
        uniform uint[] shell:wireEdgeCount = [0]
        uniform uint[] face:loopCount = [1, 1]
        uniform token[] face:surfaceType = ["BrepSurfaceNurbAPI", "BrepSurfaceNurbAPI"]
        uniform token[] face:trimType = ["general", "general"]
        uniform double2[] face:range = [(0, 6.28319), (0, 11.1803), (-5, 5), (-5, 5)]
        uniform uint[] loop:edgeuseCount = [4, 1]
        uniform uint[] loop:vertexIndex = [0, 1]
        uniform uint[] edgeuse:edgeIndex = [0, 1, 2, 1, 2]
        uniform token[] edgeuse:orientationType = ["opposite", "same", "same", "opposite", "opposite"]
        uniform token[] faceuse:orientationType = ["same", "opposite", "opposite", "same"]

        # Edge topology
        uniform token[] edge:curveType = ["BrepCurve3dNurbAPI", "BrepCurve3dNurbAPI", "BrepCurve3dNurbAPI"]
        uniform double[] edge:range = [0, 6.28319, 0, 11.1803, 0, 6.28319]
        uniform int2[] edge:vertexIndices = [(0, 0), (1, 0), (1, 1)]

        # Vertex positions
        uniform point3d[] brep:vertexPoint:point:position = [(-8.88178e-16, 2.17541e-31, 10), (5, -1.22465e-15, 0)]

        # NURBS surfaces
        uniform uint[] brep:surface:nurb:uVertexCount = [6, 2]
        uniform uint[] brep:surface:nurb:vVertexCount = [2, 2]
        uniform uint[] brep:surface:nurb:uOrder = [3, 2]
        uniform uint[] brep:surface:nurb:vOrder = [2, 2]
        uniform double[] brep:surface:nurb:uKnots = [0, 0, 0, 2.0944, 2.0944, 4.18879, 4.18879, 6.28319, 6.28319, 6.28319, -5, -5, 5, 5]
        uniform double[] brep:surface:nurb:vKnots = [0, 0, 11.1803, 11.1803, -5, -5, 5, 5]
        uniform point3d[] brep:surface:nurb:controlVertices = [(5, 0, 0), (0, 0, 10), (5, 8.66025, 0), (0, 0, 10), (-2.5, 4.33013, 0), (0, 0, 10), (-10, 1.22465e-15, 0), (0, 0, 10), (-2.5, -4.33013, 0), (0, 0, 10), (5, -8.66025, 0), (0, 0, 10), (-5, -5, 0), (-5, 5, 0), (5, -5, 0), (5, 5, 0)]
        uniform double[] brep:surface:nurb:weights = [1, 1, 0.5, 0.5, 1, 1, 0.5, 0.5, 1, 1, 0.5, 0.5, 1, 1, 1, 1]

        # NURBS 3D edge curves
        uniform uint[] brep:edge3dNurb:curve3d:nurb:vertexCount = [2, 2, 7]
        uniform uint[] brep:edge3dNurb:curve3d:nurb:order = [2, 2, 3]
        uniform double[] brep:edge3dNurb:curve3d:nurb:knots = [0, 1, 0, 0, 11.1803, 11.1803, 0, 0, 0, 2.0944, 2.0944, 4.18879, 4.18879, 6.28319, 6.28319, 6.28319]
        uniform point3d[] brep:edge3dNurb:curve3d:nurb:controlVertices = [(-8.88178e-16, 2.17541e-31, 10), (-8.88178e-16, 2.17541e-31, 10), (5, -1.22465e-15, 0), (-8.88178e-16, 0, 10), (5, 0, 0), (5, 8.66025, 0), (-2.5, 4.33013, 0), (-10, 1.22465e-15, 0), (-2.5, -4.33013, 0), (5, -8.66025, 0), (5, -1.22465e-15, 0)]
        uniform double[] brep:edge3dNurb:curve3d:nurb:weights = [1, 0.5, 1, 0.5, 1, 0.5, 1]

        # NURBS UV trim curves (pcurves)
        uniform uint[] brep:curveUv:nurb:vertexCount = [2, 2, 2, 2, 7]
        uniform uint[] brep:curveUv:nurb:order = [2, 2, 2, 2, 3]
        uniform double[] brep:curveUv:nurb:knots = [0, 0, 6.28319, 6.28319, 0, 0, 11.1803, 11.1803, 0, 0, 6.28319, 6.28319, 0, 0, 11.1803, 11.1803, 0, 0, 0, 2.0944, 2.0944, 4.18879, 4.18879, 6.28319, 6.28319, 6.28319]
        uniform point3d[] brep:curveUv:nurb:controlVertices = [(0, 11.1803, 0), (6.28319, 11.1803, 0), (6.28319, 0, 0), (6.28319, 11.1803, 0), (0, 0, 0), (6.28319, 0, 0), (0, 0, 0), (0, 11.1803, 0), (5, 0, 0), (5, 8.66025, 0), (-2.5, 4.33013, 0), (-10, 1.22465e-15, 0), (-2.5, -4.33013, 0), (5, -8.66025, 0), (5, -1.22465e-15, 0)]
        uniform double[] brep:curveUv:nurb:weights = [1, 0.5, 1, 0.5, 1, 0.5, 1]

        # Tolerance
        uniform double[] brep:intersectTol3d = [1e-6]
    }
}
