#usda 1.0
(
    defaultPrim = "World"
    doc = """Sphere radius=5 centered at origin (OCCT-generated analytic solid; degenerate-edge-free, pole=converging vertex per proposal rule 381).

Generated from Composed Stage of root layer fixtures/testSphere.usda
"""
    metersPerUnit = 1
    upAxis = "Z"
)

def Xform "World"
{
    def BrepArray "Sphere" (
        apiSchemas = ["BrepPointAPI:vertexPoint", "BrepCurve3dNurbAPI:edge3dNurb", "BrepSurfaceSphereAPI"]
    )
    {
        uniform point3d[] brep:edge3dNurb:curve3d:nurb:controlVertices = [(0, 0, -5), (-1.96349540849, 0, -5), (-3.92701410471, 0, -4.11858607746), (-5.42892128603, 0, -2.35734222073), (-6.009028645, 0, 0), (-5.42892128603, 0, 2.35734222073), (-3.92701410471, 0, 4.11858607746), (-1.96349540849, 0, 5), (0, 0, 5), (0, 0, -5), (5, 0, -5), (5, 0, 0), (5, 0, 5), (0, 0, 5)]
        uniform double[] brep:edge3dNurb:curve3d:nurb:knots = [-1.57079632679, -1.57079632679, -1.57079632679, -1.57079632679, -1.57079632679, -1.57079632679, -1.57079632679, -1.57079632679, -1.57079632679, 1.57079632679, 1.57079632679, 1.57079632679, 1.57079632679, 1.57079632679, 1.57079632679, 1.57079632679, 1.57079632679, 1.57079632679, 4.71238898038, 4.71238898038, 4.71238898038, 6.28318530718, 6.28318530718, 7.85398163397, 7.85398163397, 7.85398163397]
        uniform uint[] brep:edge3dNurb:curve3d:nurb:order = [9, 3]
        uniform uint[] brep:edge3dNurb:curve3d:nurb:vertexCount = [9, 5]
        uniform double[] brep:edge3dNurb:curve3d:nurb:weights = [1, 1, 1, 1, 1, 1, 1, 1, 1, 1, 0.707106781187, 1, 0.707106781187, 1]
        uniform double3[] brep:extent = [(-6.009028645, 0, -5), (5, 0, 5)]
        uniform double[] brep:intersectTol3d = [0.000001]
        uniform uint[] brep:regionCount = [2]
        uniform vector3d[] brep:surface:sphere:axis = [(0, 0, 1), (0, 0, 1)]
        uniform point3d[] brep:surface:sphere:center = [(0, 0, 0), (0, 0, 0)]
        uniform double[] brep:surface:sphere:radius = [5, 5]
        uniform vector3d[] brep:surface:sphere:refDirection = [(1, 0, 0), (1, 0, 0)]
        uniform point3d[] brep:vertexPoint:point:position = [(0, 0, 5), (0, 0, -5)]
        uniform token[] edge:curveType = ["BrepCurve3dNurbAPI", "BrepCurve3dNurbAPI"]
        uniform double[] edge:range = [-1.57079632679, 1.57079632679, 4.71238898038, 7.85398163397]
        uniform int2[] edge:vertexIndices = [(1, 0), (1, 0)]
        uniform uint[] edgeuse:edgeIndex = [0, 1, 1, 0]
        uniform uint[] edgeuse:nextRadialEUIndex = [3, 2, 1, 0]
        uniform token[] edgeuse:orientationType = ["opposite", "same", "opposite", "same"]
        uniform token[] edgeuse:thisRadialEntryType = ["topEntry", "topEntry", "bottomEntry", "bottomEntry"]
        uniform uint[] face:loopCount = [1, 1]
        uniform double2[] face:range = [(3.14159265359, -1.57079632679), (6.28318530718, 1.57079632679), (0, -1.57079632679), (3.14159265359, 1.57079632679)]
        uniform token[] face:surfaceType = ["BrepSurfaceSphereAPI", "BrepSurfaceSphereAPI"]
        uniform token[] face:trimType = ["general", "general"]
        uniform uint[] faceuse:faceIndex = [0, 1, 0, 1]
        uniform token[] faceuse:orientationType = ["same", "same", "opposite", "opposite"]
        uniform uint[] loop:edgeuseCount = [2, 2]
        uniform uint[] loop:vertexIndex = [0, 0]
        uniform uint[] region:shellCount = [1, 1]
        uniform token[] region:type = ["voidRegion", "solidRegion"]
        uniform uint[] shell:faceuseCount = [2, 2]
        uniform token[] shell:pointType = ["none", "none"]
        uniform uint[] shell:wireEdgeCount = [0, 0]
        uniform token[] vertex:pointType = ["BrepPointAPI", "BrepPointAPI"]
        uniform token[] wireEdge:curveType = []
        uniform double[] wireEdge:range = []
        uniform int2[] wireEdge:vertexIndices = []
    }
}

