#usda 1.0
(
    defaultPrim = "World"
    doc = """Box 10^3 with r=3 through-hole along Z (OCCT-generated, shared topology).

Generated from Composed Stage of root layer fixtures/testCubeWithHole.usda
"""
    metersPerUnit = 0.01
    upAxis = "Y"
)

def Xform "World"
{
    def BrepArray "CubeWithHole" (
        apiSchemas = ["BrepPointAPI:vertexPoint", "BrepCurve3dNurbAPI:edge3dNurb", "BrepSurfaceNurbAPI"]
    )
    {
        uniform point3d[] brep:edge3dNurb:curve3d:nurb:controlVertices = [(0, 0, 0), (0, 10, 0), (0, 10, 0), (0, 10, 10), (0, 0, 10), (0, 10, 10), (0, 0, 0), (0, 0, 10), (0, 0, 10), (10, 0, 10), (10, 0, 0), (10, 0, 10), (0, 0, 0), (10, 0, 0), (10, 0, 10), (10, 10, 10), (0, 10, 10), (10, 10, 10), (8, 5, 10), (8, 10.1961524227, 10), (3.5, 7.59807621135, 10), (2, 6.73205080757, 10), (2, 5, 10), (2, 5, 10), (2, 3.26794919243, 10), (3.5, 2.40192378865, 10), (8, -0.196152422707, 10), (8, 5, 10), (0, 10, 0), (10, 10, 0), (10, 10, 0), (10, 10, 10), (10, 0, 0), (10, 10, 0), (2, 5, 0), (2, 3.26794919243, 0), (3.5, 2.40192378865, 0), (8, -0.196152422707, 0), (8, 5, 0), (8, 5, 0), (8, 10.1961524227, 0), (3.5, 7.59807621135, 0), (2, 6.73205080757, 0), (2, 5, 0), (8, 5, 0), (8, 5, 10), (2, 5, 0), (2, 5, 10)]
        uniform double[] brep:edge3dNurb:curve3d:nurb:knots = [0, 0, 10, 10, 0, 0, 10, 10, 0, 0, 10, 10, 0, 0, 10, 10, 0, 0, 10, 10, 0, 0, 10, 10, 0, 0, 10, 10, 0, 0, 10, 10, 0, 0, 10, 10, 0, 0, 0, 2.09439510239, 2.09439510239, 3.14159265359, 3.14159265359, 3.14159265359, 3.14159265359, 3.14159265359, 3.14159265359, 4.18879020479, 4.18879020479, 6.28318530718, 6.28318530718, 6.28318530718, 0, 0, 10, 10, 0, 0, 10, 10, 0, 0, 10, 10, 3.14159265359, 3.14159265359, 3.14159265359, 4.18879020479, 4.18879020479, 6.28318530718, 6.28318530718, 6.28318530718, 0, 0, 0, 2.09439510239, 2.09439510239, 3.14159265359, 3.14159265359, 3.14159265359, 1, 1, 11, 11, 1, 1, 11, 11]
        uniform uint[] brep:edge3dNurb:curve3d:nurb:order = [2, 2, 2, 2, 2, 2, 2, 2, 2, 3, 3, 2, 2, 2, 3, 3, 2, 2]
        uniform uint[] brep:edge3dNurb:curve3d:nurb:vertexCount = [2, 2, 2, 2, 2, 2, 2, 2, 2, 5, 5, 2, 2, 2, 5, 5, 2, 2]
        uniform double[] brep:edge3dNurb:curve3d:nurb:weights = [1, 1, 1, 1, 1, 1, 1, 1, 1, 1, 1, 1, 1, 1, 1, 1, 1, 1, 1, 0.5, 1, 0.75, 0.75, 0.75, 0.75, 1, 0.5, 1, 1, 1, 1, 1, 1, 1, 0.75, 0.75, 1, 0.5, 1, 1, 0.5, 1, 0.75, 0.75, 1, 1, 1, 1]
        uniform double3[] brep:extent = [(0, -0.196152422707, 0), (10, 10.1961524227, 10)]
        uniform double[] brep:intersectTol3d = [0.000001]
        uniform uint[] brep:regionCount = [2]
        uniform point3d[] brep:surface:nurb:controlVertices = [(0, 10, 0), (0, 0, 0), (0, 10, 10), (0, 0, 10), (0, 0, 0), (10, 0, 0), (0, 0, 10), (10, 0, 10), (0, 0, 10), (0, 10, 10), (10, 0, 10), (10, 10, 10), (0, 10, 0), (10, 10, 0), (0, 10, 10), (10, 10, 10), (0, 0, 0), (0, 10, 0), (10, 0, 0), (10, 10, 0), (10, 10, 0), (10, 0, 0), (10, 10, 10), (10, 0, 10), (8, 5, 0), (8, 5, 10), (8, 10.1961524227, 0), (8, 10.1961524227, 10), (3.5, 7.59807621135, 0), (3.5, 7.59807621135, 10), (2, 6.73205080757, 0), (2, 6.73205080757, 10), (2, 5, 0), (2, 5, 10), (2, 5, 0), (2, 5, 10), (2, 3.26794919243, 0), (2, 3.26794919243, 10), (3.5, 2.40192378865, 0), (3.5, 2.40192378865, 10), (8, -0.196152422707, 0), (8, -0.196152422707, 10), (8, 5, 0), (8, 5, 10)]
        uniform double[] brep:surface:nurb:uKnots = [0, 0, 10, 10, 0, 0, 10, 10, 0, 0, 10, 10, 0, 0, 10, 10, 0, 0, 10, 10, 0, 0, 10, 10, 0, 0, 0, 2.09439510239, 2.09439510239, 3.14159265359, 3.14159265359, 3.14159265359, 3.14159265359, 3.14159265359, 3.14159265359, 4.18879020479, 4.18879020479, 6.28318530718, 6.28318530718, 6.28318530718]
        uniform uint[] brep:surface:nurb:uOrder = [2, 2, 2, 2, 2, 2, 3, 3]
        uniform uint[] brep:surface:nurb:uVertexCount = [2, 2, 2, 2, 2, 2, 5, 5]
        uniform double[] brep:surface:nurb:vKnots = [-10, -10, 0, 0, 0, 0, 10, 10, 0, 0, 10, 10, 0, 0, 10, 10, 0, 0, 10, 10, -10, -10, 0, 0, 1, 1, 11, 11, 1, 1, 11, 11]
        uniform uint[] brep:surface:nurb:vOrder = [2, 2, 2, 2, 2, 2, 2, 2]
        uniform uint[] brep:surface:nurb:vVertexCount = [2, 2, 2, 2, 2, 2, 2, 2]
        uniform double[] brep:surface:nurb:weights = [1, 1, 1, 1, 1, 1, 1, 1, 1, 1, 1, 1, 1, 1, 1, 1, 1, 1, 1, 1, 1, 1, 1, 1, 1, 1, 0.5, 0.5, 1, 1, 0.75, 0.75, 0.75, 0.75, 0.75, 0.75, 0.75, 0.75, 1, 1, 0.5, 0.5, 1, 1]
        uniform point3d[] brep:vertexPoint:point:position = [(0, 0, 10), (0, 0, 0), (0, 10, 10), (0, 10, 0), (10, 0, 0), (10, 0, 10), (10, 10, 10), (2, 5, 10), (8, 5, 10), (10, 10, 0), (8, 5, 0), (2, 5, 0)]
        uniform token[] edge:curveType = ["BrepCurve3dNurbAPI", "BrepCurve3dNurbAPI", "BrepCurve3dNurbAPI", "BrepCurve3dNurbAPI", "BrepCurve3dNurbAPI", "BrepCurve3dNurbAPI", "BrepCurve3dNurbAPI", "BrepCurve3dNurbAPI", "BrepCurve3dNurbAPI", "BrepCurve3dNurbAPI", "BrepCurve3dNurbAPI", "BrepCurve3dNurbAPI", "BrepCurve3dNurbAPI", "BrepCurve3dNurbAPI", "BrepCurve3dNurbAPI", "BrepCurve3dNurbAPI", "BrepCurve3dNurbAPI", "BrepCurve3dNurbAPI"]
        uniform double[] edge:range = [0, 10, 0, 10, 0, 10, 0, 10, 0, 10, 0, 10, 0, 10, 0, 10, 0, 10, 0, 3.14159265359, 3.14159265359, 6.28318530718, 0, 10, 0, 10, 0, 10, 3.14159265359, 6.28318530718, 0, 3.14159265359, 1, 11, 1, 11]
        uniform int2[] edge:vertexIndices = [(1, 3), (3, 2), (0, 2), (1, 0), (0, 5), (4, 5), (1, 4), (5, 6), (2, 6), (8, 7), (7, 8), (3, 9), (9, 6), (4, 9), (11, 10), (10, 11), (10, 8), (11, 7)]
        uniform uint[] edgeuse:edgeIndex = [0, 1, 2, 3, 3, 4, 5, 6, 2, 4, 7, 8, 9, 10, 11, 1, 8, 12, 6, 13, 11, 0, 14, 15, 5, 13, 12, 7, 16, 15, 17, 9, 16, 10, 17, 14]
        uniform uint[] edgeuse:nextRadialEUIndex = [21, 15, 8, 4, 3, 9, 24, 18, 2, 5, 27, 16, 31, 33, 20, 1, 11, 26, 7, 25, 14, 0, 35, 29, 6, 19, 17, 10, 32, 23, 34, 12, 28, 13, 30, 22]
        uniform token[] edgeuse:orientationType = ["same", "same", "opposite", "opposite", "same", "same", "opposite", "opposite", "opposite", "same", "same", "opposite", "opposite", "opposite", "opposite", "same", "same", "opposite", "same", "same", "opposite", "opposite", "opposite", "opposite", "opposite", "same", "same", "opposite", "opposite", "same", "same", "opposite", "same", "opposite", "opposite", "same"]
        uniform token[] edgeuse:thisRadialEntryType = ["topEntry", "topEntry", "topEntry", "topEntry", "bottomEntry", "topEntry", "topEntry", "topEntry", "bottomEntry", "bottomEntry", "topEntry", "topEntry", "topEntry", "topEntry", "topEntry", "bottomEntry", "bottomEntry", "topEntry", "bottomEntry", "topEntry", "bottomEntry", "bottomEntry", "topEntry", "topEntry", "bottomEntry", "bottomEntry", "bottomEntry", "bottomEntry", "topEntry", "bottomEntry", "topEntry", "bottomEntry", "bottomEntry", "bottomEntry", "bottomEntry", "bottomEntry"]
        uniform uint[] face:loopCount = [1, 1, 2, 1, 2, 1, 1, 1]
        uniform double2[] face:range = [(0, -10), (10, 0), (0, 0), (10, 10), (0, 0), (10, 10), (0, 0), (10, 10), (0, 0), (10, 10), (0, -10), (10, 0), (0, 1), (3.14159265359, 11), (3.14159265359, 1), (6.28318530718, 11)]
        uniform token[] face:surfaceType = ["BrepSurfaceNurbAPI", "BrepSurfaceNurbAPI", "BrepSurfaceNurbAPI", "BrepSurfaceNurbAPI", "BrepSurfaceNurbAPI", "BrepSurfaceNurbAPI", "BrepSurfaceNurbAPI", "BrepSurfaceNurbAPI"]
        uniform token[] face:trimType = ["general", "general", "general", "general", "general", "general", "general", "general"]
        uniform uint[] faceuse:faceIndex = [0, 1, 2, 3, 4, 5, 6, 7, 0, 1, 2, 3, 4, 5, 6, 7]
        uniform token[] faceuse:orientationType = ["opposite", "opposite", "same", "same", "opposite", "same", "opposite", "opposite", "same", "same", "opposite", "opposite", "same", "opposite", "same", "same"]
        uniform uint[] loop:edgeuseCount = [4, 4, 4, 2, 4, 4, 2, 4, 4, 4]
        uniform uint[] loop:vertexIndex = [0, 0, 0, 0, 0, 0, 0, 0, 0, 0]
        uniform uint[] region:shellCount = [1, 1]
        uniform token[] region:type = ["voidRegion", "solidRegion"]
        uniform uint[] shell:faceuseCount = [8, 8]
        uniform token[] shell:pointType = ["none", "none"]
        uniform uint[] shell:wireEdgeCount = [0, 0]
        uniform token[] vertex:pointType = ["BrepPointAPI", "BrepPointAPI", "BrepPointAPI", "BrepPointAPI", "BrepPointAPI", "BrepPointAPI", "BrepPointAPI", "BrepPointAPI", "BrepPointAPI", "BrepPointAPI", "BrepPointAPI", "BrepPointAPI"]
        uniform token[] wireEdge:curveType = []
        uniform double[] wireEdge:range = []
        uniform int2[] wireEdge:vertexIndices = []
    }
}

